<svg xmlns="http://www.w3.org/2000/svg" xmlns:xlink="http://www.w3.org/1999/xlink" width="800" height="800" viewBox="0 0 3200 3200">
<defs>
  <clipPath id="clip480">
    <rect x="0" y="0" width="3200" height="3200"></rect>
  </clipPath>
</defs>
<path clip-path="url(#clip480)" d="M0 3200 L3200 3200 L3200 0 L0 0  Z" fill="#ffffff" fill-rule="evenodd" fill-opacity="1"></path>
<defs>
  <clipPath id="clip481">
    <rect x="640" y="320" width="2241" height="2241"></rect>
  </clipPath>
</defs>
<path clip-path="url(#clip480)" d="M288.964 2966.14 L3152.76 2966.14 L3152.76 153.712 L288.964 153.712  Z" fill="#ffffff" fill-rule="evenodd" fill-opacity="1"></path>
<defs>
  <clipPath id="clip482">
    <rect x="288" y="153" width="2865" height="2813"></rect>
  </clipPath>
</defs>
<polyline clip-path="url(#clip482)" style="stroke:#000000; stroke-linecap:round; stroke-linejoin:round; stroke-width:2; stroke-opacity:0.1; fill:none" points="288.964,2966.14 288.964,153.712 "></polyline>
<polyline clip-path="url(#clip482)" style="stroke:#000000; stroke-linecap:round; stroke-linejoin:round; stroke-width:2; stroke-opacity:0.1; fill:none" points="1004.91,2966.14 1004.91,153.712 "></polyline>
<polyline clip-path="url(#clip482)" style="stroke:#000000; stroke-linecap:round; stroke-linejoin:round; stroke-width:2; stroke-opacity:0.1; fill:none" points="1720.86,2966.14 1720.86,153.712 "></polyline>
<polyline clip-path="url(#clip482)" style="stroke:#000000; stroke-linecap:round; stroke-linejoin:round; stroke-width:2; stroke-opacity:0.1; fill:none" points="2436.81,2966.14 2436.81,153.712 "></polyline>
<polyline clip-path="url(#clip482)" style="stroke:#000000; stroke-linecap:round; stroke-linejoin:round; stroke-width:2; stroke-opacity:0.1; fill:none" points="3152.76,2966.14 3152.76,153.712 "></polyline>
<polyline clip-path="url(#clip482)" style="stroke:#000000; stroke-linecap:round; stroke-linejoin:round; stroke-width:2; stroke-opacity:0.1; fill:none" points="288.964,2966.14 3152.76,2966.14 "></polyline>
<polyline clip-path="url(#clip482)" style="stroke:#000000; stroke-linecap:round; stroke-linejoin:round; stroke-width:2; stroke-opacity:0.1; fill:none" points="288.964,2263.03 3152.76,2263.03 "></polyline>
<polyline clip-path="url(#clip482)" style="stroke:#000000; stroke-linecap:round; stroke-linejoin:round; stroke-width:2; stroke-opacity:0.1; fill:none" points="288.964,1559.93 3152.76,1559.93 "></polyline>
<polyline clip-path="url(#clip482)" style="stroke:#000000; stroke-linecap:round; stroke-linejoin:round; stroke-width:2; stroke-opacity:0.1; fill:none" points="288.964,856.819 3152.76,856.819 "></polyline>
<polyline clip-path="url(#clip482)" style="stroke:#000000; stroke-linecap:round; stroke-linejoin:round; stroke-width:2; stroke-opacity:0.1; fill:none" points="288.964,153.712 3152.76,153.712 "></polyline>
<polyline clip-path="url(#clip480)" style="stroke:#000000; stroke-linecap:round; stroke-linejoin:round; stroke-width:4; stroke-opacity:1; fill:none" points="288.964,2966.14 3152.76,2966.14 "></polyline>
<polyline clip-path="url(#clip480)" style="stroke:#000000; stroke-linecap:round; stroke-linejoin:round; stroke-width:4; stroke-opacity:1; fill:none" points="288.964,2966.14 288.964,2947.24 "></polyline>
<polyline clip-path="url(#clip480)" style="stroke:#000000; stroke-linecap:round; stroke-linejoin:round; stroke-width:4; stroke-opacity:1; fill:none" points="1004.91,2966.14 1004.91,2947.24 "></polyline>
<polyline clip-path="url(#clip480)" style="stroke:#000000; stroke-linecap:round; stroke-linejoin:round; stroke-width:4; stroke-opacity:1; fill:none" points="1720.86,2966.14 1720.86,2947.24 "></polyline>
<polyline clip-path="url(#clip480)" style="stroke:#000000; stroke-linecap:round; stroke-linejoin:round; stroke-width:4; stroke-opacity:1; fill:none" points="2436.81,2966.14 2436.81,2947.24 "></polyline>
<polyline clip-path="url(#clip480)" style="stroke:#000000; stroke-linecap:round; stroke-linejoin:round; stroke-width:4; stroke-opacity:1; fill:none" points="3152.76,2966.14 3152.76,2947.24 "></polyline>
<path clip-path="url(#clip480)" d="M235.492 3018.11 L265.168 3018.11 L265.168 3022.05 L235.492 3022.05 L235.492 3018.11 Z" fill="#000000" fill-rule="nonzero" fill-opacity="1"></path><path clip-path="url(#clip480)" d="M276.071 3031 L283.709 3031 L283.709 3004.64 L275.399 3006.31 L275.399 3002.05 L283.663 3000.38 L288.339 3000.38 L288.339 3031 L295.978 3031 L295.978 3034.94 L276.071 3034.94 L276.071 3031 Z" fill="#000000" fill-rule="nonzero" fill-opacity="1"></path><path clip-path="url(#clip480)" d="M305.422 3029.06 L310.307 3029.06 L310.307 3034.94 L305.422 3034.94 L305.422 3029.06 Z" fill="#000000" fill-rule="nonzero" fill-opacity="1"></path><path clip-path="url(#clip480)" d="M330.492 3003.46 Q326.88 3003.46 325.052 3007.02 Q323.246 3010.56 323.246 3017.69 Q323.246 3024.8 325.052 3028.37 Q326.88 3031.91 330.492 3031.91 Q334.126 3031.91 335.931 3028.37 Q337.76 3024.8 337.76 3017.69 Q337.76 3010.56 335.931 3007.02 Q334.126 3003.46 330.492 3003.46 M330.492 2999.75 Q336.302 2999.75 339.357 3004.36 Q342.436 3008.94 342.436 3017.69 Q342.436 3026.42 339.357 3031.03 Q336.302 3035.61 330.492 3035.61 Q324.681 3035.61 321.603 3031.03 Q318.547 3026.42 318.547 3017.69 Q318.547 3008.94 321.603 3004.36 Q324.681 2999.75 330.492 2999.75 Z" fill="#000000" fill-rule="nonzero" fill-opacity="1"></path><path clip-path="url(#clip480)" d="M951.938 3018.11 L981.614 3018.11 L981.614 3022.05 L951.938 3022.05 L951.938 3018.11 Z" fill="#000000" fill-rule="nonzero" fill-opacity="1"></path><path clip-path="url(#clip480)" d="M1001.71 3003.46 Q998.095 3003.46 996.266 3007.02 Q994.461 3010.56 994.461 3017.69 Q994.461 3024.8 996.266 3028.37 Q998.095 3031.91 1001.71 3031.91 Q1005.34 3031.91 1007.15 3028.37 Q1008.97 3024.8 1008.97 3017.69 Q1008.97 3010.56 1007.15 3007.02 Q1005.34 3003.46 1001.71 3003.46 M1001.71 2999.75 Q1007.52 2999.75 1010.57 3004.36 Q1013.65 3008.94 1013.65 3017.69 Q1013.65 3026.42 1010.57 3031.03 Q1007.52 3035.61 1001.71 3035.61 Q995.896 3035.61 992.817 3031.03 Q989.762 3026.42 989.762 3017.69 Q989.762 3008.94 992.817 3004.36 Q995.896 2999.75 1001.71 2999.75 Z" fill="#000000" fill-rule="nonzero" fill-opacity="1"></path><path clip-path="url(#clip480)" d="M1021.87 3029.06 L1026.75 3029.06 L1026.75 3034.94 L1021.87 3034.94 L1021.87 3029.06 Z" fill="#000000" fill-rule="nonzero" fill-opacity="1"></path><path clip-path="url(#clip480)" d="M1036.98 3000.38 L1055.34 3000.38 L1055.34 3004.32 L1041.27 3004.32 L1041.27 3012.79 Q1042.28 3012.44 1043.3 3012.28 Q1044.32 3012.09 1045.34 3012.09 Q1051.13 3012.09 1054.51 3015.26 Q1057.89 3018.44 1057.89 3023.85 Q1057.89 3029.43 1054.41 3032.53 Q1050.94 3035.61 1044.62 3035.61 Q1042.45 3035.61 1040.18 3035.24 Q1037.93 3034.87 1035.53 3034.13 L1035.53 3029.43 Q1037.61 3030.56 1039.83 3031.12 Q1042.05 3031.68 1044.53 3031.68 Q1048.53 3031.68 1050.87 3029.57 Q1053.21 3027.46 1053.21 3023.85 Q1053.21 3020.24 1050.87 3018.13 Q1048.53 3016.03 1044.53 3016.03 Q1042.65 3016.03 1040.78 3016.44 Q1038.93 3016.86 1036.98 3017.74 L1036.98 3000.38 Z" fill="#000000" fill-rule="nonzero" fill-opacity="1"></path><path clip-path="url(#clip480)" d="M1698.24 3003.46 Q1694.63 3003.46 1692.8 3007.02 Q1691 3010.56 1691 3017.69 Q1691 3024.8 1692.8 3028.37 Q1694.63 3031.91 1698.24 3031.91 Q1701.88 3031.91 1703.68 3028.37 Q1705.51 3024.8 1705.51 3017.69 Q1705.51 3010.56 1703.68 3007.02 Q1701.88 3003.46 1698.24 3003.46 M1698.24 2999.75 Q1704.05 2999.75 1707.11 3004.36 Q1710.19 3008.94 1710.19 3017.69 Q1710.19 3026.42 1707.11 3031.03 Q1704.05 3035.61 1698.24 3035.61 Q1692.43 3035.61 1689.36 3031.03 Q1686.3 3026.42 1686.3 3017.69 Q1686.3 3008.94 1689.36 3004.36 Q1692.43 2999.75 1698.24 2999.75 Z" fill="#000000" fill-rule="nonzero" fill-opacity="1"></path><path clip-path="url(#clip480)" d="M1718.41 3029.06 L1723.29 3029.06 L1723.29 3034.94 L1718.41 3034.94 L1718.41 3029.06 Z" fill="#000000" fill-rule="nonzero" fill-opacity="1"></path><path clip-path="url(#clip480)" d="M1743.48 3003.46 Q1739.86 3003.46 1738.04 3007.02 Q1736.23 3010.56 1736.23 3017.69 Q1736.23 3024.8 1738.04 3028.37 Q1739.86 3031.91 1743.48 3031.91 Q1747.11 3031.91 1748.92 3028.37 Q1750.74 3024.8 1750.74 3017.69 Q1750.74 3010.56 1748.92 3007.02 Q1747.11 3003.46 1743.48 3003.46 M1743.48 2999.75 Q1749.29 2999.75 1752.34 3004.36 Q1755.42 3008.94 1755.42 3017.69 Q1755.42 3026.42 1752.34 3031.03 Q1749.29 3035.61 1743.48 3035.61 Q1737.67 3035.61 1734.59 3031.03 Q1731.53 3026.42 1731.53 3017.69 Q1731.53 3008.94 1734.59 3004.36 Q1737.67 2999.75 1743.48 2999.75 Z" fill="#000000" fill-rule="nonzero" fill-opacity="1"></path><path clip-path="url(#clip480)" d="M2414.69 3003.46 Q2411.08 3003.46 2409.25 3007.02 Q2407.44 3010.56 2407.44 3017.69 Q2407.44 3024.8 2409.25 3028.37 Q2411.08 3031.91 2414.69 3031.91 Q2418.32 3031.91 2420.13 3028.37 Q2421.96 3024.8 2421.96 3017.69 Q2421.96 3010.56 2420.13 3007.02 Q2418.32 3003.46 2414.69 3003.46 M2414.69 2999.75 Q2420.5 2999.75 2423.56 3004.36 Q2426.63 3008.94 2426.63 3017.69 Q2426.63 3026.42 2423.56 3031.03 Q2420.5 3035.61 2414.69 3035.61 Q2408.88 3035.61 2405.8 3031.03 Q2402.75 3026.42 2402.75 3017.69 Q2402.75 3008.94 2405.8 3004.36 Q2408.88 2999.75 2414.69 2999.75 Z" fill="#000000" fill-rule="nonzero" fill-opacity="1"></path><path clip-path="url(#clip480)" d="M2434.85 3029.06 L2439.74 3029.06 L2439.74 3034.94 L2434.85 3034.94 L2434.85 3029.06 Z" fill="#000000" fill-rule="nonzero" fill-opacity="1"></path><path clip-path="url(#clip480)" d="M2449.97 3000.38 L2468.32 3000.38 L2468.32 3004.32 L2454.25 3004.32 L2454.25 3012.79 Q2455.27 3012.44 2456.29 3012.28 Q2457.31 3012.09 2458.32 3012.09 Q2464.11 3012.09 2467.49 3015.26 Q2470.87 3018.44 2470.87 3023.85 Q2470.87 3029.43 2467.4 3032.53 Q2463.93 3035.61 2457.61 3035.61 Q2455.43 3035.61 2453.16 3035.24 Q2450.92 3034.87 2448.51 3034.13 L2448.51 3029.43 Q2450.59 3030.56 2452.81 3031.12 Q2455.04 3031.68 2457.51 3031.68 Q2461.52 3031.68 2463.86 3029.57 Q2466.19 3027.46 2466.19 3023.85 Q2466.19 3020.24 2463.86 3018.13 Q2461.52 3016.03 2457.51 3016.03 Q2455.64 3016.03 2453.76 3016.44 Q2451.91 3016.86 2449.97 3017.74 L2449.97 3000.38 Z" fill="#000000" fill-rule="nonzero" fill-opacity="1"></path><path clip-path="url(#clip480)" d="M3119.91 3031 L3127.55 3031 L3127.55 3004.64 L3119.24 3006.31 L3119.24 3002.05 L3127.5 3000.38 L3132.18 3000.38 L3132.18 3031 L3139.82 3031 L3139.82 3034.94 L3119.91 3034.94 L3119.91 3031 Z" fill="#000000" fill-rule="nonzero" fill-opacity="1"></path><path clip-path="url(#clip480)" d="M3149.26 3029.06 L3154.14 3029.06 L3154.14 3034.94 L3149.26 3034.94 L3149.26 3029.06 Z" fill="#000000" fill-rule="nonzero" fill-opacity="1"></path><path clip-path="url(#clip480)" d="M3174.33 3003.46 Q3170.72 3003.46 3168.89 3007.02 Q3167.08 3010.56 3167.08 3017.69 Q3167.08 3024.8 3168.89 3028.37 Q3170.72 3031.91 3174.33 3031.91 Q3177.96 3031.91 3179.77 3028.37 Q3181.6 3024.8 3181.6 3017.69 Q3181.6 3010.56 3179.77 3007.02 Q3177.96 3003.46 3174.33 3003.46 M3174.33 2999.75 Q3180.14 2999.75 3183.2 3004.36 Q3186.27 3008.94 3186.27 3017.69 Q3186.27 3026.42 3183.2 3031.03 Q3180.14 3035.61 3174.33 3035.61 Q3168.52 3035.61 3165.44 3031.03 Q3162.39 3026.42 3162.39 3017.69 Q3162.39 3008.94 3165.44 3004.36 Q3168.52 2999.75 3174.33 2999.75 Z" fill="#000000" fill-rule="nonzero" fill-opacity="1"></path><path clip-path="url(#clip480)" d="M1687.25 3105.08 Q1680.15 3105.08 1677.41 3106.71 Q1674.68 3108.33 1674.68 3112.25 Q1674.68 3115.36 1676.71 3117.21 Q1678.78 3119.03 1682.32 3119.03 Q1687.19 3119.03 1690.11 3115.59 Q1693.07 3112.12 1693.07 3106.39 L1693.07 3105.08 L1687.25 3105.08 M1698.93 3102.67 L1698.93 3123 L1693.07 3123 L1693.07 3117.59 Q1691.07 3120.84 1688.08 3122.4 Q1685.08 3123.93 1680.76 3123.93 Q1675.28 3123.93 1672.03 3120.87 Q1668.82 3117.78 1668.82 3112.63 Q1668.82 3106.61 1672.83 3103.56 Q1676.87 3100.5 1684.86 3100.5 L1693.07 3100.5 L1693.07 3099.93 Q1693.07 3095.89 1690.4 3093.69 Q1687.76 3091.46 1682.95 3091.46 Q1679.9 3091.46 1677 3092.19 Q1674.1 3092.93 1671.43 3094.39 L1671.43 3088.98 Q1674.64 3087.74 1677.67 3087.13 Q1680.69 3086.5 1683.56 3086.5 Q1691.29 3086.5 1695.11 3090.51 Q1698.93 3094.52 1698.93 3102.67 Z" fill="#000000" fill-rule="nonzero" fill-opacity="1"></path><path clip-path="url(#clip480)" d="M1738.08 3133.83 L1738.08 3138.38 L1704.21 3138.38 L1704.21 3133.83 L1738.08 3133.83 Z" fill="#000000" fill-rule="nonzero" fill-opacity="1"></path><path clip-path="url(#clip480)" d="M1745.53 3117.59 L1756.03 3117.59 L1756.03 3081.34 L1744.6 3083.63 L1744.6 3077.78 L1755.97 3075.48 L1762.4 3075.48 L1762.4 3117.59 L1772.9 3117.59 L1772.9 3123 L1745.53 3123 L1745.53 3117.59 Z" fill="#000000" fill-rule="nonzero" fill-opacity="1"></path><polyline clip-path="url(#clip480)" style="stroke:#000000; stroke-linecap:round; stroke-linejoin:round; stroke-width:4; stroke-opacity:1; fill:none" points="288.964,2966.14 288.964,153.712 "></polyline>
<polyline clip-path="url(#clip480)" style="stroke:#000000; stroke-linecap:round; stroke-linejoin:round; stroke-width:4; stroke-opacity:1; fill:none" points="288.964,2966.14 307.862,2966.14 "></polyline>
<polyline clip-path="url(#clip480)" style="stroke:#000000; stroke-linecap:round; stroke-linejoin:round; stroke-width:4; stroke-opacity:1; fill:none" points="288.964,2263.03 307.862,2263.03 "></polyline>
<polyline clip-path="url(#clip480)" style="stroke:#000000; stroke-linecap:round; stroke-linejoin:round; stroke-width:4; stroke-opacity:1; fill:none" points="288.964,1559.93 307.862,1559.93 "></polyline>
<polyline clip-path="url(#clip480)" style="stroke:#000000; stroke-linecap:round; stroke-linejoin:round; stroke-width:4; stroke-opacity:1; fill:none" points="288.964,856.819 307.862,856.819 "></polyline>
<polyline clip-path="url(#clip480)" style="stroke:#000000; stroke-linecap:round; stroke-linejoin:round; stroke-width:4; stroke-opacity:1; fill:none" points="288.964,153.712 307.862,153.712 "></polyline>
<path clip-path="url(#clip480)" d="M134.02 2966.59 L163.696 2966.59 L163.696 2970.53 L134.02 2970.53 L134.02 2966.59 Z" fill="#000000" fill-rule="nonzero" fill-opacity="1"></path><path clip-path="url(#clip480)" d="M174.599 2979.48 L182.237 2979.48 L182.237 2953.12 L173.927 2954.79 L173.927 2950.53 L182.191 2948.86 L186.867 2948.86 L186.867 2979.48 L194.506 2979.48 L194.506 2983.42 L174.599 2983.42 L174.599 2979.48 Z" fill="#000000" fill-rule="nonzero" fill-opacity="1"></path><path clip-path="url(#clip480)" d="M203.95 2977.54 L208.835 2977.54 L208.835 2983.42 L203.95 2983.42 L203.95 2977.54 Z" fill="#000000" fill-rule="nonzero" fill-opacity="1"></path><path clip-path="url(#clip480)" d="M229.02 2951.94 Q225.409 2951.94 223.58 2955.5 Q221.774 2959.04 221.774 2966.17 Q221.774 2973.28 223.58 2976.85 Q225.409 2980.39 229.02 2980.39 Q232.654 2980.39 234.459 2976.85 Q236.288 2973.28 236.288 2966.17 Q236.288 2959.04 234.459 2955.5 Q232.654 2951.94 229.02 2951.94 M229.02 2948.23 Q234.83 2948.23 237.885 2952.84 Q240.964 2957.42 240.964 2966.17 Q240.964 2974.9 237.885 2979.51 Q234.83 2984.09 229.02 2984.09 Q223.209 2984.09 220.131 2979.51 Q217.075 2974.9 217.075 2966.17 Q217.075 2957.42 220.131 2952.84 Q223.209 2948.23 229.02 2948.23 Z" fill="#000000" fill-rule="nonzero" fill-opacity="1"></path><path clip-path="url(#clip480)" d="M135.016 2263.48 L164.691 2263.48 L164.691 2267.42 L135.016 2267.42 L135.016 2263.48 Z" fill="#000000" fill-rule="nonzero" fill-opacity="1"></path><path clip-path="url(#clip480)" d="M184.784 2248.83 Q181.173 2248.83 179.344 2252.4 Q177.538 2255.94 177.538 2263.07 Q177.538 2270.17 179.344 2273.74 Q181.173 2277.28 184.784 2277.28 Q188.418 2277.28 190.224 2273.74 Q192.052 2270.17 192.052 2263.07 Q192.052 2255.94 190.224 2252.4 Q188.418 2248.83 184.784 2248.83 M184.784 2245.13 Q190.594 2245.13 193.649 2249.73 Q196.728 2254.32 196.728 2263.07 Q196.728 2271.79 193.649 2276.4 Q190.594 2280.98 184.784 2280.98 Q178.974 2280.98 175.895 2276.4 Q172.839 2271.79 172.839 2263.07 Q172.839 2254.32 175.895 2249.73 Q178.974 2245.13 184.784 2245.13 Z" fill="#000000" fill-rule="nonzero" fill-opacity="1"></path><path clip-path="url(#clip480)" d="M204.946 2274.43 L209.83 2274.43 L209.83 2280.31 L204.946 2280.31 L204.946 2274.43 Z" fill="#000000" fill-rule="nonzero" fill-opacity="1"></path><path clip-path="url(#clip480)" d="M220.061 2245.75 L238.418 2245.75 L238.418 2249.69 L224.344 2249.69 L224.344 2258.16 Q225.362 2257.81 226.381 2257.65 Q227.399 2257.47 228.418 2257.47 Q234.205 2257.47 237.584 2260.64 Q240.964 2263.81 240.964 2269.23 Q240.964 2274.8 237.492 2277.91 Q234.02 2280.98 227.7 2280.98 Q225.524 2280.98 223.256 2280.61 Q221.01 2280.24 218.603 2279.5 L218.603 2274.8 Q220.686 2275.94 222.909 2276.49 Q225.131 2277.05 227.608 2277.05 Q231.612 2277.05 233.95 2274.94 Q236.288 2272.84 236.288 2269.23 Q236.288 2265.61 233.95 2263.51 Q231.612 2261.4 227.608 2261.4 Q225.733 2261.4 223.858 2261.82 Q222.006 2262.23 220.061 2263.11 L220.061 2245.75 Z" fill="#000000" fill-rule="nonzero" fill-opacity="1"></path><path clip-path="url(#clip480)" d="M183.788 1545.72 Q180.177 1545.72 178.349 1549.29 Q176.543 1552.83 176.543 1559.96 Q176.543 1567.07 178.349 1570.63 Q180.177 1574.17 183.788 1574.17 Q187.423 1574.17 189.228 1570.63 Q191.057 1567.07 191.057 1559.96 Q191.057 1552.83 189.228 1549.29 Q187.423 1545.72 183.788 1545.72 M183.788 1542.02 Q189.599 1542.02 192.654 1546.63 Q195.733 1551.21 195.733 1559.96 Q195.733 1568.69 192.654 1573.29 Q189.599 1577.88 183.788 1577.88 Q177.978 1577.88 174.9 1573.29 Q171.844 1568.69 171.844 1559.96 Q171.844 1551.21 174.9 1546.63 Q177.978 1542.02 183.788 1542.02 Z" fill="#000000" fill-rule="nonzero" fill-opacity="1"></path><path clip-path="url(#clip480)" d="M203.95 1571.33 L208.835 1571.33 L208.835 1577.21 L203.95 1577.21 L203.95 1571.33 Z" fill="#000000" fill-rule="nonzero" fill-opacity="1"></path><path clip-path="url(#clip480)" d="M229.02 1545.72 Q225.409 1545.72 223.58 1549.29 Q221.774 1552.83 221.774 1559.96 Q221.774 1567.07 223.58 1570.63 Q225.409 1574.17 229.02 1574.17 Q232.654 1574.17 234.459 1570.63 Q236.288 1567.07 236.288 1559.96 Q236.288 1552.83 234.459 1549.29 Q232.654 1545.72 229.02 1545.72 M229.02 1542.02 Q234.83 1542.02 237.885 1546.63 Q240.964 1551.21 240.964 1559.96 Q240.964 1568.69 237.885 1573.29 Q234.83 1577.88 229.02 1577.88 Q223.209 1577.88 220.131 1573.29 Q217.075 1568.69 217.075 1559.96 Q217.075 1551.21 220.131 1546.63 Q223.209 1542.02 229.02 1542.02 Z" fill="#000000" fill-rule="nonzero" fill-opacity="1"></path><path clip-path="url(#clip480)" d="M184.784 842.618 Q181.173 842.618 179.344 846.183 Q177.538 849.724 177.538 856.854 Q177.538 863.96 179.344 867.525 Q181.173 871.067 184.784 871.067 Q188.418 871.067 190.224 867.525 Q192.052 863.96 192.052 856.854 Q192.052 849.724 190.224 846.183 Q188.418 842.618 184.784 842.618 M184.784 838.914 Q190.594 838.914 193.649 843.521 Q196.728 848.104 196.728 856.854 Q196.728 865.581 193.649 870.187 Q190.594 874.77 184.784 874.77 Q178.974 874.77 175.895 870.187 Q172.839 865.581 172.839 856.854 Q172.839 848.104 175.895 843.521 Q178.974 838.914 184.784 838.914 Z" fill="#000000" fill-rule="nonzero" fill-opacity="1"></path><path clip-path="url(#clip480)" d="M204.946 868.219 L209.83 868.219 L209.83 874.099 L204.946 874.099 L204.946 868.219 Z" fill="#000000" fill-rule="nonzero" fill-opacity="1"></path><path clip-path="url(#clip480)" d="M220.061 839.539 L238.418 839.539 L238.418 843.474 L224.344 843.474 L224.344 851.946 Q225.362 851.599 226.381 851.437 Q227.399 851.252 228.418 851.252 Q234.205 851.252 237.584 854.423 Q240.964 857.595 240.964 863.011 Q240.964 868.59 237.492 871.692 Q234.02 874.77 227.7 874.77 Q225.524 874.77 223.256 874.4 Q221.01 874.03 218.603 873.289 L218.603 868.59 Q220.686 869.724 222.909 870.28 Q225.131 870.835 227.608 870.835 Q231.612 870.835 233.95 868.729 Q236.288 866.622 236.288 863.011 Q236.288 859.4 233.95 857.294 Q231.612 855.187 227.608 855.187 Q225.733 855.187 223.858 855.604 Q222.006 856.02 220.061 856.9 L220.061 839.539 Z" fill="#000000" fill-rule="nonzero" fill-opacity="1"></path><path clip-path="url(#clip480)" d="M174.599 167.057 L182.237 167.057 L182.237 140.691 L173.927 142.358 L173.927 138.099 L182.191 136.432 L186.867 136.432 L186.867 167.057 L194.506 167.057 L194.506 170.992 L174.599 170.992 L174.599 167.057 Z" fill="#000000" fill-rule="nonzero" fill-opacity="1"></path><path clip-path="url(#clip480)" d="M203.95 165.113 L208.835 165.113 L208.835 170.992 L203.95 170.992 L203.95 165.113 Z" fill="#000000" fill-rule="nonzero" fill-opacity="1"></path><path clip-path="url(#clip480)" d="M229.02 139.511 Q225.409 139.511 223.58 143.076 Q221.774 146.617 221.774 153.747 Q221.774 160.853 223.58 164.418 Q225.409 167.96 229.02 167.96 Q232.654 167.96 234.459 164.418 Q236.288 160.853 236.288 153.747 Q236.288 146.617 234.459 143.076 Q232.654 139.511 229.02 139.511 M229.02 135.807 Q234.83 135.807 237.885 140.414 Q240.964 144.997 240.964 153.747 Q240.964 162.474 237.885 167.08 Q234.83 171.663 229.02 171.663 Q223.209 171.663 220.131 167.08 Q217.075 162.474 217.075 153.747 Q217.075 144.997 220.131 140.414 Q223.209 135.807 229.02 135.807 Z" fill="#000000" fill-rule="nonzero" fill-opacity="1"></path><path clip-path="url(#clip480)" d="M53.8447 1594.32 Q53.8447 1601.41 55.4679 1604.15 Q57.0912 1606.89 61.0061 1606.89 Q64.1253 1606.89 65.9714 1604.85 Q67.7856 1602.78 67.7856 1599.25 Q67.7856 1594.38 64.3481 1591.45 Q60.8788 1588.49 55.1497 1588.49 L53.8447 1588.49 L53.8447 1594.32 M51.4257 1582.64 L71.7642 1582.64 L71.7642 1588.49 L66.3533 1588.49 Q69.5998 1590.5 71.1594 1593.49 Q72.6872 1596.48 72.6872 1600.81 Q72.6872 1606.28 69.6316 1609.53 Q66.5443 1612.75 61.3881 1612.75 Q55.3725 1612.75 52.3169 1608.74 Q49.2614 1604.69 49.2614 1596.7 L49.2614 1588.49 L48.6885 1588.49 Q44.6462 1588.49 42.4501 1591.17 Q40.2221 1593.81 40.2221 1598.61 Q40.2221 1601.67 40.9541 1604.57 Q41.6862 1607.46 43.1503 1610.14 L37.7395 1610.14 Q36.4981 1606.92 35.8934 1603.9 Q35.2568 1600.87 35.2568 1598.01 Q35.2568 1590.27 39.2672 1586.46 Q43.2776 1582.64 51.4257 1582.64 Z" fill="#000000" fill-rule="nonzero" fill-opacity="1"></path><path clip-path="url(#clip480)" d="M82.5859 1543.49 L87.1373 1543.49 L87.1373 1577.35 L82.5859 1577.35 L82.5859 1543.49 Z" fill="#000000" fill-rule="nonzero" fill-opacity="1"></path><path clip-path="url(#clip480)" d="M49.1977 1523.4 Q49.1977 1527.99 51.6485 1530.63 Q54.0993 1533.24 58.3962 1533.24 Q62.693 1533.24 65.1438 1530.63 Q67.5946 1527.99 67.5946 1523.4 Q67.5946 1518.82 65.1438 1516.18 Q62.6612 1513.54 58.3962 1513.54 Q54.0993 1513.54 51.6485 1516.18 Q49.1977 1518.79 49.1977 1523.4 M46.4605 1529.83 Q45.442 1533.97 42.6092 1536.29 Q39.7765 1538.58 35.7024 1538.58 Q30.0051 1538.58 26.695 1534.54 Q23.3848 1530.47 23.3848 1523.4 Q23.3848 1516.3 26.695 1512.26 Q30.0051 1508.22 35.7024 1508.22 Q39.7765 1508.22 42.6092 1510.54 Q45.442 1512.84 46.4605 1516.94 Q47.5426 1512.29 50.6937 1509.72 Q53.8447 1507.11 58.3962 1507.11 Q65.303 1507.11 68.9951 1511.34 Q72.6872 1515.54 72.6872 1523.4 Q72.6872 1531.26 68.9951 1535.5 Q65.303 1539.7 58.3962 1539.7 Q53.8447 1539.7 50.6937 1537.09 Q47.5426 1534.48 46.4605 1529.83 M36.3072 1532.19 Q39.9993 1532.19 42.0681 1529.9 Q44.137 1527.57 44.137 1523.4 Q44.137 1519.27 42.0681 1516.94 Q39.9993 1514.59 36.3072 1514.59 Q32.6151 1514.59 30.5462 1516.94 Q28.4774 1519.27 28.4774 1523.4 Q28.4774 1527.57 30.5462 1529.9 Q32.6151 1532.19 36.3072 1532.19 Z" fill="#000000" fill-rule="nonzero" fill-opacity="1"></path><path clip-path="url(#clip480)" d="M620.695 20.1573 L609.596 50.2555 L631.835 50.2555 L620.695 20.1573 M616.077 12.096 L625.354 12.096 L648.403 72.576 L639.896 72.576 L634.387 57.061 L607.125 57.061 L601.615 72.576 L592.987 72.576 L616.077 12.096 Z" fill="#000000" fill-rule="nonzero" fill-opacity="1"></path><path clip-path="url(#clip480)" d="M656.91 9.54393 L664.364 9.54393 L664.364 72.576 L656.91 72.576 L656.91 9.54393 Z" fill="#000000" fill-rule="nonzero" fill-opacity="1"></path><path clip-path="url(#clip480)" d="M709.815 49.3643 Q709.815 41.2625 706.453 36.8065 Q703.131 32.3505 697.095 32.3505 Q691.1 32.3505 687.738 36.8065 Q684.416 41.2625 684.416 49.3643 Q684.416 57.4256 687.738 61.8816 Q691.1 66.3376 697.095 66.3376 Q703.131 66.3376 706.453 61.8816 Q709.815 57.4256 709.815 49.3643 M717.269 66.9452 Q717.269 78.5308 712.124 84.1616 Q706.979 89.8329 696.366 89.8329 Q692.437 89.8329 688.953 89.2252 Q685.469 88.6581 682.188 87.4428 L682.188 80.1917 Q685.469 81.9741 688.669 82.8248 Q691.87 83.6755 695.191 83.6755 Q702.523 83.6755 706.169 79.8271 Q709.815 76.0193 709.815 68.282 L709.815 64.5957 Q707.506 68.6061 703.901 70.5911 Q700.295 72.576 695.272 72.576 Q686.927 72.576 681.823 66.2161 Q676.719 59.8562 676.719 49.3643 Q676.719 38.832 681.823 32.472 Q686.927 26.1121 695.272 26.1121 Q700.295 26.1121 703.901 28.0971 Q707.506 30.082 709.815 34.0924 L709.815 27.2059 L717.269 27.2059 L717.269 66.9452 Z" fill="#000000" fill-rule="nonzero" fill-opacity="1"></path><path clip-path="url(#clip480)" d="M771.429 48.0275 L771.429 51.6733 L737.159 51.6733 Q737.645 59.3701 741.777 63.421 Q745.949 67.4314 753.362 67.4314 Q757.656 67.4314 761.667 66.3781 Q765.718 65.3249 769.687 63.2184 L769.687 70.267 Q765.677 71.9684 761.464 72.8596 Q757.251 73.7508 752.917 73.7508 Q742.06 73.7508 735.7 67.4314 Q729.381 61.1119 729.381 50.3365 Q729.381 39.1965 735.376 32.6746 Q741.412 26.1121 751.62 26.1121 Q760.775 26.1121 766.082 32.0264 Q771.429 37.9003 771.429 48.0275 M763.976 45.84 Q763.895 39.7232 760.532 36.0774 Q757.211 32.4315 751.701 32.4315 Q745.463 32.4315 741.696 35.9558 Q737.969 39.4801 737.402 45.8805 L763.976 45.84 Z" fill="#000000" fill-rule="nonzero" fill-opacity="1"></path><path clip-path="url(#clip480)" d="M816.232 49.9314 Q816.232 41.7081 812.83 37.0496 Q809.467 32.3505 803.553 32.3505 Q797.639 32.3505 794.236 37.0496 Q790.874 41.7081 790.874 49.9314 Q790.874 58.1548 794.236 62.8538 Q797.639 67.5124 803.553 67.5124 Q809.467 67.5124 812.83 62.8538 Q816.232 58.1548 816.232 49.9314 M790.874 34.0924 Q793.223 30.0415 796.788 28.0971 Q800.393 26.1121 805.376 26.1121 Q813.64 26.1121 818.784 32.6746 Q823.97 39.2371 823.97 49.9314 Q823.97 60.6258 818.784 67.1883 Q813.64 73.7508 805.376 73.7508 Q800.393 73.7508 796.788 71.8063 Q793.223 69.8214 790.874 65.7705 L790.874 72.576 L783.379 72.576 L783.379 9.54393 L790.874 9.54393 L790.874 34.0924 Z" fill="#000000" fill-rule="nonzero" fill-opacity="1"></path><path clip-path="url(#clip480)" d="M862.615 34.1734 Q861.359 33.4443 859.861 33.1202 Q858.402 32.7556 856.62 32.7556 Q850.3 32.7556 846.898 36.8875 Q843.535 40.9789 843.535 48.6757 L843.535 72.576 L836.041 72.576 L836.041 27.2059 L843.535 27.2059 L843.535 34.2544 Q845.885 30.1225 849.652 28.1376 Q853.42 26.1121 858.807 26.1121 Q859.577 26.1121 860.509 26.2337 Q861.44 26.3147 862.575 26.5172 L862.615 34.1734 Z" fill="#000000" fill-rule="nonzero" fill-opacity="1"></path><path clip-path="url(#clip480)" d="M891.052 49.7694 Q882.019 49.7694 878.535 51.8354 Q875.051 53.9013 875.051 58.8839 Q875.051 62.8538 877.644 65.2034 Q880.277 67.5124 884.774 67.5124 Q890.971 67.5124 894.698 63.1374 Q898.466 58.7219 898.466 51.4303 L898.466 49.7694 L891.052 49.7694 M905.919 46.6907 L905.919 72.576 L898.466 72.576 L898.466 65.6895 Q895.914 69.8214 892.106 71.8063 Q888.298 73.7508 882.789 73.7508 Q875.821 73.7508 871.689 69.8619 Q867.598 65.9325 867.598 59.3701 Q867.598 51.7138 872.702 47.825 Q877.847 43.9361 888.014 43.9361 L898.466 43.9361 L898.466 43.2069 Q898.466 38.0623 895.063 35.2672 Q891.701 32.4315 885.584 32.4315 Q881.695 32.4315 878.009 33.3632 Q874.322 34.295 870.919 36.1584 L870.919 29.2718 Q875.011 27.692 878.859 26.9223 Q882.708 26.1121 886.353 26.1121 Q896.197 26.1121 901.058 31.2163 Q905.919 36.3204 905.919 46.6907 Z" fill="#000000" fill-rule="nonzero" fill-opacity="1"></path><path clip-path="url(#clip480)" d="M921.272 27.2059 L928.726 27.2059 L928.726 72.576 L921.272 72.576 L921.272 27.2059 M921.272 9.54393 L928.726 9.54393 L928.726 18.9825 L921.272 18.9825 L921.272 9.54393 Z" fill="#000000" fill-rule="nonzero" fill-opacity="1"></path><path clip-path="url(#clip480)" d="M976.972 28.9478 L976.972 35.9153 Q973.812 34.1734 970.612 33.3227 Q967.453 32.4315 964.212 32.4315 Q956.961 32.4315 952.95 37.0496 Q948.94 41.6271 948.94 49.9314 Q948.94 58.2358 952.95 62.8538 Q956.961 67.4314 964.212 67.4314 Q967.453 67.4314 970.612 66.5807 Q973.812 65.6895 976.972 63.9476 L976.972 70.8341 Q973.853 72.2924 970.491 73.0216 Q967.169 73.7508 963.402 73.7508 Q953.153 73.7508 947.117 67.3098 Q941.081 60.8689 941.081 49.9314 Q941.081 38.832 947.158 32.472 Q953.274 26.1121 963.888 26.1121 Q967.331 26.1121 970.612 26.8413 Q973.893 27.5299 976.972 28.9478 Z" fill="#000000" fill-rule="nonzero" fill-opacity="1"></path><path clip-path="url(#clip480)" d="M1010.96 27.2059 L1018.86 27.2059 L1033.04 65.2844 L1047.21 27.2059 L1055.11 27.2059 L1038.1 72.576 L1027.97 72.576 L1010.96 27.2059 Z" fill="#000000" fill-rule="nonzero" fill-opacity="1"></path><path clip-path="url(#clip480)" d="M1086.02 49.7694 Q1076.99 49.7694 1073.51 51.8354 Q1070.02 53.9013 1070.02 58.8839 Q1070.02 62.8538 1072.61 65.2034 Q1075.25 67.5124 1079.74 67.5124 Q1085.94 67.5124 1089.67 63.1374 Q1093.44 58.7219 1093.44 51.4303 L1093.44 49.7694 L1086.02 49.7694 M1100.89 46.6907 L1100.89 72.576 L1093.44 72.576 L1093.44 65.6895 Q1090.88 69.8214 1087.08 71.8063 Q1083.27 73.7508 1077.76 73.7508 Q1070.79 73.7508 1066.66 69.8619 Q1062.57 65.9325 1062.57 59.3701 Q1062.57 51.7138 1067.67 47.825 Q1072.82 43.9361 1082.98 43.9361 L1093.44 43.9361 L1093.44 43.2069 Q1093.44 38.0623 1090.03 35.2672 Q1086.67 32.4315 1080.55 32.4315 Q1076.66 32.4315 1072.98 33.3632 Q1069.29 34.295 1065.89 36.1584 L1065.89 29.2718 Q1069.98 27.692 1073.83 26.9223 Q1077.68 26.1121 1081.32 26.1121 Q1091.17 26.1121 1096.03 31.2163 Q1100.89 36.3204 1100.89 46.6907 Z" fill="#000000" fill-rule="nonzero" fill-opacity="1"></path><path clip-path="url(#clip480)" d="M1142.53 34.1734 Q1141.28 33.4443 1139.78 33.1202 Q1138.32 32.7556 1136.54 32.7556 Q1130.22 32.7556 1126.82 36.8875 Q1123.45 40.9789 1123.45 48.6757 L1123.45 72.576 L1115.96 72.576 L1115.96 27.2059 L1123.45 27.2059 L1123.45 34.2544 Q1125.8 30.1225 1129.57 28.1376 Q1133.34 26.1121 1138.72 26.1121 Q1139.49 26.1121 1140.43 26.2337 Q1141.36 26.3147 1142.49 26.5172 L1142.53 34.1734 Z" fill="#000000" fill-rule="nonzero" fill-opacity="1"></path><path clip-path="url(#clip480)" d="M1150.35 27.2059 L1157.8 27.2059 L1157.8 72.576 L1150.35 72.576 L1150.35 27.2059 M1150.35 9.54393 L1157.8 9.54393 L1157.8 18.9825 L1150.35 18.9825 L1150.35 9.54393 Z" fill="#000000" fill-rule="nonzero" fill-opacity="1"></path><path clip-path="url(#clip480)" d="M1212.21 48.0275 L1212.21 51.6733 L1177.94 51.6733 Q1178.42 59.3701 1182.56 63.421 Q1186.73 67.4314 1194.14 67.4314 Q1198.44 67.4314 1202.45 66.3781 Q1206.5 65.3249 1210.47 63.2184 L1210.47 70.267 Q1206.46 71.9684 1202.24 72.8596 Q1198.03 73.7508 1193.7 73.7508 Q1182.84 73.7508 1176.48 67.4314 Q1170.16 61.1119 1170.16 50.3365 Q1170.16 39.1965 1176.16 32.6746 Q1182.19 26.1121 1192.4 26.1121 Q1201.55 26.1121 1206.86 32.0264 Q1212.21 37.9003 1212.21 48.0275 M1204.75 45.84 Q1204.67 39.7232 1201.31 36.0774 Q1197.99 32.4315 1192.48 32.4315 Q1186.24 32.4315 1182.47 35.9558 Q1178.75 39.4801 1178.18 45.8805 L1204.75 45.84 Z" fill="#000000" fill-rule="nonzero" fill-opacity="1"></path><path clip-path="url(#clip480)" d="M1231.81 14.324 L1231.81 27.2059 L1247.17 27.2059 L1247.17 32.9987 L1231.81 32.9987 L1231.81 57.6282 Q1231.81 63.1779 1233.31 64.7578 Q1234.85 66.3376 1239.51 66.3376 L1247.17 66.3376 L1247.17 72.576 L1239.51 72.576 Q1230.88 72.576 1227.6 69.3758 Q1224.32 66.1351 1224.32 57.6282 L1224.32 32.9987 L1218.85 32.9987 L1218.85 27.2059 L1224.32 27.2059 L1224.32 14.324 L1231.81 14.324 Z" fill="#000000" fill-rule="nonzero" fill-opacity="1"></path><path clip-path="url(#clip480)" d="M1275.85 76.7889 Q1272.69 84.8907 1269.69 87.3618 Q1266.69 89.8329 1261.67 89.8329 L1255.71 89.8329 L1255.71 83.5945 L1260.09 83.5945 Q1263.17 83.5945 1264.87 82.1361 Q1266.57 80.6778 1268.64 75.2496 L1269.97 71.8468 L1251.62 27.2059 L1259.52 27.2059 L1273.7 62.6918 L1287.88 27.2059 L1295.78 27.2059 L1275.85 76.7889 Z" fill="#000000" fill-rule="nonzero" fill-opacity="1"></path><path clip-path="url(#clip480)" d="M1340.54 65.6895 L1369.1 65.6895 L1369.1 72.576 L1330.7 72.576 L1330.7 65.6895 Q1335.36 60.8689 1343.38 52.7671 Q1351.44 44.6248 1353.5 42.2752 Q1357.43 37.8598 1358.97 34.8216 Q1360.55 31.7429 1360.55 28.7857 Q1360.55 23.9651 1357.15 20.927 Q1353.79 17.8888 1348.36 17.8888 Q1344.51 17.8888 1340.22 19.2256 Q1335.96 20.5624 1331.1 23.2765 L1331.1 15.0127 Q1336.04 13.0277 1340.34 12.015 Q1344.63 11.0023 1348.2 11.0023 Q1357.6 11.0023 1363.19 15.7013 Q1368.78 20.4004 1368.78 28.2591 Q1368.78 31.9859 1367.36 35.3482 Q1365.98 38.6699 1362.29 43.2069 Q1361.28 44.3817 1355.85 50.0125 Q1350.43 55.6027 1340.54 65.6895 Z" fill="#000000" fill-rule="nonzero" fill-opacity="1"></path><path clip-path="url(#clip480)" d="M1415.08 34.0924 L1415.08 9.54393 L1422.53 9.54393 L1422.53 72.576 L1415.08 72.576 L1415.08 65.7705 Q1412.73 69.8214 1409.12 71.8063 Q1405.56 73.7508 1400.53 73.7508 Q1392.31 73.7508 1387.13 67.1883 Q1381.98 60.6258 1381.98 49.9314 Q1381.98 39.2371 1387.13 32.6746 Q1392.31 26.1121 1400.53 26.1121 Q1405.56 26.1121 1409.12 28.0971 Q1412.73 30.0415 1415.08 34.0924 M1389.68 49.9314 Q1389.68 58.1548 1393.04 62.8538 Q1396.44 67.5124 1402.36 67.5124 Q1408.27 67.5124 1411.67 62.8538 Q1415.08 58.1548 1415.08 49.9314 Q1415.08 41.7081 1411.67 37.0496 Q1408.27 32.3505 1402.36 32.3505 Q1396.44 32.3505 1393.04 37.0496 Q1389.68 41.7081 1389.68 49.9314 Z" fill="#000000" fill-rule="nonzero" fill-opacity="1"></path><path clip-path="url(#clip480)" d="M1471.47 65.7705 L1471.47 89.8329 L1463.97 89.8329 L1463.97 27.2059 L1471.47 27.2059 L1471.47 34.0924 Q1473.82 30.0415 1477.38 28.0971 Q1480.99 26.1121 1485.97 26.1121 Q1494.23 26.1121 1499.38 32.6746 Q1504.56 39.2371 1504.56 49.9314 Q1504.56 60.6258 1499.38 67.1883 Q1494.23 73.7508 1485.97 73.7508 Q1480.99 73.7508 1477.38 71.8063 Q1473.82 69.8214 1471.47 65.7705 M1496.82 49.9314 Q1496.82 41.7081 1493.42 37.0496 Q1490.06 32.3505 1484.15 32.3505 Q1478.23 32.3505 1474.83 37.0496 Q1471.47 41.7081 1471.47 49.9314 Q1471.47 58.1548 1474.83 62.8538 Q1478.23 67.5124 1484.15 67.5124 Q1490.06 67.5124 1493.42 62.8538 Q1496.82 58.1548 1496.82 49.9314 Z" fill="#000000" fill-rule="nonzero" fill-opacity="1"></path><path clip-path="url(#clip480)" d="M1543.21 34.1734 Q1541.95 33.4443 1540.45 33.1202 Q1538.99 32.7556 1537.21 32.7556 Q1530.89 32.7556 1527.49 36.8875 Q1524.13 40.9789 1524.13 48.6757 L1524.13 72.576 L1516.63 72.576 L1516.63 27.2059 L1524.13 27.2059 L1524.13 34.2544 Q1526.48 30.1225 1530.24 28.1376 Q1534.01 26.1121 1539.4 26.1121 Q1540.17 26.1121 1541.1 26.2337 Q1542.03 26.3147 1543.17 26.5172 L1543.21 34.1734 Z" fill="#000000" fill-rule="nonzero" fill-opacity="1"></path><path clip-path="url(#clip480)" d="M1566.78 32.4315 Q1560.79 32.4315 1557.3 37.1306 Q1553.82 41.7891 1553.82 49.9314 Q1553.82 58.0738 1557.26 62.7728 Q1560.75 67.4314 1566.78 67.4314 Q1572.74 67.4314 1576.22 62.7323 Q1579.71 58.0333 1579.71 49.9314 Q1579.71 41.8701 1576.22 37.1711 Q1572.74 32.4315 1566.78 32.4315 M1566.78 26.1121 Q1576.51 26.1121 1582.06 32.4315 Q1587.61 38.7509 1587.61 49.9314 Q1587.61 61.0714 1582.06 67.4314 Q1576.51 73.7508 1566.78 73.7508 Q1557.02 73.7508 1551.47 67.4314 Q1545.96 61.0714 1545.96 49.9314 Q1545.96 38.7509 1551.47 32.4315 Q1557.02 26.1121 1566.78 26.1121 Z" fill="#000000" fill-rule="nonzero" fill-opacity="1"></path><path clip-path="url(#clip480)" d="M1599.96 27.2059 L1607.41 27.2059 L1607.41 73.3862 Q1607.41 82.0551 1604.09 85.944 Q1600.81 89.8329 1593.48 89.8329 L1590.64 89.8329 L1590.64 83.5134 L1592.63 83.5134 Q1596.88 83.5134 1598.42 81.5285 Q1599.96 79.5841 1599.96 73.3862 L1599.96 27.2059 M1599.96 9.54393 L1607.41 9.54393 L1607.41 18.9825 L1599.96 18.9825 L1599.96 9.54393 Z" fill="#000000" fill-rule="nonzero" fill-opacity="1"></path><path clip-path="url(#clip480)" d="M1661.82 48.0275 L1661.82 51.6733 L1627.55 51.6733 Q1628.03 59.3701 1632.17 63.421 Q1636.34 67.4314 1643.75 67.4314 Q1648.04 67.4314 1652.06 66.3781 Q1656.11 65.3249 1660.08 63.2184 L1660.08 70.267 Q1656.07 71.9684 1651.85 72.8596 Q1647.64 73.7508 1643.31 73.7508 Q1632.45 73.7508 1626.09 67.4314 Q1619.77 61.1119 1619.77 50.3365 Q1619.77 39.1965 1625.76 32.6746 Q1631.8 26.1121 1642.01 26.1121 Q1651.16 26.1121 1656.47 32.0264 Q1661.82 37.9003 1661.82 48.0275 M1654.36 45.84 Q1654.28 39.7232 1650.92 36.0774 Q1647.6 32.4315 1642.09 32.4315 Q1635.85 32.4315 1632.08 35.9558 Q1628.36 39.4801 1627.79 45.8805 L1654.36 45.84 Z" fill="#000000" fill-rule="nonzero" fill-opacity="1"></path><path clip-path="url(#clip480)" d="M1706.7 28.9478 L1706.7 35.9153 Q1703.54 34.1734 1700.34 33.3227 Q1697.18 32.4315 1693.94 32.4315 Q1686.69 32.4315 1682.68 37.0496 Q1678.67 41.6271 1678.67 49.9314 Q1678.67 58.2358 1682.68 62.8538 Q1686.69 67.4314 1693.94 67.4314 Q1697.18 67.4314 1700.34 66.5807 Q1703.54 65.6895 1706.7 63.9476 L1706.7 70.8341 Q1703.58 72.2924 1700.22 73.0216 Q1696.9 73.7508 1693.13 73.7508 Q1682.88 73.7508 1676.85 67.3098 Q1670.81 60.8689 1670.81 49.9314 Q1670.81 38.832 1676.89 32.472 Q1683 26.1121 1693.62 26.1121 Q1697.06 26.1121 1700.34 26.8413 Q1703.62 27.5299 1706.7 28.9478 Z" fill="#000000" fill-rule="nonzero" fill-opacity="1"></path><path clip-path="url(#clip480)" d="M1727.04 14.324 L1727.04 27.2059 L1742.39 27.2059 L1742.39 32.9987 L1727.04 32.9987 L1727.04 57.6282 Q1727.04 63.1779 1728.54 64.7578 Q1730.08 66.3376 1734.73 66.3376 L1742.39 66.3376 L1742.39 72.576 L1734.73 72.576 Q1726.11 72.576 1722.82 69.3758 Q1719.54 66.1351 1719.54 57.6282 L1719.54 32.9987 L1714.07 32.9987 L1714.07 27.2059 L1719.54 27.2059 L1719.54 14.324 L1727.04 14.324 Z" fill="#000000" fill-rule="nonzero" fill-opacity="1"></path><path clip-path="url(#clip480)" d="M1752.19 27.2059 L1759.65 27.2059 L1759.65 72.576 L1752.19 72.576 L1752.19 27.2059 M1752.19 9.54393 L1759.65 9.54393 L1759.65 18.9825 L1752.19 18.9825 L1752.19 9.54393 Z" fill="#000000" fill-rule="nonzero" fill-opacity="1"></path><path clip-path="url(#clip480)" d="M1792.82 32.4315 Q1786.83 32.4315 1783.35 37.1306 Q1779.86 41.7891 1779.86 49.9314 Q1779.86 58.0738 1783.3 62.7728 Q1786.79 67.4314 1792.82 67.4314 Q1798.78 67.4314 1802.26 62.7323 Q1805.75 58.0333 1805.75 49.9314 Q1805.75 41.8701 1802.26 37.1711 Q1798.78 32.4315 1792.82 32.4315 M1792.82 26.1121 Q1802.55 26.1121 1808.1 32.4315 Q1813.65 38.7509 1813.65 49.9314 Q1813.65 61.0714 1808.1 67.4314 Q1802.55 73.7508 1792.82 73.7508 Q1783.06 73.7508 1777.51 67.4314 Q1772 61.0714 1772 49.9314 Q1772 38.7509 1777.51 32.4315 Q1783.06 26.1121 1792.82 26.1121 Z" fill="#000000" fill-rule="nonzero" fill-opacity="1"></path><path clip-path="url(#clip480)" d="M1863.72 45.1919 L1863.72 72.576 L1856.26 72.576 L1856.26 45.4349 Q1856.26 38.994 1853.75 35.7938 Q1851.24 32.5936 1846.22 32.5936 Q1840.18 32.5936 1836.7 36.4419 Q1833.21 40.2903 1833.21 46.9338 L1833.21 72.576 L1825.72 72.576 L1825.72 27.2059 L1833.21 27.2059 L1833.21 34.2544 Q1835.89 30.163 1839.49 28.1376 Q1843.14 26.1121 1847.88 26.1121 Q1855.69 26.1121 1859.7 30.9732 Q1863.72 35.7938 1863.72 45.1919 Z" fill="#000000" fill-rule="nonzero" fill-opacity="1"></path><path clip-path="url(#clip480)" d="M1879.64 62.2867 L1888.18 62.2867 L1888.18 72.576 L1879.64 72.576 L1879.64 62.2867 Z" fill="#000000" fill-rule="nonzero" fill-opacity="1"></path><path clip-path="url(#clip480)" d="M1931.65 12.096 L1966.41 12.096 L1966.41 18.9825 L1939.83 18.9825 L1939.83 36.8065 L1963.81 36.8065 L1963.81 43.6931 L1939.83 43.6931 L1939.83 72.576 L1931.65 72.576 L1931.65 12.096 Z" fill="#000000" fill-rule="nonzero" fill-opacity="1"></path><path clip-path="url(#clip480)" d="M1973.01 27.2059 L1980.46 27.2059 L1980.46 72.576 L1973.01 72.576 L1973.01 27.2059 M1973.01 9.54393 L1980.46 9.54393 L1980.46 18.9825 L1973.01 18.9825 L1973.01 9.54393 Z" fill="#000000" fill-rule="nonzero" fill-opacity="1"></path><path clip-path="url(#clip480)" d="M2033.77 27.2059 L2017.37 49.2833 L2034.62 72.576 L2025.83 72.576 L2012.63 54.752 L1999.42 72.576 L1990.63 72.576 L2008.25 48.8377 L1992.13 27.2059 L2000.92 27.2059 L2012.95 43.369 L2024.98 27.2059 L2033.77 27.2059 Z" fill="#000000" fill-rule="nonzero" fill-opacity="1"></path><path clip-path="url(#clip480)" d="M2081.41 48.0275 L2081.41 51.6733 L2047.14 51.6733 Q2047.63 59.3701 2051.76 63.421 Q2055.93 67.4314 2063.34 67.4314 Q2067.64 67.4314 2071.65 66.3781 Q2075.7 65.3249 2079.67 63.2184 L2079.67 70.267 Q2075.66 71.9684 2071.45 72.8596 Q2067.23 73.7508 2062.9 73.7508 Q2052.04 73.7508 2045.68 67.4314 Q2039.36 61.1119 2039.36 50.3365 Q2039.36 39.1965 2045.36 32.6746 Q2051.39 26.1121 2061.6 26.1121 Q2070.76 26.1121 2076.06 32.0264 Q2081.41 37.9003 2081.41 48.0275 M2073.96 45.84 Q2073.88 39.7232 2070.51 36.0774 Q2067.19 32.4315 2061.68 32.4315 Q2055.44 32.4315 2051.68 35.9558 Q2047.95 39.4801 2047.38 45.8805 L2073.96 45.84 Z" fill="#000000" fill-rule="nonzero" fill-opacity="1"></path><path clip-path="url(#clip480)" d="M2123.5 34.0924 L2123.5 9.54393 L2130.95 9.54393 L2130.95 72.576 L2123.5 72.576 L2123.5 65.7705 Q2121.15 69.8214 2117.54 71.8063 Q2113.98 73.7508 2108.96 73.7508 Q2100.73 73.7508 2095.55 67.1883 Q2090.4 60.6258 2090.4 49.9314 Q2090.4 39.2371 2095.55 32.6746 Q2100.73 26.1121 2108.96 26.1121 Q2113.98 26.1121 2117.54 28.0971 Q2121.15 30.0415 2123.5 34.0924 M2098.1 49.9314 Q2098.1 58.1548 2101.46 62.8538 Q2104.87 67.5124 2110.78 67.5124 Q2116.69 67.5124 2120.1 62.8538 Q2123.5 58.1548 2123.5 49.9314 Q2123.5 41.7081 2120.1 37.0496 Q2116.69 32.3505 2110.78 32.3505 Q2104.87 32.3505 2101.46 37.0496 Q2098.1 41.7081 2098.1 49.9314 Z" fill="#000000" fill-rule="nonzero" fill-opacity="1"></path><path clip-path="url(#clip480)" d="M2205.33 28.9478 L2205.33 35.9153 Q2202.17 34.1734 2198.97 33.3227 Q2195.81 32.4315 2192.57 32.4315 Q2185.32 32.4315 2181.31 37.0496 Q2177.3 41.6271 2177.3 49.9314 Q2177.3 58.2358 2181.31 62.8538 Q2185.32 67.4314 2192.57 67.4314 Q2195.81 67.4314 2198.97 66.5807 Q2202.17 65.6895 2205.33 63.9476 L2205.33 70.8341 Q2202.21 72.2924 2198.85 73.0216 Q2195.52 73.7508 2191.76 73.7508 Q2181.51 73.7508 2175.47 67.3098 Q2169.44 60.8689 2169.44 49.9314 Q2169.44 38.832 2175.51 32.472 Q2181.63 26.1121 2192.24 26.1121 Q2195.69 26.1121 2198.97 26.8413 Q2202.25 27.5299 2205.33 28.9478 Z" fill="#000000" fill-rule="nonzero" fill-opacity="1"></path><path clip-path="url(#clip480)" d="M2235.87 32.4315 Q2229.88 32.4315 2226.39 37.1306 Q2222.91 41.7891 2222.91 49.9314 Q2222.91 58.0738 2226.35 62.7728 Q2229.84 67.4314 2235.87 67.4314 Q2241.83 67.4314 2245.31 62.7323 Q2248.79 58.0333 2248.79 49.9314 Q2248.79 41.8701 2245.31 37.1711 Q2241.83 32.4315 2235.87 32.4315 M2235.87 26.1121 Q2245.59 26.1121 2251.14 32.4315 Q2256.69 38.7509 2256.69 49.9314 Q2256.69 61.0714 2251.14 67.4314 Q2245.59 73.7508 2235.87 73.7508 Q2226.11 73.7508 2220.56 67.4314 Q2215.05 61.0714 2215.05 49.9314 Q2215.05 38.7509 2220.56 32.4315 Q2226.11 26.1121 2235.87 26.1121 Z" fill="#000000" fill-rule="nonzero" fill-opacity="1"></path><path clip-path="url(#clip480)" d="M2307.86 48.0275 L2307.86 51.6733 L2273.59 51.6733 Q2274.07 59.3701 2278.2 63.421 Q2282.38 67.4314 2289.79 67.4314 Q2294.08 67.4314 2298.09 66.3781 Q2302.14 65.3249 2306.11 63.2184 L2306.11 70.267 Q2302.1 71.9684 2297.89 72.8596 Q2293.68 73.7508 2289.34 73.7508 Q2278.49 73.7508 2272.13 67.4314 Q2265.81 61.1119 2265.81 50.3365 Q2265.81 39.1965 2271.8 32.6746 Q2277.84 26.1121 2288.05 26.1121 Q2297.2 26.1121 2302.51 32.0264 Q2307.86 37.9003 2307.86 48.0275 M2300.4 45.84 Q2300.32 39.7232 2296.96 36.0774 Q2293.64 32.4315 2288.13 32.4315 Q2281.89 32.4315 2278.12 35.9558 Q2274.4 39.4801 2273.83 45.8805 L2300.4 45.84 Z" fill="#000000" fill-rule="nonzero" fill-opacity="1"></path><path clip-path="url(#clip480)" d="M2343.06 9.54393 L2343.06 15.7418 L2335.93 15.7418 Q2331.92 15.7418 2330.34 17.3622 Q2328.8 18.9825 2328.8 23.1955 L2328.8 27.2059 L2341.07 27.2059 L2341.07 32.9987 L2328.8 32.9987 L2328.8 72.576 L2321.31 72.576 L2321.31 32.9987 L2314.18 32.9987 L2314.18 27.2059 L2321.31 27.2059 L2321.31 24.0462 Q2321.31 16.471 2324.83 13.0277 Q2328.35 9.54393 2336.01 9.54393 L2343.06 9.54393 Z" fill="#000000" fill-rule="nonzero" fill-opacity="1"></path><path clip-path="url(#clip480)" d="M2372.27 9.54393 L2372.27 15.7418 L2365.14 15.7418 Q2361.13 15.7418 2359.55 17.3622 Q2358.01 18.9825 2358.01 23.1955 L2358.01 27.2059 L2370.28 27.2059 L2370.28 32.9987 L2358.01 32.9987 L2358.01 72.576 L2350.51 72.576 L2350.51 32.9987 L2343.38 32.9987 L2343.38 27.2059 L2350.51 27.2059 L2350.51 24.0462 Q2350.51 16.471 2354.04 13.0277 Q2357.56 9.54393 2365.22 9.54393 L2372.27 9.54393 Z" fill="#000000" fill-rule="nonzero" fill-opacity="1"></path><path clip-path="url(#clip480)" d="M2378.5 27.2059 L2385.96 27.2059 L2385.96 72.576 L2378.5 72.576 L2378.5 27.2059 M2378.5 9.54393 L2385.96 9.54393 L2385.96 18.9825 L2378.5 18.9825 L2378.5 9.54393 Z" fill="#000000" fill-rule="nonzero" fill-opacity="1"></path><path clip-path="url(#clip480)" d="M2434.2 28.9478 L2434.2 35.9153 Q2431.04 34.1734 2427.84 33.3227 Q2424.68 32.4315 2421.44 32.4315 Q2414.19 32.4315 2410.18 37.0496 Q2406.17 41.6271 2406.17 49.9314 Q2406.17 58.2358 2410.18 62.8538 Q2414.19 67.4314 2421.44 67.4314 Q2424.68 67.4314 2427.84 66.5807 Q2431.04 65.6895 2434.2 63.9476 L2434.2 70.8341 Q2431.08 72.2924 2427.72 73.0216 Q2424.4 73.7508 2420.63 73.7508 Q2410.38 73.7508 2404.35 67.3098 Q2398.31 60.8689 2398.31 49.9314 Q2398.31 38.832 2404.39 32.472 Q2410.51 26.1121 2421.12 26.1121 Q2424.56 26.1121 2427.84 26.8413 Q2431.13 27.5299 2434.2 28.9478 Z" fill="#000000" fill-rule="nonzero" fill-opacity="1"></path><path clip-path="url(#clip480)" d="M2447.17 27.2059 L2454.62 27.2059 L2454.62 72.576 L2447.17 72.576 L2447.17 27.2059 M2447.17 9.54393 L2454.62 9.54393 L2454.62 18.9825 L2447.17 18.9825 L2447.17 9.54393 Z" fill="#000000" fill-rule="nonzero" fill-opacity="1"></path><path clip-path="url(#clip480)" d="M2509.02 48.0275 L2509.02 51.6733 L2474.75 51.6733 Q2475.24 59.3701 2479.37 63.421 Q2483.54 67.4314 2490.96 67.4314 Q2495.25 67.4314 2499.26 66.3781 Q2503.31 65.3249 2507.28 63.2184 L2507.28 70.267 Q2503.27 71.9684 2499.06 72.8596 Q2494.85 73.7508 2490.51 73.7508 Q2479.66 73.7508 2473.3 67.4314 Q2466.98 61.1119 2466.98 50.3365 Q2466.98 39.1965 2472.97 32.6746 Q2479.01 26.1121 2489.22 26.1121 Q2498.37 26.1121 2503.68 32.0264 Q2509.02 37.9003 2509.02 48.0275 M2501.57 45.84 Q2501.49 39.7232 2498.13 36.0774 Q2494.81 32.4315 2489.3 32.4315 Q2483.06 32.4315 2479.29 35.9558 Q2475.56 39.4801 2475 45.8805 L2501.57 45.84 Z" fill="#000000" fill-rule="nonzero" fill-opacity="1"></path><path clip-path="url(#clip480)" d="M2558.97 45.1919 L2558.97 72.576 L2551.52 72.576 L2551.52 45.4349 Q2551.52 38.994 2549.01 35.7938 Q2546.5 32.5936 2541.47 32.5936 Q2535.44 32.5936 2531.95 36.4419 Q2528.47 40.2903 2528.47 46.9338 L2528.47 72.576 L2520.97 72.576 L2520.97 27.2059 L2528.47 27.2059 L2528.47 34.2544 Q2531.14 30.163 2534.75 28.1376 Q2538.39 26.1121 2543.13 26.1121 Q2550.95 26.1121 2554.96 30.9732 Q2558.97 35.7938 2558.97 45.1919 Z" fill="#000000" fill-rule="nonzero" fill-opacity="1"></path><path clip-path="url(#clip480)" d="M2581.21 14.324 L2581.21 27.2059 L2596.56 27.2059 L2596.56 32.9987 L2581.21 32.9987 L2581.21 57.6282 Q2581.21 63.1779 2582.71 64.7578 Q2584.25 66.3376 2588.91 66.3376 L2596.56 66.3376 L2596.56 72.576 L2588.91 72.576 Q2580.28 72.576 2577 69.3758 Q2573.72 66.1351 2573.72 57.6282 L2573.72 32.9987 L2568.25 32.9987 L2568.25 27.2059 L2573.72 27.2059 L2573.72 14.324 L2581.21 14.324 Z" fill="#000000" fill-rule="nonzero" fill-opacity="1"></path><path clip-path="url(#clip480)" d="M2635.29 28.5427 L2635.29 35.5912 Q2632.13 33.9709 2628.73 33.1607 Q2625.33 32.3505 2621.68 32.3505 Q2616.13 32.3505 2613.33 34.0519 Q2610.58 35.7533 2610.58 39.156 Q2610.58 41.7486 2612.57 43.2475 Q2614.55 44.7058 2620.55 46.0426 L2623.1 46.6097 Q2631.04 48.3111 2634.36 51.4303 Q2637.72 54.509 2637.72 60.0587 Q2637.72 66.3781 2632.7 70.0644 Q2627.72 73.7508 2618.97 73.7508 Q2615.32 73.7508 2611.35 73.0216 Q2607.42 72.3329 2603.05 70.9151 L2603.05 63.2184 Q2607.18 65.3654 2611.19 66.4591 Q2615.2 67.5124 2619.13 67.5124 Q2624.39 67.5124 2627.23 65.73 Q2630.07 63.9071 2630.07 60.6258 Q2630.07 57.5877 2628 55.9673 Q2625.97 54.3469 2619.05 52.8481 L2616.45 52.2405 Q2609.53 50.7821 2606.45 47.7845 Q2603.37 44.7463 2603.37 39.4801 Q2603.37 33.0797 2607.91 29.5959 Q2612.44 26.1121 2620.79 26.1121 Q2624.92 26.1121 2628.57 26.7198 Q2632.21 27.3274 2635.29 28.5427 Z" fill="#000000" fill-rule="nonzero" fill-opacity="1"></path><path clip-path="url(#clip480)" d="M2651.49 62.2867 L2660.04 62.2867 L2660.04 72.576 L2651.49 72.576 L2651.49 62.2867 M2651.49 29.6769 L2660.04 29.6769 L2660.04 39.9662 L2651.49 39.9662 L2651.49 29.6769 Z" fill="#000000" fill-rule="nonzero" fill-opacity="1"></path><path clip-path="url(#clip480)" d="M2706.38 65.6895 L2719.75 65.6895 L2719.75 19.5497 L2705.21 22.4663 L2705.21 15.0127 L2719.67 12.096 L2727.85 12.096 L2727.85 65.6895 L2741.22 65.6895 L2741.22 72.576 L2706.38 72.576 L2706.38 65.6895 Z" fill="#000000" fill-rule="nonzero" fill-opacity="1"></path><path clip-path="url(#clip480)" d="M2758.6 62.2867 L2767.15 62.2867 L2767.15 69.2543 L2760.5 82.2172 L2755.28 82.2172 L2758.6 69.2543 L2758.6 62.2867 Z" fill="#000000" fill-rule="nonzero" fill-opacity="1"></path><path clip-path="url(#clip480)" d="M2827.99 43.8551 Q2822.16 43.8551 2818.8 46.9743 Q2815.48 50.0935 2815.48 55.5622 Q2815.48 61.0309 2818.8 64.1501 Q2822.16 67.2693 2827.99 67.2693 Q2833.83 67.2693 2837.19 64.1501 Q2840.55 60.9904 2840.55 55.5622 Q2840.55 50.0935 2837.19 46.9743 Q2833.87 43.8551 2827.99 43.8551 M2819.81 40.3713 Q2814.54 39.075 2811.59 35.4697 Q2808.67 31.8644 2808.67 26.6793 Q2808.67 19.4281 2813.81 15.2152 Q2819 11.0023 2827.99 11.0023 Q2837.03 11.0023 2842.17 15.2152 Q2847.32 19.4281 2847.32 26.6793 Q2847.32 31.8644 2844.36 35.4697 Q2841.44 39.075 2836.22 40.3713 Q2842.13 41.7486 2845.41 45.759 Q2848.73 49.7694 2848.73 55.5622 Q2848.73 64.3527 2843.35 69.0517 Q2838 73.7508 2827.99 73.7508 Q2817.99 73.7508 2812.6 69.0517 Q2807.25 64.3527 2807.25 55.5622 Q2807.25 49.7694 2810.57 45.759 Q2813.9 41.7486 2819.81 40.3713 M2816.81 27.4489 Q2816.81 32.148 2819.73 34.7811 Q2822.69 37.4142 2827.99 37.4142 Q2833.26 37.4142 2836.22 34.7811 Q2839.21 32.148 2839.21 27.4489 Q2839.21 22.7499 2836.22 20.1168 Q2833.26 17.4837 2827.99 17.4837 Q2822.69 17.4837 2819.73 20.1168 Q2816.81 22.7499 2816.81 27.4489 Z" fill="#000000" fill-rule="nonzero" fill-opacity="1"></path><circle clip-path="url(#clip482)" cx="1004.91" cy="1841.17" r="14.4" fill="#009af9" fill-rule="evenodd" fill-opacity="1" stroke="#000000" stroke-opacity="1" stroke-width="6.4"></circle>
<circle clip-path="url(#clip482)" cx="1004.91" cy="1770.86" r="14.4" fill="#009af9" fill-rule="evenodd" fill-opacity="1" stroke="#000000" stroke-opacity="1" stroke-width="6.4"></circle>
<circle clip-path="url(#clip482)" cx="1004.91" cy="1700.55" r="14.4" fill="#009af9" fill-rule="evenodd" fill-opacity="1" stroke="#000000" stroke-opacity="1" stroke-width="6.4"></circle>
<circle clip-path="url(#clip482)" cx="1004.91" cy="1630.24" r="14.4" fill="#009af9" fill-rule="evenodd" fill-opacity="1" stroke="#000000" stroke-opacity="1" stroke-width="6.4"></circle>
<circle clip-path="url(#clip482)" cx="1004.91" cy="1559.93" r="14.4" fill="#009af9" fill-rule="evenodd" fill-opacity="1" stroke="#000000" stroke-opacity="1" stroke-width="6.4"></circle>
<circle clip-path="url(#clip482)" cx="1004.91" cy="1489.62" r="14.4" fill="#009af9" fill-rule="evenodd" fill-opacity="1" stroke="#000000" stroke-opacity="1" stroke-width="6.4"></circle>
<circle clip-path="url(#clip482)" cx="1004.91" cy="1419.3" r="14.4" fill="#009af9" fill-rule="evenodd" fill-opacity="1" stroke="#000000" stroke-opacity="1" stroke-width="6.4"></circle>
<circle clip-path="url(#clip482)" cx="1004.91" cy="1348.99" r="14.4" fill="#009af9" fill-rule="evenodd" fill-opacity="1" stroke="#000000" stroke-opacity="1" stroke-width="6.4"></circle>
<circle clip-path="url(#clip482)" cx="1004.91" cy="1278.68" r="14.4" fill="#009af9" fill-rule="evenodd" fill-opacity="1" stroke="#000000" stroke-opacity="1" stroke-width="6.4"></circle>
<circle clip-path="url(#clip482)" cx="1076.51" cy="1981.79" r="14.4" fill="#009af9" fill-rule="evenodd" fill-opacity="1" stroke="#000000" stroke-opacity="1" stroke-width="6.4"></circle>
<circle clip-path="url(#clip482)" cx="1076.51" cy="1911.48" r="14.4" fill="#009af9" fill-rule="evenodd" fill-opacity="1" stroke="#000000" stroke-opacity="1" stroke-width="6.4"></circle>
<circle clip-path="url(#clip482)" cx="1076.51" cy="1841.17" r="14.4" fill="#009af9" fill-rule="evenodd" fill-opacity="1" stroke="#000000" stroke-opacity="1" stroke-width="6.4"></circle>
<circle clip-path="url(#clip482)" cx="1076.51" cy="1770.86" r="14.4" fill="#009af9" fill-rule="evenodd" fill-opacity="1" stroke="#000000" stroke-opacity="1" stroke-width="6.4"></circle>
<circle clip-path="url(#clip482)" cx="1076.51" cy="1348.99" r="14.4" fill="#009af9" fill-rule="evenodd" fill-opacity="1" stroke="#000000" stroke-opacity="1" stroke-width="6.4"></circle>
<circle clip-path="url(#clip482)" cx="1076.51" cy="1278.68" r="14.4" fill="#009af9" fill-rule="evenodd" fill-opacity="1" stroke="#000000" stroke-opacity="1" stroke-width="6.4"></circle>
<circle clip-path="url(#clip482)" cx="1076.51" cy="1208.37" r="14.4" fill="#009af9" fill-rule="evenodd" fill-opacity="1" stroke="#000000" stroke-opacity="1" stroke-width="6.4"></circle>
<circle clip-path="url(#clip482)" cx="1076.51" cy="1138.06" r="14.4" fill="#009af9" fill-rule="evenodd" fill-opacity="1" stroke="#000000" stroke-opacity="1" stroke-width="6.4"></circle>
<circle clip-path="url(#clip482)" cx="1148.1" cy="2052.1" r="14.4" fill="#009af9" fill-rule="evenodd" fill-opacity="1" stroke="#000000" stroke-opacity="1" stroke-width="6.4"></circle>
<circle clip-path="url(#clip482)" cx="1148.1" cy="1981.79" r="14.4" fill="#009af9" fill-rule="evenodd" fill-opacity="1" stroke="#000000" stroke-opacity="1" stroke-width="6.4"></circle>
<circle clip-path="url(#clip482)" cx="1148.1" cy="1911.48" r="14.4" fill="#009af9" fill-rule="evenodd" fill-opacity="1" stroke="#000000" stroke-opacity="1" stroke-width="6.4"></circle>
<circle clip-path="url(#clip482)" cx="1148.1" cy="1208.37" r="14.4" fill="#009af9" fill-rule="evenodd" fill-opacity="1" stroke="#000000" stroke-opacity="1" stroke-width="6.4"></circle>
<circle clip-path="url(#clip482)" cx="1148.1" cy="1138.06" r="14.4" fill="#009af9" fill-rule="evenodd" fill-opacity="1" stroke="#000000" stroke-opacity="1" stroke-width="6.4"></circle>
<circle clip-path="url(#clip482)" cx="1148.1" cy="1067.75" r="14.4" fill="#009af9" fill-rule="evenodd" fill-opacity="1" stroke="#000000" stroke-opacity="1" stroke-width="6.4"></circle>
<circle clip-path="url(#clip482)" cx="1219.7" cy="2122.41" r="14.4" fill="#009af9" fill-rule="evenodd" fill-opacity="1" stroke="#000000" stroke-opacity="1" stroke-width="6.4"></circle>
<circle clip-path="url(#clip482)" cx="1219.7" cy="2052.1" r="14.4" fill="#009af9" fill-rule="evenodd" fill-opacity="1" stroke="#000000" stroke-opacity="1" stroke-width="6.4"></circle>
<circle clip-path="url(#clip482)" cx="1219.7" cy="1067.75" r="14.4" fill="#009af9" fill-rule="evenodd" fill-opacity="1" stroke="#000000" stroke-opacity="1" stroke-width="6.4"></circle>
<circle clip-path="url(#clip482)" cx="1219.7" cy="997.44" r="14.4" fill="#009af9" fill-rule="evenodd" fill-opacity="1" stroke="#000000" stroke-opacity="1" stroke-width="6.4"></circle>
<circle clip-path="url(#clip482)" cx="1291.29" cy="2192.72" r="14.4" fill="#009af9" fill-rule="evenodd" fill-opacity="1" stroke="#000000" stroke-opacity="1" stroke-width="6.4"></circle>
<circle clip-path="url(#clip482)" cx="1291.29" cy="2122.41" r="14.4" fill="#009af9" fill-rule="evenodd" fill-opacity="1" stroke="#000000" stroke-opacity="1" stroke-width="6.4"></circle>
<circle clip-path="url(#clip482)" cx="1291.29" cy="997.44" r="14.4" fill="#009af9" fill-rule="evenodd" fill-opacity="1" stroke="#000000" stroke-opacity="1" stroke-width="6.4"></circle>
<circle clip-path="url(#clip482)" cx="1291.29" cy="927.13" r="14.4" fill="#009af9" fill-rule="evenodd" fill-opacity="1" stroke="#000000" stroke-opacity="1" stroke-width="6.4"></circle>
<circle clip-path="url(#clip482)" cx="1362.89" cy="2192.72" r="14.4" fill="#009af9" fill-rule="evenodd" fill-opacity="1" stroke="#000000" stroke-opacity="1" stroke-width="6.4"></circle>
<circle clip-path="url(#clip482)" cx="1362.89" cy="2122.41" r="14.4" fill="#009af9" fill-rule="evenodd" fill-opacity="1" stroke="#000000" stroke-opacity="1" stroke-width="6.4"></circle>
<circle clip-path="url(#clip482)" cx="1362.89" cy="997.44" r="14.4" fill="#009af9" fill-rule="evenodd" fill-opacity="1" stroke="#000000" stroke-opacity="1" stroke-width="6.4"></circle>
<circle clip-path="url(#clip482)" cx="1362.89" cy="927.13" r="14.4" fill="#009af9" fill-rule="evenodd" fill-opacity="1" stroke="#000000" stroke-opacity="1" stroke-width="6.4"></circle>
<circle clip-path="url(#clip482)" cx="1434.48" cy="2263.03" r="14.4" fill="#009af9" fill-rule="evenodd" fill-opacity="1" stroke="#000000" stroke-opacity="1" stroke-width="6.4"></circle>
<circle clip-path="url(#clip482)" cx="1434.48" cy="2192.72" r="14.4" fill="#009af9" fill-rule="evenodd" fill-opacity="1" stroke="#000000" stroke-opacity="1" stroke-width="6.4"></circle>
<circle clip-path="url(#clip482)" cx="1434.48" cy="927.13" r="14.4" fill="#009af9" fill-rule="evenodd" fill-opacity="1" stroke="#000000" stroke-opacity="1" stroke-width="6.4"></circle>
<circle clip-path="url(#clip482)" cx="1434.48" cy="856.819" r="14.4" fill="#009af9" fill-rule="evenodd" fill-opacity="1" stroke="#000000" stroke-opacity="1" stroke-width="6.4"></circle>
<circle clip-path="url(#clip482)" cx="1506.08" cy="2263.03" r="14.4" fill="#009af9" fill-rule="evenodd" fill-opacity="1" stroke="#000000" stroke-opacity="1" stroke-width="6.4"></circle>
<circle clip-path="url(#clip482)" cx="1506.08" cy="2192.72" r="14.4" fill="#009af9" fill-rule="evenodd" fill-opacity="1" stroke="#000000" stroke-opacity="1" stroke-width="6.4"></circle>
<circle clip-path="url(#clip482)" cx="1506.08" cy="927.13" r="14.4" fill="#009af9" fill-rule="evenodd" fill-opacity="1" stroke="#000000" stroke-opacity="1" stroke-width="6.4"></circle>
<circle clip-path="url(#clip482)" cx="1506.08" cy="856.819" r="14.4" fill="#009af9" fill-rule="evenodd" fill-opacity="1" stroke="#000000" stroke-opacity="1" stroke-width="6.4"></circle>
<circle clip-path="url(#clip482)" cx="1577.67" cy="2263.03" r="14.4" fill="#009af9" fill-rule="evenodd" fill-opacity="1" stroke="#000000" stroke-opacity="1" stroke-width="6.4"></circle>
<circle clip-path="url(#clip482)" cx="1577.67" cy="856.819" r="14.4" fill="#009af9" fill-rule="evenodd" fill-opacity="1" stroke="#000000" stroke-opacity="1" stroke-width="6.4"></circle>
<circle clip-path="url(#clip482)" cx="1649.27" cy="2263.03" r="14.4" fill="#009af9" fill-rule="evenodd" fill-opacity="1" stroke="#000000" stroke-opacity="1" stroke-width="6.4"></circle>
<circle clip-path="url(#clip482)" cx="1649.27" cy="856.819" r="14.4" fill="#009af9" fill-rule="evenodd" fill-opacity="1" stroke="#000000" stroke-opacity="1" stroke-width="6.4"></circle>
<circle clip-path="url(#clip482)" cx="1720.86" cy="2263.03" r="14.4" fill="#009af9" fill-rule="evenodd" fill-opacity="1" stroke="#000000" stroke-opacity="1" stroke-width="6.4"></circle>
<circle clip-path="url(#clip482)" cx="1720.86" cy="856.819" r="14.4" fill="#009af9" fill-rule="evenodd" fill-opacity="1" stroke="#000000" stroke-opacity="1" stroke-width="6.4"></circle>
<circle clip-path="url(#clip482)" cx="1792.45" cy="2263.03" r="14.4" fill="#009af9" fill-rule="evenodd" fill-opacity="1" stroke="#000000" stroke-opacity="1" stroke-width="6.4"></circle>
<circle clip-path="url(#clip482)" cx="1792.45" cy="856.819" r="14.4" fill="#009af9" fill-rule="evenodd" fill-opacity="1" stroke="#000000" stroke-opacity="1" stroke-width="6.4"></circle>
<circle clip-path="url(#clip482)" cx="1864.05" cy="2263.03" r="14.4" fill="#009af9" fill-rule="evenodd" fill-opacity="1" stroke="#000000" stroke-opacity="1" stroke-width="6.4"></circle>
<circle clip-path="url(#clip482)" cx="1864.05" cy="856.819" r="14.4" fill="#009af9" fill-rule="evenodd" fill-opacity="1" stroke="#000000" stroke-opacity="1" stroke-width="6.4"></circle>
<circle clip-path="url(#clip482)" cx="1935.64" cy="2263.03" r="14.4" fill="#009af9" fill-rule="evenodd" fill-opacity="1" stroke="#000000" stroke-opacity="1" stroke-width="6.4"></circle>
<circle clip-path="url(#clip482)" cx="1935.64" cy="2192.72" r="14.4" fill="#009af9" fill-rule="evenodd" fill-opacity="1" stroke="#000000" stroke-opacity="1" stroke-width="6.4"></circle>
<circle clip-path="url(#clip482)" cx="1935.64" cy="927.13" r="14.4" fill="#009af9" fill-rule="evenodd" fill-opacity="1" stroke="#000000" stroke-opacity="1" stroke-width="6.4"></circle>
<circle clip-path="url(#clip482)" cx="1935.64" cy="856.819" r="14.4" fill="#009af9" fill-rule="evenodd" fill-opacity="1" stroke="#000000" stroke-opacity="1" stroke-width="6.4"></circle>
<circle clip-path="url(#clip482)" cx="2007.24" cy="2263.03" r="14.4" fill="#009af9" fill-rule="evenodd" fill-opacity="1" stroke="#000000" stroke-opacity="1" stroke-width="6.4"></circle>
<circle clip-path="url(#clip482)" cx="2007.24" cy="2192.72" r="14.4" fill="#009af9" fill-rule="evenodd" fill-opacity="1" stroke="#000000" stroke-opacity="1" stroke-width="6.4"></circle>
<circle clip-path="url(#clip482)" cx="2007.24" cy="927.13" r="14.4" fill="#009af9" fill-rule="evenodd" fill-opacity="1" stroke="#000000" stroke-opacity="1" stroke-width="6.4"></circle>
<circle clip-path="url(#clip482)" cx="2007.24" cy="856.819" r="14.4" fill="#009af9" fill-rule="evenodd" fill-opacity="1" stroke="#000000" stroke-opacity="1" stroke-width="6.4"></circle>
<circle clip-path="url(#clip482)" cx="2078.83" cy="2192.72" r="14.4" fill="#009af9" fill-rule="evenodd" fill-opacity="1" stroke="#000000" stroke-opacity="1" stroke-width="6.4"></circle>
<circle clip-path="url(#clip482)" cx="2078.83" cy="2122.41" r="14.4" fill="#009af9" fill-rule="evenodd" fill-opacity="1" stroke="#000000" stroke-opacity="1" stroke-width="6.4"></circle>
<circle clip-path="url(#clip482)" cx="2078.83" cy="997.44" r="14.4" fill="#009af9" fill-rule="evenodd" fill-opacity="1" stroke="#000000" stroke-opacity="1" stroke-width="6.4"></circle>
<circle clip-path="url(#clip482)" cx="2078.83" cy="927.13" r="14.4" fill="#009af9" fill-rule="evenodd" fill-opacity="1" stroke="#000000" stroke-opacity="1" stroke-width="6.4"></circle>
<circle clip-path="url(#clip482)" cx="2150.43" cy="2192.72" r="14.4" fill="#009af9" fill-rule="evenodd" fill-opacity="1" stroke="#000000" stroke-opacity="1" stroke-width="6.4"></circle>
<circle clip-path="url(#clip482)" cx="2150.43" cy="2122.41" r="14.4" fill="#009af9" fill-rule="evenodd" fill-opacity="1" stroke="#000000" stroke-opacity="1" stroke-width="6.4"></circle>
<circle clip-path="url(#clip482)" cx="2150.43" cy="997.44" r="14.4" fill="#009af9" fill-rule="evenodd" fill-opacity="1" stroke="#000000" stroke-opacity="1" stroke-width="6.4"></circle>
<circle clip-path="url(#clip482)" cx="2150.43" cy="927.13" r="14.4" fill="#009af9" fill-rule="evenodd" fill-opacity="1" stroke="#000000" stroke-opacity="1" stroke-width="6.4"></circle>
<circle clip-path="url(#clip482)" cx="2222.02" cy="2122.41" r="14.4" fill="#009af9" fill-rule="evenodd" fill-opacity="1" stroke="#000000" stroke-opacity="1" stroke-width="6.4"></circle>
<circle clip-path="url(#clip482)" cx="2222.02" cy="2052.1" r="14.4" fill="#009af9" fill-rule="evenodd" fill-opacity="1" stroke="#000000" stroke-opacity="1" stroke-width="6.4"></circle>
<circle clip-path="url(#clip482)" cx="2222.02" cy="1067.75" r="14.4" fill="#009af9" fill-rule="evenodd" fill-opacity="1" stroke="#000000" stroke-opacity="1" stroke-width="6.4"></circle>
<circle clip-path="url(#clip482)" cx="2222.02" cy="997.44" r="14.4" fill="#009af9" fill-rule="evenodd" fill-opacity="1" stroke="#000000" stroke-opacity="1" stroke-width="6.4"></circle>
<circle clip-path="url(#clip482)" cx="2293.62" cy="2052.1" r="14.4" fill="#009af9" fill-rule="evenodd" fill-opacity="1" stroke="#000000" stroke-opacity="1" stroke-width="6.4"></circle>
<circle clip-path="url(#clip482)" cx="2293.62" cy="1981.79" r="14.4" fill="#009af9" fill-rule="evenodd" fill-opacity="1" stroke="#000000" stroke-opacity="1" stroke-width="6.4"></circle>
<circle clip-path="url(#clip482)" cx="2293.62" cy="1911.48" r="14.4" fill="#009af9" fill-rule="evenodd" fill-opacity="1" stroke="#000000" stroke-opacity="1" stroke-width="6.4"></circle>
<circle clip-path="url(#clip482)" cx="2293.62" cy="1208.37" r="14.4" fill="#009af9" fill-rule="evenodd" fill-opacity="1" stroke="#000000" stroke-opacity="1" stroke-width="6.4"></circle>
<circle clip-path="url(#clip482)" cx="2293.62" cy="1138.06" r="14.4" fill="#009af9" fill-rule="evenodd" fill-opacity="1" stroke="#000000" stroke-opacity="1" stroke-width="6.4"></circle>
<circle clip-path="url(#clip482)" cx="2293.62" cy="1067.75" r="14.4" fill="#009af9" fill-rule="evenodd" fill-opacity="1" stroke="#000000" stroke-opacity="1" stroke-width="6.4"></circle>
<circle clip-path="url(#clip482)" cx="2365.21" cy="1981.79" r="14.4" fill="#009af9" fill-rule="evenodd" fill-opacity="1" stroke="#000000" stroke-opacity="1" stroke-width="6.4"></circle>
<circle clip-path="url(#clip482)" cx="2365.21" cy="1911.48" r="14.4" fill="#009af9" fill-rule="evenodd" fill-opacity="1" stroke="#000000" stroke-opacity="1" stroke-width="6.4"></circle>
<circle clip-path="url(#clip482)" cx="2365.21" cy="1841.17" r="14.4" fill="#009af9" fill-rule="evenodd" fill-opacity="1" stroke="#000000" stroke-opacity="1" stroke-width="6.4"></circle>
<circle clip-path="url(#clip482)" cx="2365.21" cy="1770.86" r="14.4" fill="#009af9" fill-rule="evenodd" fill-opacity="1" stroke="#000000" stroke-opacity="1" stroke-width="6.4"></circle>
<circle clip-path="url(#clip482)" cx="2365.21" cy="1348.99" r="14.4" fill="#009af9" fill-rule="evenodd" fill-opacity="1" stroke="#000000" stroke-opacity="1" stroke-width="6.4"></circle>
<circle clip-path="url(#clip482)" cx="2365.21" cy="1278.68" r="14.4" fill="#009af9" fill-rule="evenodd" fill-opacity="1" stroke="#000000" stroke-opacity="1" stroke-width="6.4"></circle>
<circle clip-path="url(#clip482)" cx="2365.21" cy="1208.37" r="14.4" fill="#009af9" fill-rule="evenodd" fill-opacity="1" stroke="#000000" stroke-opacity="1" stroke-width="6.4"></circle>
<circle clip-path="url(#clip482)" cx="2365.21" cy="1138.06" r="14.4" fill="#009af9" fill-rule="evenodd" fill-opacity="1" stroke="#000000" stroke-opacity="1" stroke-width="6.4"></circle>
<circle clip-path="url(#clip482)" cx="2436.81" cy="1841.17" r="14.4" fill="#009af9" fill-rule="evenodd" fill-opacity="1" stroke="#000000" stroke-opacity="1" stroke-width="6.4"></circle>
<circle clip-path="url(#clip482)" cx="2436.81" cy="1770.86" r="14.4" fill="#009af9" fill-rule="evenodd" fill-opacity="1" stroke="#000000" stroke-opacity="1" stroke-width="6.4"></circle>
<circle clip-path="url(#clip482)" cx="2436.81" cy="1700.55" r="14.4" fill="#009af9" fill-rule="evenodd" fill-opacity="1" stroke="#000000" stroke-opacity="1" stroke-width="6.4"></circle>
<circle clip-path="url(#clip482)" cx="2436.81" cy="1630.24" r="14.4" fill="#009af9" fill-rule="evenodd" fill-opacity="1" stroke="#000000" stroke-opacity="1" stroke-width="6.4"></circle>
<circle clip-path="url(#clip482)" cx="2436.81" cy="1559.93" r="14.4" fill="#009af9" fill-rule="evenodd" fill-opacity="1" stroke="#000000" stroke-opacity="1" stroke-width="6.4"></circle>
<circle clip-path="url(#clip482)" cx="2436.81" cy="1489.62" r="14.4" fill="#009af9" fill-rule="evenodd" fill-opacity="1" stroke="#000000" stroke-opacity="1" stroke-width="6.4"></circle>
<circle clip-path="url(#clip482)" cx="2436.81" cy="1419.3" r="14.4" fill="#009af9" fill-rule="evenodd" fill-opacity="1" stroke="#000000" stroke-opacity="1" stroke-width="6.4"></circle>
<circle clip-path="url(#clip482)" cx="2436.81" cy="1348.99" r="14.4" fill="#009af9" fill-rule="evenodd" fill-opacity="1" stroke="#000000" stroke-opacity="1" stroke-width="6.4"></circle>
<circle clip-path="url(#clip482)" cx="2436.81" cy="1278.68" r="14.4" fill="#009af9" fill-rule="evenodd" fill-opacity="1" stroke="#000000" stroke-opacity="1" stroke-width="6.4"></circle>
</svg>