<svg xmlns="http://www.w3.org/2000/svg" xmlns:xlink="http://www.w3.org/1999/xlink" width="800" height="800" viewBox="0 0 3200 3200">
<defs>
  <clipPath id="clip720">
    <rect x="0" y="0" width="3200" height="3200"></rect>
  </clipPath>
</defs>
<path clip-path="url(#clip720)" d="M0 3200 L3200 3200 L3200 0 L0 0  Z" fill="#ffffff" fill-rule="evenodd" fill-opacity="1"></path>
<defs>
  <clipPath id="clip721">
    <rect x="640" y="320" width="2241" height="2241"></rect>
  </clipPath>
</defs>
<path clip-path="url(#clip720)" d="M288.964 2966.14 L3152.76 2966.14 L3152.76 153.712 L288.964 153.712  Z" fill="#ffffff" fill-rule="evenodd" fill-opacity="1"></path>
<defs>
  <clipPath id="clip722">
    <rect x="288" y="153" width="2865" height="2813"></rect>
  </clipPath>
</defs>
<polyline clip-path="url(#clip722)" style="stroke:#000000; stroke-linecap:round; stroke-linejoin:round; stroke-width:2; stroke-opacity:0.1; fill:none" points="288.964,2966.14 288.964,153.712 "></polyline>
<polyline clip-path="url(#clip722)" style="stroke:#000000; stroke-linecap:round; stroke-linejoin:round; stroke-width:2; stroke-opacity:0.1; fill:none" points="1004.91,2966.14 1004.91,153.712 "></polyline>
<polyline clip-path="url(#clip722)" style="stroke:#000000; stroke-linecap:round; stroke-linejoin:round; stroke-width:2; stroke-opacity:0.1; fill:none" points="1720.86,2966.14 1720.86,153.712 "></polyline>
<polyline clip-path="url(#clip722)" style="stroke:#000000; stroke-linecap:round; stroke-linejoin:round; stroke-width:2; stroke-opacity:0.1; fill:none" points="2436.81,2966.14 2436.81,153.712 "></polyline>
<polyline clip-path="url(#clip722)" style="stroke:#000000; stroke-linecap:round; stroke-linejoin:round; stroke-width:2; stroke-opacity:0.1; fill:none" points="3152.76,2966.14 3152.76,153.712 "></polyline>
<polyline clip-path="url(#clip722)" style="stroke:#000000; stroke-linecap:round; stroke-linejoin:round; stroke-width:2; stroke-opacity:0.1; fill:none" points="288.964,2966.14 3152.76,2966.14 "></polyline>
<polyline clip-path="url(#clip722)" style="stroke:#000000; stroke-linecap:round; stroke-linejoin:round; stroke-width:2; stroke-opacity:0.1; fill:none" points="288.964,2263.03 3152.76,2263.03 "></polyline>
<polyline clip-path="url(#clip722)" style="stroke:#000000; stroke-linecap:round; stroke-linejoin:round; stroke-width:2; stroke-opacity:0.1; fill:none" points="288.964,1559.93 3152.76,1559.93 "></polyline>
<polyline clip-path="url(#clip722)" style="stroke:#000000; stroke-linecap:round; stroke-linejoin:round; stroke-width:2; stroke-opacity:0.1; fill:none" points="288.964,856.819 3152.76,856.819 "></polyline>
<polyline clip-path="url(#clip722)" style="stroke:#000000; stroke-linecap:round; stroke-linejoin:round; stroke-width:2; stroke-opacity:0.1; fill:none" points="288.964,153.712 3152.76,153.712 "></polyline>
<polyline clip-path="url(#clip720)" style="stroke:#000000; stroke-linecap:round; stroke-linejoin:round; stroke-width:4; stroke-opacity:1; fill:none" points="288.964,2966.14 3152.76,2966.14 "></polyline>
<polyline clip-path="url(#clip720)" style="stroke:#000000; stroke-linecap:round; stroke-linejoin:round; stroke-width:4; stroke-opacity:1; fill:none" points="288.964,2966.14 288.964,2947.24 "></polyline>
<polyline clip-path="url(#clip720)" style="stroke:#000000; stroke-linecap:round; stroke-linejoin:round; stroke-width:4; stroke-opacity:1; fill:none" points="1004.91,2966.14 1004.91,2947.24 "></polyline>
<polyline clip-path="url(#clip720)" style="stroke:#000000; stroke-linecap:round; stroke-linejoin:round; stroke-width:4; stroke-opacity:1; fill:none" points="1720.86,2966.14 1720.86,2947.24 "></polyline>
<polyline clip-path="url(#clip720)" style="stroke:#000000; stroke-linecap:round; stroke-linejoin:round; stroke-width:4; stroke-opacity:1; fill:none" points="2436.81,2966.14 2436.81,2947.24 "></polyline>
<polyline clip-path="url(#clip720)" style="stroke:#000000; stroke-linecap:round; stroke-linejoin:round; stroke-width:4; stroke-opacity:1; fill:none" points="3152.76,2966.14 3152.76,2947.24 "></polyline>
<path clip-path="url(#clip720)" d="M235.492 3018.11 L265.168 3018.11 L265.168 3022.05 L235.492 3022.05 L235.492 3018.11 Z" fill="#000000" fill-rule="nonzero" fill-opacity="1"></path><path clip-path="url(#clip720)" d="M276.071 3031 L283.709 3031 L283.709 3004.64 L275.399 3006.31 L275.399 3002.05 L283.663 3000.38 L288.339 3000.38 L288.339 3031 L295.978 3031 L295.978 3034.94 L276.071 3034.94 L276.071 3031 Z" fill="#000000" fill-rule="nonzero" fill-opacity="1"></path><path clip-path="url(#clip720)" d="M305.422 3029.06 L310.307 3029.06 L310.307 3034.94 L305.422 3034.94 L305.422 3029.06 Z" fill="#000000" fill-rule="nonzero" fill-opacity="1"></path><path clip-path="url(#clip720)" d="M330.492 3003.46 Q326.88 3003.46 325.052 3007.02 Q323.246 3010.56 323.246 3017.69 Q323.246 3024.8 325.052 3028.37 Q326.88 3031.91 330.492 3031.91 Q334.126 3031.91 335.931 3028.37 Q337.76 3024.8 337.76 3017.69 Q337.76 3010.56 335.931 3007.02 Q334.126 3003.46 330.492 3003.46 M330.492 2999.75 Q336.302 2999.75 339.357 3004.36 Q342.436 3008.94 342.436 3017.69 Q342.436 3026.42 339.357 3031.03 Q336.302 3035.61 330.492 3035.61 Q324.681 3035.61 321.603 3031.03 Q318.547 3026.42 318.547 3017.69 Q318.547 3008.94 321.603 3004.36 Q324.681 2999.75 330.492 2999.75 Z" fill="#000000" fill-rule="nonzero" fill-opacity="1"></path><path clip-path="url(#clip720)" d="M951.938 3018.11 L981.614 3018.11 L981.614 3022.05 L951.938 3022.05 L951.938 3018.11 Z" fill="#000000" fill-rule="nonzero" fill-opacity="1"></path><path clip-path="url(#clip720)" d="M1001.71 3003.46 Q998.095 3003.46 996.266 3007.02 Q994.461 3010.56 994.461 3017.69 Q994.461 3024.8 996.266 3028.37 Q998.095 3031.91 1001.71 3031.91 Q1005.34 3031.91 1007.15 3028.37 Q1008.97 3024.8 1008.97 3017.69 Q1008.97 3010.56 1007.15 3007.02 Q1005.34 3003.46 1001.71 3003.46 M1001.71 2999.75 Q1007.52 2999.75 1010.57 3004.36 Q1013.65 3008.94 1013.65 3017.69 Q1013.65 3026.42 1010.57 3031.03 Q1007.52 3035.61 1001.71 3035.61 Q995.896 3035.61 992.817 3031.03 Q989.762 3026.42 989.762 3017.69 Q989.762 3008.94 992.817 3004.36 Q995.896 2999.75 1001.71 2999.75 Z" fill="#000000" fill-rule="nonzero" fill-opacity="1"></path><path clip-path="url(#clip720)" d="M1021.87 3029.06 L1026.75 3029.06 L1026.75 3034.94 L1021.87 3034.94 L1021.87 3029.06 Z" fill="#000000" fill-rule="nonzero" fill-opacity="1"></path><path clip-path="url(#clip720)" d="M1036.98 3000.38 L1055.34 3000.38 L1055.34 3004.32 L1041.27 3004.32 L1041.27 3012.79 Q1042.28 3012.44 1043.3 3012.28 Q1044.32 3012.09 1045.34 3012.09 Q1051.13 3012.09 1054.51 3015.26 Q1057.89 3018.44 1057.89 3023.85 Q1057.89 3029.43 1054.41 3032.53 Q1050.94 3035.61 1044.62 3035.61 Q1042.45 3035.61 1040.18 3035.24 Q1037.93 3034.87 1035.53 3034.13 L1035.53 3029.43 Q1037.61 3030.56 1039.83 3031.12 Q1042.05 3031.68 1044.53 3031.68 Q1048.53 3031.68 1050.87 3029.57 Q1053.21 3027.46 1053.21 3023.85 Q1053.21 3020.24 1050.87 3018.13 Q1048.53 3016.03 1044.53 3016.03 Q1042.65 3016.03 1040.78 3016.44 Q1038.93 3016.86 1036.98 3017.74 L1036.98 3000.38 Z" fill="#000000" fill-rule="nonzero" fill-opacity="1"></path><path clip-path="url(#clip720)" d="M1698.24 3003.46 Q1694.63 3003.46 1692.8 3007.02 Q1691 3010.56 1691 3017.69 Q1691 3024.8 1692.8 3028.37 Q1694.63 3031.91 1698.24 3031.91 Q1701.88 3031.91 1703.68 3028.37 Q1705.51 3024.8 1705.51 3017.69 Q1705.51 3010.56 1703.68 3007.02 Q1701.88 3003.46 1698.24 3003.46 M1698.24 2999.75 Q1704.05 2999.75 1707.11 3004.36 Q1710.19 3008.94 1710.19 3017.69 Q1710.19 3026.42 1707.11 3031.03 Q1704.05 3035.61 1698.24 3035.61 Q1692.43 3035.61 1689.36 3031.03 Q1686.3 3026.42 1686.3 3017.69 Q1686.3 3008.94 1689.36 3004.36 Q1692.43 2999.75 1698.24 2999.75 Z" fill="#000000" fill-rule="nonzero" fill-opacity="1"></path><path clip-path="url(#clip720)" d="M1718.41 3029.06 L1723.29 3029.06 L1723.29 3034.94 L1718.41 3034.94 L1718.41 3029.06 Z" fill="#000000" fill-rule="nonzero" fill-opacity="1"></path><path clip-path="url(#clip720)" d="M1743.48 3003.46 Q1739.86 3003.46 1738.04 3007.02 Q1736.23 3010.56 1736.23 3017.69 Q1736.23 3024.8 1738.04 3028.37 Q1739.86 3031.91 1743.48 3031.91 Q1747.11 3031.91 1748.92 3028.37 Q1750.74 3024.8 1750.74 3017.69 Q1750.74 3010.56 1748.92 3007.02 Q1747.11 3003.46 1743.48 3003.46 M1743.48 2999.75 Q1749.29 2999.75 1752.34 3004.36 Q1755.42 3008.94 1755.42 3017.69 Q1755.42 3026.42 1752.34 3031.03 Q1749.29 3035.61 1743.48 3035.61 Q1737.67 3035.61 1734.59 3031.03 Q1731.53 3026.42 1731.53 3017.69 Q1731.53 3008.94 1734.59 3004.36 Q1737.67 2999.75 1743.48 2999.75 Z" fill="#000000" fill-rule="nonzero" fill-opacity="1"></path><path clip-path="url(#clip720)" d="M2414.69 3003.46 Q2411.08 3003.46 2409.25 3007.02 Q2407.44 3010.56 2407.44 3017.69 Q2407.44 3024.8 2409.25 3028.37 Q2411.08 3031.91 2414.69 3031.91 Q2418.32 3031.91 2420.13 3028.37 Q2421.96 3024.8 2421.96 3017.69 Q2421.96 3010.56 2420.13 3007.02 Q2418.32 3003.46 2414.69 3003.46 M2414.69 2999.75 Q2420.5 2999.75 2423.56 3004.36 Q2426.63 3008.94 2426.63 3017.69 Q2426.63 3026.42 2423.56 3031.03 Q2420.5 3035.61 2414.69 3035.61 Q2408.88 3035.61 2405.8 3031.03 Q2402.75 3026.42 2402.75 3017.69 Q2402.75 3008.94 2405.8 3004.36 Q2408.88 2999.75 2414.69 2999.75 Z" fill="#000000" fill-rule="nonzero" fill-opacity="1"></path><path clip-path="url(#clip720)" d="M2434.85 3029.06 L2439.74 3029.06 L2439.74 3034.94 L2434.85 3034.94 L2434.85 3029.06 Z" fill="#000000" fill-rule="nonzero" fill-opacity="1"></path><path clip-path="url(#clip720)" d="M2449.97 3000.38 L2468.32 3000.38 L2468.32 3004.32 L2454.25 3004.32 L2454.25 3012.79 Q2455.27 3012.44 2456.29 3012.28 Q2457.31 3012.09 2458.32 3012.09 Q2464.11 3012.09 2467.49 3015.26 Q2470.87 3018.44 2470.87 3023.85 Q2470.87 3029.43 2467.4 3032.53 Q2463.93 3035.61 2457.61 3035.61 Q2455.43 3035.61 2453.16 3035.24 Q2450.92 3034.87 2448.51 3034.13 L2448.51 3029.43 Q2450.59 3030.56 2452.81 3031.12 Q2455.04 3031.68 2457.51 3031.68 Q2461.52 3031.68 2463.86 3029.57 Q2466.19 3027.46 2466.19 3023.85 Q2466.19 3020.24 2463.86 3018.13 Q2461.52 3016.03 2457.51 3016.03 Q2455.64 3016.03 2453.76 3016.44 Q2451.91 3016.86 2449.97 3017.74 L2449.97 3000.38 Z" fill="#000000" fill-rule="nonzero" fill-opacity="1"></path><path clip-path="url(#clip720)" d="M3119.91 3031 L3127.55 3031 L3127.55 3004.64 L3119.24 3006.31 L3119.24 3002.05 L3127.5 3000.38 L3132.18 3000.38 L3132.18 3031 L3139.82 3031 L3139.82 3034.94 L3119.91 3034.94 L3119.91 3031 Z" fill="#000000" fill-rule="nonzero" fill-opacity="1"></path><path clip-path="url(#clip720)" d="M3149.26 3029.06 L3154.14 3029.06 L3154.14 3034.94 L3149.26 3034.94 L3149.26 3029.06 Z" fill="#000000" fill-rule="nonzero" fill-opacity="1"></path><path clip-path="url(#clip720)" d="M3174.33 3003.46 Q3170.72 3003.46 3168.89 3007.02 Q3167.08 3010.56 3167.08 3017.69 Q3167.08 3024.8 3168.89 3028.37 Q3170.72 3031.91 3174.33 3031.91 Q3177.96 3031.91 3179.77 3028.37 Q3181.6 3024.8 3181.6 3017.69 Q3181.6 3010.56 3179.77 3007.02 Q3177.96 3003.46 3174.33 3003.46 M3174.33 2999.75 Q3180.14 2999.75 3183.2 3004.36 Q3186.27 3008.94 3186.27 3017.69 Q3186.27 3026.42 3183.2 3031.03 Q3180.14 3035.61 3174.33 3035.61 Q3168.52 3035.61 3165.44 3031.03 Q3162.39 3026.42 3162.39 3017.69 Q3162.39 3008.94 3165.44 3004.36 Q3168.52 2999.75 3174.33 2999.75 Z" fill="#000000" fill-rule="nonzero" fill-opacity="1"></path><path clip-path="url(#clip720)" d="M1687.25 3105.08 Q1680.15 3105.08 1677.41 3106.71 Q1674.68 3108.33 1674.68 3112.25 Q1674.68 3115.36 1676.71 3117.21 Q1678.78 3119.03 1682.32 3119.03 Q1687.19 3119.03 1690.11 3115.59 Q1693.07 3112.12 1693.07 3106.39 L1693.07 3105.08 L1687.25 3105.08 M1698.93 3102.67 L1698.93 3123 L1693.07 3123 L1693.07 3117.59 Q1691.07 3120.84 1688.08 3122.4 Q1685.08 3123.93 1680.76 3123.93 Q1675.28 3123.93 1672.03 3120.87 Q1668.82 3117.78 1668.82 3112.63 Q1668.82 3106.61 1672.83 3103.56 Q1676.87 3100.5 1684.86 3100.5 L1693.07 3100.5 L1693.07 3099.93 Q1693.07 3095.89 1690.4 3093.69 Q1687.76 3091.46 1682.95 3091.46 Q1679.9 3091.46 1677 3092.19 Q1674.1 3092.93 1671.43 3094.39 L1671.43 3088.98 Q1674.64 3087.74 1677.67 3087.13 Q1680.69 3086.5 1683.56 3086.5 Q1691.29 3086.5 1695.11 3090.51 Q1698.93 3094.52 1698.93 3102.67 Z" fill="#000000" fill-rule="nonzero" fill-opacity="1"></path><path clip-path="url(#clip720)" d="M1738.08 3133.83 L1738.08 3138.38 L1704.21 3138.38 L1704.21 3133.83 L1738.08 3133.83 Z" fill="#000000" fill-rule="nonzero" fill-opacity="1"></path><path clip-path="url(#clip720)" d="M1745.53 3117.59 L1756.03 3117.59 L1756.03 3081.34 L1744.6 3083.63 L1744.6 3077.78 L1755.97 3075.48 L1762.4 3075.48 L1762.4 3117.59 L1772.9 3117.59 L1772.9 3123 L1745.53 3123 L1745.53 3117.59 Z" fill="#000000" fill-rule="nonzero" fill-opacity="1"></path><polyline clip-path="url(#clip720)" style="stroke:#000000; stroke-linecap:round; stroke-linejoin:round; stroke-width:4; stroke-opacity:1; fill:none" points="288.964,2966.14 288.964,153.712 "></polyline>
<polyline clip-path="url(#clip720)" style="stroke:#000000; stroke-linecap:round; stroke-linejoin:round; stroke-width:4; stroke-opacity:1; fill:none" points="288.964,2966.14 307.862,2966.14 "></polyline>
<polyline clip-path="url(#clip720)" style="stroke:#000000; stroke-linecap:round; stroke-linejoin:round; stroke-width:4; stroke-opacity:1; fill:none" points="288.964,2263.03 307.862,2263.03 "></polyline>
<polyline clip-path="url(#clip720)" style="stroke:#000000; stroke-linecap:round; stroke-linejoin:round; stroke-width:4; stroke-opacity:1; fill:none" points="288.964,1559.93 307.862,1559.93 "></polyline>
<polyline clip-path="url(#clip720)" style="stroke:#000000; stroke-linecap:round; stroke-linejoin:round; stroke-width:4; stroke-opacity:1; fill:none" points="288.964,856.819 307.862,856.819 "></polyline>
<polyline clip-path="url(#clip720)" style="stroke:#000000; stroke-linecap:round; stroke-linejoin:round; stroke-width:4; stroke-opacity:1; fill:none" points="288.964,153.712 307.862,153.712 "></polyline>
<path clip-path="url(#clip720)" d="M134.02 2966.59 L163.696 2966.59 L163.696 2970.53 L134.02 2970.53 L134.02 2966.59 Z" fill="#000000" fill-rule="nonzero" fill-opacity="1"></path><path clip-path="url(#clip720)" d="M174.599 2979.48 L182.237 2979.48 L182.237 2953.12 L173.927 2954.79 L173.927 2950.53 L182.191 2948.86 L186.867 2948.86 L186.867 2979.48 L194.506 2979.48 L194.506 2983.42 L174.599 2983.42 L174.599 2979.48 Z" fill="#000000" fill-rule="nonzero" fill-opacity="1"></path><path clip-path="url(#clip720)" d="M203.95 2977.54 L208.835 2977.54 L208.835 2983.42 L203.95 2983.42 L203.95 2977.54 Z" fill="#000000" fill-rule="nonzero" fill-opacity="1"></path><path clip-path="url(#clip720)" d="M229.02 2951.94 Q225.409 2951.94 223.58 2955.5 Q221.774 2959.04 221.774 2966.17 Q221.774 2973.28 223.58 2976.85 Q225.409 2980.39 229.02 2980.39 Q232.654 2980.39 234.459 2976.85 Q236.288 2973.28 236.288 2966.17 Q236.288 2959.04 234.459 2955.5 Q232.654 2951.94 229.02 2951.94 M229.02 2948.23 Q234.83 2948.23 237.885 2952.84 Q240.964 2957.42 240.964 2966.17 Q240.964 2974.9 237.885 2979.51 Q234.83 2984.09 229.02 2984.09 Q223.209 2984.09 220.131 2979.51 Q217.075 2974.9 217.075 2966.17 Q217.075 2957.42 220.131 2952.84 Q223.209 2948.23 229.02 2948.23 Z" fill="#000000" fill-rule="nonzero" fill-opacity="1"></path><path clip-path="url(#clip720)" d="M135.016 2263.48 L164.691 2263.48 L164.691 2267.42 L135.016 2267.42 L135.016 2263.48 Z" fill="#000000" fill-rule="nonzero" fill-opacity="1"></path><path clip-path="url(#clip720)" d="M184.784 2248.83 Q181.173 2248.83 179.344 2252.4 Q177.538 2255.94 177.538 2263.07 Q177.538 2270.17 179.344 2273.74 Q181.173 2277.28 184.784 2277.28 Q188.418 2277.28 190.224 2273.74 Q192.052 2270.17 192.052 2263.07 Q192.052 2255.94 190.224 2252.4 Q188.418 2248.83 184.784 2248.83 M184.784 2245.13 Q190.594 2245.13 193.649 2249.73 Q196.728 2254.32 196.728 2263.07 Q196.728 2271.79 193.649 2276.4 Q190.594 2280.98 184.784 2280.98 Q178.974 2280.98 175.895 2276.4 Q172.839 2271.79 172.839 2263.07 Q172.839 2254.32 175.895 2249.73 Q178.974 2245.13 184.784 2245.13 Z" fill="#000000" fill-rule="nonzero" fill-opacity="1"></path><path clip-path="url(#clip720)" d="M204.946 2274.43 L209.83 2274.43 L209.83 2280.31 L204.946 2280.31 L204.946 2274.43 Z" fill="#000000" fill-rule="nonzero" fill-opacity="1"></path><path clip-path="url(#clip720)" d="M220.061 2245.75 L238.418 2245.75 L238.418 2249.69 L224.344 2249.69 L224.344 2258.16 Q225.362 2257.81 226.381 2257.65 Q227.399 2257.47 228.418 2257.47 Q234.205 2257.47 237.584 2260.64 Q240.964 2263.81 240.964 2269.23 Q240.964 2274.8 237.492 2277.91 Q234.02 2280.98 227.7 2280.98 Q225.524 2280.98 223.256 2280.61 Q221.01 2280.24 218.603 2279.5 L218.603 2274.8 Q220.686 2275.94 222.909 2276.49 Q225.131 2277.05 227.608 2277.05 Q231.612 2277.05 233.95 2274.94 Q236.288 2272.84 236.288 2269.23 Q236.288 2265.61 233.95 2263.51 Q231.612 2261.4 227.608 2261.4 Q225.733 2261.4 223.858 2261.82 Q222.006 2262.23 220.061 2263.11 L220.061 2245.75 Z" fill="#000000" fill-rule="nonzero" fill-opacity="1"></path><path clip-path="url(#clip720)" d="M183.788 1545.72 Q180.177 1545.72 178.349 1549.29 Q176.543 1552.83 176.543 1559.96 Q176.543 1567.07 178.349 1570.63 Q180.177 1574.17 183.788 1574.17 Q187.423 1574.17 189.228 1570.63 Q191.057 1567.07 191.057 1559.96 Q191.057 1552.83 189.228 1549.29 Q187.423 1545.72 183.788 1545.72 M183.788 1542.02 Q189.599 1542.02 192.654 1546.63 Q195.733 1551.21 195.733 1559.96 Q195.733 1568.69 192.654 1573.29 Q189.599 1577.88 183.788 1577.88 Q177.978 1577.88 174.9 1573.29 Q171.844 1568.69 171.844 1559.96 Q171.844 1551.21 174.9 1546.63 Q177.978 1542.02 183.788 1542.02 Z" fill="#000000" fill-rule="nonzero" fill-opacity="1"></path><path clip-path="url(#clip720)" d="M203.95 1571.33 L208.835 1571.33 L208.835 1577.21 L203.95 1577.21 L203.95 1571.33 Z" fill="#000000" fill-rule="nonzero" fill-opacity="1"></path><path clip-path="url(#clip720)" d="M229.02 1545.72 Q225.409 1545.72 223.58 1549.29 Q221.774 1552.83 221.774 1559.96 Q221.774 1567.07 223.58 1570.63 Q225.409 1574.17 229.02 1574.17 Q232.654 1574.17 234.459 1570.63 Q236.288 1567.07 236.288 1559.96 Q236.288 1552.83 234.459 1549.29 Q232.654 1545.72 229.02 1545.72 M229.02 1542.02 Q234.83 1542.02 237.885 1546.63 Q240.964 1551.21 240.964 1559.96 Q240.964 1568.69 237.885 1573.29 Q234.83 1577.88 229.02 1577.88 Q223.209 1577.88 220.131 1573.29 Q217.075 1568.69 217.075 1559.96 Q217.075 1551.21 220.131 1546.63 Q223.209 1542.02 229.02 1542.02 Z" fill="#000000" fill-rule="nonzero" fill-opacity="1"></path><path clip-path="url(#clip720)" d="M184.784 842.618 Q181.173 842.618 179.344 846.183 Q177.538 849.724 177.538 856.854 Q177.538 863.96 179.344 867.525 Q181.173 871.067 184.784 871.067 Q188.418 871.067 190.224 867.525 Q192.052 863.96 192.052 856.854 Q192.052 849.724 190.224 846.183 Q188.418 842.618 184.784 842.618 M184.784 838.914 Q190.594 838.914 193.649 843.521 Q196.728 848.104 196.728 856.854 Q196.728 865.581 193.649 870.187 Q190.594 874.77 184.784 874.77 Q178.974 874.77 175.895 870.187 Q172.839 865.581 172.839 856.854 Q172.839 848.104 175.895 843.521 Q178.974 838.914 184.784 838.914 Z" fill="#000000" fill-rule="nonzero" fill-opacity="1"></path><path clip-path="url(#clip720)" d="M204.946 868.219 L209.83 868.219 L209.83 874.099 L204.946 874.099 L204.946 868.219 Z" fill="#000000" fill-rule="nonzero" fill-opacity="1"></path><path clip-path="url(#clip720)" d="M220.061 839.539 L238.418 839.539 L238.418 843.474 L224.344 843.474 L224.344 851.946 Q225.362 851.599 226.381 851.437 Q227.399 851.252 228.418 851.252 Q234.205 851.252 237.584 854.423 Q240.964 857.595 240.964 863.011 Q240.964 868.59 237.492 871.692 Q234.02 874.77 227.7 874.77 Q225.524 874.77 223.256 874.4 Q221.01 874.03 218.603 873.289 L218.603 868.59 Q220.686 869.724 222.909 870.28 Q225.131 870.835 227.608 870.835 Q231.612 870.835 233.95 868.729 Q236.288 866.622 236.288 863.011 Q236.288 859.4 233.95 857.294 Q231.612 855.187 227.608 855.187 Q225.733 855.187 223.858 855.604 Q222.006 856.02 220.061 856.9 L220.061 839.539 Z" fill="#000000" fill-rule="nonzero" fill-opacity="1"></path><path clip-path="url(#clip720)" d="M174.599 167.057 L182.237 167.057 L182.237 140.691 L173.927 142.358 L173.927 138.099 L182.191 136.432 L186.867 136.432 L186.867 167.057 L194.506 167.057 L194.506 170.992 L174.599 170.992 L174.599 167.057 Z" fill="#000000" fill-rule="nonzero" fill-opacity="1"></path><path clip-path="url(#clip720)" d="M203.95 165.113 L208.835 165.113 L208.835 170.992 L203.95 170.992 L203.95 165.113 Z" fill="#000000" fill-rule="nonzero" fill-opacity="1"></path><path clip-path="url(#clip720)" d="M229.02 139.511 Q225.409 139.511 223.58 143.076 Q221.774 146.617 221.774 153.747 Q221.774 160.853 223.58 164.418 Q225.409 167.96 229.02 167.96 Q232.654 167.96 234.459 164.418 Q236.288 160.853 236.288 153.747 Q236.288 146.617 234.459 143.076 Q232.654 139.511 229.02 139.511 M229.02 135.807 Q234.83 135.807 237.885 140.414 Q240.964 144.997 240.964 153.747 Q240.964 162.474 237.885 167.08 Q234.83 171.663 229.02 171.663 Q223.209 171.663 220.131 167.08 Q217.075 162.474 217.075 153.747 Q217.075 144.997 220.131 140.414 Q223.209 135.807 229.02 135.807 Z" fill="#000000" fill-rule="nonzero" fill-opacity="1"></path><path clip-path="url(#clip720)" d="M53.8447 1594.49 Q53.8447 1601.59 55.4679 1604.33 Q57.0912 1607.06 61.0061 1607.06 Q64.1253 1607.06 65.9714 1605.03 Q67.7856 1602.96 67.7856 1599.43 Q67.7856 1594.56 64.3481 1591.63 Q60.8788 1588.67 55.1497 1588.67 L53.8447 1588.67 L53.8447 1594.49 M51.4257 1582.81 L71.7642 1582.81 L71.7642 1588.67 L66.3533 1588.67 Q69.5998 1590.67 71.1594 1593.66 Q72.6872 1596.66 72.6872 1600.98 Q72.6872 1606.46 69.6316 1609.71 Q66.5443 1612.92 61.3881 1612.92 Q55.3725 1612.92 52.3169 1608.91 Q49.2614 1604.87 49.2614 1596.88 L49.2614 1588.67 L48.6885 1588.67 Q44.6462 1588.67 42.4501 1591.34 Q40.2221 1593.98 40.2221 1598.79 Q40.2221 1601.84 40.9541 1604.74 Q41.6862 1607.64 43.1503 1610.31 L37.7395 1610.31 Q36.4981 1607.1 35.8934 1604.07 Q35.2568 1601.05 35.2568 1598.18 Q35.2568 1590.45 39.2672 1586.63 Q43.2776 1582.81 51.4257 1582.81 Z" fill="#000000" fill-rule="nonzero" fill-opacity="1"></path><path clip-path="url(#clip720)" d="M82.5859 1543.66 L87.1373 1543.66 L87.1373 1577.53 L82.5859 1577.53 L82.5859 1543.66 Z" fill="#000000" fill-rule="nonzero" fill-opacity="1"></path><path clip-path="url(#clip720)" d="M45.442 1522.78 Q45.442 1527.11 48.402 1529.66 Q51.3621 1532.17 56.5183 1532.17 Q61.6427 1532.17 64.6346 1529.66 Q67.5946 1527.11 67.5946 1522.78 Q67.5946 1518.45 64.6346 1515.94 Q61.6427 1513.39 56.5183 1513.39 Q51.3621 1513.39 48.402 1515.94 Q45.442 1518.45 45.442 1522.78 M25.2945 1510.02 L31.1509 1510.02 Q30.0051 1512.44 29.4004 1514.92 Q28.7956 1517.37 28.7956 1519.79 Q28.7956 1526.16 33.0925 1529.53 Q37.3893 1532.87 46.0785 1533.35 Q43.3094 1531.47 41.8453 1528.64 Q40.3494 1525.81 40.3494 1522.4 Q40.3494 1515.24 44.7099 1511.1 Q49.0386 1506.93 56.5183 1506.93 Q63.8389 1506.93 68.263 1511.26 Q72.6872 1515.59 72.6872 1522.78 Q72.6872 1531.03 66.3851 1535.39 Q60.0513 1539.75 48.0519 1539.75 Q36.7846 1539.75 30.1006 1534.4 Q23.3848 1529.05 23.3848 1520.04 Q23.3848 1517.63 23.8622 1515.18 Q24.3396 1512.69 25.2945 1510.02 Z" fill="#000000" fill-rule="nonzero" fill-opacity="1"></path><path clip-path="url(#clip720)" d="M620.472 20.1573 L609.373 50.2555 L631.612 50.2555 L620.472 20.1573 M615.854 12.096 L625.131 12.096 L648.181 72.576 L639.674 72.576 L634.164 57.061 L606.902 57.061 L601.393 72.576 L592.764 72.576 L615.854 12.096 Z" fill="#000000" fill-rule="nonzero" fill-opacity="1"></path><path clip-path="url(#clip720)" d="M656.687 9.54393 L664.141 9.54393 L664.141 72.576 L656.687 72.576 L656.687 9.54393 Z" fill="#000000" fill-rule="nonzero" fill-opacity="1"></path><path clip-path="url(#clip720)" d="M709.592 49.3643 Q709.592 41.2625 706.23 36.8065 Q702.908 32.3505 696.872 32.3505 Q690.877 32.3505 687.515 36.8065 Q684.193 41.2625 684.193 49.3643 Q684.193 57.4256 687.515 61.8816 Q690.877 66.3376 696.872 66.3376 Q702.908 66.3376 706.23 61.8816 Q709.592 57.4256 709.592 49.3643 M717.046 66.9452 Q717.046 78.5308 711.901 84.1616 Q706.757 89.8329 696.143 89.8329 Q692.214 89.8329 688.73 89.2252 Q685.246 88.6581 681.965 87.4428 L681.965 80.1917 Q685.246 81.9741 688.447 82.8248 Q691.647 83.6755 694.968 83.6755 Q702.301 83.6755 705.946 79.8271 Q709.592 76.0193 709.592 68.282 L709.592 64.5957 Q707.283 68.6061 703.678 70.5911 Q700.073 72.576 695.049 72.576 Q686.705 72.576 681.6 66.2161 Q676.496 59.8562 676.496 49.3643 Q676.496 38.832 681.6 32.472 Q686.705 26.1121 695.049 26.1121 Q700.073 26.1121 703.678 28.0971 Q707.283 30.082 709.592 34.0924 L709.592 27.2059 L717.046 27.2059 L717.046 66.9452 Z" fill="#000000" fill-rule="nonzero" fill-opacity="1"></path><path clip-path="url(#clip720)" d="M771.206 48.0275 L771.206 51.6733 L736.936 51.6733 Q737.422 59.3701 741.554 63.421 Q745.726 67.4314 753.139 67.4314 Q757.433 67.4314 761.444 66.3781 Q765.495 65.3249 769.465 63.2184 L769.465 70.267 Q765.454 71.9684 761.241 72.8596 Q757.028 73.7508 752.694 73.7508 Q741.837 73.7508 735.478 67.4314 Q729.158 61.1119 729.158 50.3365 Q729.158 39.1965 735.153 32.6746 Q741.189 26.1121 751.398 26.1121 Q760.553 26.1121 765.859 32.0264 Q771.206 37.9003 771.206 48.0275 M763.753 45.84 Q763.672 39.7232 760.31 36.0774 Q756.988 32.4315 751.479 32.4315 Q745.24 32.4315 741.473 35.9558 Q737.746 39.4801 737.179 45.8805 L763.753 45.84 Z" fill="#000000" fill-rule="nonzero" fill-opacity="1"></path><path clip-path="url(#clip720)" d="M816.009 49.9314 Q816.009 41.7081 812.607 37.0496 Q809.244 32.3505 803.33 32.3505 Q797.416 32.3505 794.013 37.0496 Q790.651 41.7081 790.651 49.9314 Q790.651 58.1548 794.013 62.8538 Q797.416 67.5124 803.33 67.5124 Q809.244 67.5124 812.607 62.8538 Q816.009 58.1548 816.009 49.9314 M790.651 34.0924 Q793 30.0415 796.565 28.0971 Q800.17 26.1121 805.153 26.1121 Q813.417 26.1121 818.562 32.6746 Q823.747 39.2371 823.747 49.9314 Q823.747 60.6258 818.562 67.1883 Q813.417 73.7508 805.153 73.7508 Q800.17 73.7508 796.565 71.8063 Q793 69.8214 790.651 65.7705 L790.651 72.576 L783.157 72.576 L783.157 9.54393 L790.651 9.54393 L790.651 34.0924 Z" fill="#000000" fill-rule="nonzero" fill-opacity="1"></path><path clip-path="url(#clip720)" d="M862.392 34.1734 Q861.137 33.4443 859.638 33.1202 Q858.179 32.7556 856.397 32.7556 Q850.078 32.7556 846.675 36.8875 Q843.313 40.9789 843.313 48.6757 L843.313 72.576 L835.818 72.576 L835.818 27.2059 L843.313 27.2059 L843.313 34.2544 Q845.662 30.1225 849.429 28.1376 Q853.197 26.1121 858.584 26.1121 Q859.354 26.1121 860.286 26.2337 Q861.218 26.3147 862.352 26.5172 L862.392 34.1734 Z" fill="#000000" fill-rule="nonzero" fill-opacity="1"></path><path clip-path="url(#clip720)" d="M890.83 49.7694 Q881.796 49.7694 878.312 51.8354 Q874.829 53.9013 874.829 58.8839 Q874.829 62.8538 877.421 65.2034 Q880.054 67.5124 884.551 67.5124 Q890.749 67.5124 894.476 63.1374 Q898.243 58.7219 898.243 51.4303 L898.243 49.7694 L890.83 49.7694 M905.697 46.6907 L905.697 72.576 L898.243 72.576 L898.243 65.6895 Q895.691 69.8214 891.883 71.8063 Q888.075 73.7508 882.566 73.7508 Q875.598 73.7508 871.466 69.8619 Q867.375 65.9325 867.375 59.3701 Q867.375 51.7138 872.479 47.825 Q877.624 43.9361 887.792 43.9361 L898.243 43.9361 L898.243 43.2069 Q898.243 38.0623 894.84 35.2672 Q891.478 32.4315 885.361 32.4315 Q881.472 32.4315 877.786 33.3632 Q874.099 34.295 870.697 36.1584 L870.697 29.2718 Q874.788 27.692 878.636 26.9223 Q882.485 26.1121 886.131 26.1121 Q895.974 26.1121 900.835 31.2163 Q905.697 36.3204 905.697 46.6907 Z" fill="#000000" fill-rule="nonzero" fill-opacity="1"></path><path clip-path="url(#clip720)" d="M921.049 27.2059 L928.503 27.2059 L928.503 72.576 L921.049 72.576 L921.049 27.2059 M921.049 9.54393 L928.503 9.54393 L928.503 18.9825 L921.049 18.9825 L921.049 9.54393 Z" fill="#000000" fill-rule="nonzero" fill-opacity="1"></path><path clip-path="url(#clip720)" d="M976.749 28.9478 L976.749 35.9153 Q973.59 34.1734 970.389 33.3227 Q967.23 32.4315 963.989 32.4315 Q956.738 32.4315 952.728 37.0496 Q948.717 41.6271 948.717 49.9314 Q948.717 58.2358 952.728 62.8538 Q956.738 67.4314 963.989 67.4314 Q967.23 67.4314 970.389 66.5807 Q973.59 65.6895 976.749 63.9476 L976.749 70.8341 Q973.63 72.2924 970.268 73.0216 Q966.946 73.7508 963.179 73.7508 Q952.93 73.7508 946.894 67.3098 Q940.858 60.8689 940.858 49.9314 Q940.858 38.832 946.935 32.472 Q953.052 26.1121 963.665 26.1121 Q967.108 26.1121 970.389 26.8413 Q973.671 27.5299 976.749 28.9478 Z" fill="#000000" fill-rule="nonzero" fill-opacity="1"></path><path clip-path="url(#clip720)" d="M1010.74 27.2059 L1018.64 27.2059 L1032.81 65.2844 L1046.99 27.2059 L1054.89 27.2059 L1037.88 72.576 L1027.75 72.576 L1010.74 27.2059 Z" fill="#000000" fill-rule="nonzero" fill-opacity="1"></path><path clip-path="url(#clip720)" d="M1085.8 49.7694 Q1076.77 49.7694 1073.28 51.8354 Q1069.8 53.9013 1069.8 58.8839 Q1069.8 62.8538 1072.39 65.2034 Q1075.02 67.5124 1079.52 67.5124 Q1085.72 67.5124 1089.45 63.1374 Q1093.21 58.7219 1093.21 51.4303 L1093.21 49.7694 L1085.8 49.7694 M1100.67 46.6907 L1100.67 72.576 L1093.21 72.576 L1093.21 65.6895 Q1090.66 69.8214 1086.85 71.8063 Q1083.05 73.7508 1077.54 73.7508 Q1070.57 73.7508 1066.44 69.8619 Q1062.34 65.9325 1062.34 59.3701 Q1062.34 51.7138 1067.45 47.825 Q1072.59 43.9361 1082.76 43.9361 L1093.21 43.9361 L1093.21 43.2069 Q1093.21 38.0623 1089.81 35.2672 Q1086.45 32.4315 1080.33 32.4315 Q1076.44 32.4315 1072.76 33.3632 Q1069.07 34.295 1065.67 36.1584 L1065.67 29.2718 Q1069.76 27.692 1073.61 26.9223 Q1077.45 26.1121 1081.1 26.1121 Q1090.94 26.1121 1095.81 31.2163 Q1100.67 36.3204 1100.67 46.6907 Z" fill="#000000" fill-rule="nonzero" fill-opacity="1"></path><path clip-path="url(#clip720)" d="M1142.31 34.1734 Q1141.05 33.4443 1139.56 33.1202 Q1138.1 32.7556 1136.31 32.7556 Q1130 32.7556 1126.59 36.8875 Q1123.23 40.9789 1123.23 48.6757 L1123.23 72.576 L1115.74 72.576 L1115.74 27.2059 L1123.23 27.2059 L1123.23 34.2544 Q1125.58 30.1225 1129.35 28.1376 Q1133.11 26.1121 1138.5 26.1121 Q1139.27 26.1121 1140.2 26.2337 Q1141.14 26.3147 1142.27 26.5172 L1142.31 34.1734 Z" fill="#000000" fill-rule="nonzero" fill-opacity="1"></path><path clip-path="url(#clip720)" d="M1150.13 27.2059 L1157.58 27.2059 L1157.58 72.576 L1150.13 72.576 L1150.13 27.2059 M1150.13 9.54393 L1157.58 9.54393 L1157.58 18.9825 L1150.13 18.9825 L1150.13 9.54393 Z" fill="#000000" fill-rule="nonzero" fill-opacity="1"></path><path clip-path="url(#clip720)" d="M1211.99 48.0275 L1211.99 51.6733 L1177.71 51.6733 Q1178.2 59.3701 1182.33 63.421 Q1186.51 67.4314 1193.92 67.4314 Q1198.21 67.4314 1202.22 66.3781 Q1206.27 65.3249 1210.24 63.2184 L1210.24 70.267 Q1206.23 71.9684 1202.02 72.8596 Q1197.81 73.7508 1193.47 73.7508 Q1182.62 73.7508 1176.26 67.4314 Q1169.94 61.1119 1169.94 50.3365 Q1169.94 39.1965 1175.93 32.6746 Q1181.97 26.1121 1192.18 26.1121 Q1201.33 26.1121 1206.64 32.0264 Q1211.99 37.9003 1211.99 48.0275 M1204.53 45.84 Q1204.45 39.7232 1201.09 36.0774 Q1197.77 32.4315 1192.26 32.4315 Q1186.02 32.4315 1182.25 35.9558 Q1178.52 39.4801 1177.96 45.8805 L1204.53 45.84 Z" fill="#000000" fill-rule="nonzero" fill-opacity="1"></path><path clip-path="url(#clip720)" d="M1231.59 14.324 L1231.59 27.2059 L1246.94 27.2059 L1246.94 32.9987 L1231.59 32.9987 L1231.59 57.6282 Q1231.59 63.1779 1233.09 64.7578 Q1234.63 66.3376 1239.29 66.3376 L1246.94 66.3376 L1246.94 72.576 L1239.29 72.576 Q1230.66 72.576 1227.38 69.3758 Q1224.1 66.1351 1224.1 57.6282 L1224.1 32.9987 L1218.63 32.9987 L1218.63 27.2059 L1224.1 27.2059 L1224.1 14.324 L1231.59 14.324 Z" fill="#000000" fill-rule="nonzero" fill-opacity="1"></path><path clip-path="url(#clip720)" d="M1275.63 76.7889 Q1272.47 84.8907 1269.47 87.3618 Q1266.47 89.8329 1261.45 89.8329 L1255.49 89.8329 L1255.49 83.5945 L1259.87 83.5945 Q1262.95 83.5945 1264.65 82.1361 Q1266.35 80.6778 1268.41 75.2496 L1269.75 71.8468 L1251.4 27.2059 L1259.3 27.2059 L1273.48 62.6918 L1287.66 27.2059 L1295.56 27.2059 L1275.63 76.7889 Z" fill="#000000" fill-rule="nonzero" fill-opacity="1"></path><path clip-path="url(#clip720)" d="M1340.32 65.6895 L1368.88 65.6895 L1368.88 72.576 L1330.47 72.576 L1330.47 65.6895 Q1335.13 60.8689 1343.15 52.7671 Q1351.21 44.6248 1353.28 42.2752 Q1357.21 37.8598 1358.75 34.8216 Q1360.33 31.7429 1360.33 28.7857 Q1360.33 23.9651 1356.93 20.927 Q1353.56 17.8888 1348.14 17.8888 Q1344.29 17.8888 1339.99 19.2256 Q1335.74 20.5624 1330.88 23.2765 L1330.88 15.0127 Q1335.82 13.0277 1340.12 12.015 Q1344.41 11.0023 1347.97 11.0023 Q1357.37 11.0023 1362.96 15.7013 Q1368.55 20.4004 1368.55 28.2591 Q1368.55 31.9859 1367.14 35.3482 Q1365.76 38.6699 1362.07 43.2069 Q1361.06 44.3817 1355.63 50.0125 Q1350.2 55.6027 1340.32 65.6895 Z" fill="#000000" fill-rule="nonzero" fill-opacity="1"></path><path clip-path="url(#clip720)" d="M1414.85 34.0924 L1414.85 9.54393 L1422.31 9.54393 L1422.31 72.576 L1414.85 72.576 L1414.85 65.7705 Q1412.51 69.8214 1408.9 71.8063 Q1405.34 73.7508 1400.31 73.7508 Q1392.09 73.7508 1386.9 67.1883 Q1381.76 60.6258 1381.76 49.9314 Q1381.76 39.2371 1386.9 32.6746 Q1392.09 26.1121 1400.31 26.1121 Q1405.34 26.1121 1408.9 28.0971 Q1412.51 30.0415 1414.85 34.0924 M1389.46 49.9314 Q1389.46 58.1548 1392.82 62.8538 Q1396.22 67.5124 1402.13 67.5124 Q1408.05 67.5124 1411.45 62.8538 Q1414.85 58.1548 1414.85 49.9314 Q1414.85 41.7081 1411.45 37.0496 Q1408.05 32.3505 1402.13 32.3505 Q1396.22 32.3505 1392.82 37.0496 Q1389.46 41.7081 1389.46 49.9314 Z" fill="#000000" fill-rule="nonzero" fill-opacity="1"></path><path clip-path="url(#clip720)" d="M1471.24 65.7705 L1471.24 89.8329 L1463.75 89.8329 L1463.75 27.2059 L1471.24 27.2059 L1471.24 34.0924 Q1473.59 30.0415 1477.16 28.0971 Q1480.76 26.1121 1485.75 26.1121 Q1494.01 26.1121 1499.15 32.6746 Q1504.34 39.2371 1504.34 49.9314 Q1504.34 60.6258 1499.15 67.1883 Q1494.01 73.7508 1485.75 73.7508 Q1480.76 73.7508 1477.16 71.8063 Q1473.59 69.8214 1471.24 65.7705 M1496.6 49.9314 Q1496.6 41.7081 1493.2 37.0496 Q1489.84 32.3505 1483.92 32.3505 Q1478.01 32.3505 1474.61 37.0496 Q1471.24 41.7081 1471.24 49.9314 Q1471.24 58.1548 1474.61 62.8538 Q1478.01 67.5124 1483.92 67.5124 Q1489.84 67.5124 1493.2 62.8538 Q1496.6 58.1548 1496.6 49.9314 Z" fill="#000000" fill-rule="nonzero" fill-opacity="1"></path><path clip-path="url(#clip720)" d="M1542.98 34.1734 Q1541.73 33.4443 1540.23 33.1202 Q1538.77 32.7556 1536.99 32.7556 Q1530.67 32.7556 1527.27 36.8875 Q1523.91 40.9789 1523.91 48.6757 L1523.91 72.576 L1516.41 72.576 L1516.41 27.2059 L1523.91 27.2059 L1523.91 34.2544 Q1526.25 30.1225 1530.02 28.1376 Q1533.79 26.1121 1539.18 26.1121 Q1539.95 26.1121 1540.88 26.2337 Q1541.81 26.3147 1542.94 26.5172 L1542.98 34.1734 Z" fill="#000000" fill-rule="nonzero" fill-opacity="1"></path><path clip-path="url(#clip720)" d="M1566.56 32.4315 Q1560.57 32.4315 1557.08 37.1306 Q1553.6 41.7891 1553.6 49.9314 Q1553.6 58.0738 1557.04 62.7728 Q1560.53 67.4314 1566.56 67.4314 Q1572.52 67.4314 1576 62.7323 Q1579.48 58.0333 1579.48 49.9314 Q1579.48 41.8701 1576 37.1711 Q1572.52 32.4315 1566.56 32.4315 M1566.56 26.1121 Q1576.28 26.1121 1581.83 32.4315 Q1587.38 38.7509 1587.38 49.9314 Q1587.38 61.0714 1581.83 67.4314 Q1576.28 73.7508 1566.56 73.7508 Q1556.8 73.7508 1551.25 67.4314 Q1545.74 61.0714 1545.74 49.9314 Q1545.74 38.7509 1551.25 32.4315 Q1556.8 26.1121 1566.56 26.1121 Z" fill="#000000" fill-rule="nonzero" fill-opacity="1"></path><path clip-path="url(#clip720)" d="M1599.74 27.2059 L1607.19 27.2059 L1607.19 73.3862 Q1607.19 82.0551 1603.87 85.944 Q1600.59 89.8329 1593.26 89.8329 L1590.42 89.8329 L1590.42 83.5134 L1592.41 83.5134 Q1596.66 83.5134 1598.2 81.5285 Q1599.74 79.5841 1599.74 73.3862 L1599.74 27.2059 M1599.74 9.54393 L1607.19 9.54393 L1607.19 18.9825 L1599.74 18.9825 L1599.74 9.54393 Z" fill="#000000" fill-rule="nonzero" fill-opacity="1"></path><path clip-path="url(#clip720)" d="M1661.6 48.0275 L1661.6 51.6733 L1627.32 51.6733 Q1627.81 59.3701 1631.94 63.421 Q1636.12 67.4314 1643.53 67.4314 Q1647.82 67.4314 1651.83 66.3781 Q1655.88 65.3249 1659.85 63.2184 L1659.85 70.267 Q1655.84 71.9684 1651.63 72.8596 Q1647.42 73.7508 1643.08 73.7508 Q1632.23 73.7508 1625.87 67.4314 Q1619.55 61.1119 1619.55 50.3365 Q1619.55 39.1965 1625.54 32.6746 Q1631.58 26.1121 1641.79 26.1121 Q1650.94 26.1121 1656.25 32.0264 Q1661.6 37.9003 1661.6 48.0275 M1654.14 45.84 Q1654.06 39.7232 1650.7 36.0774 Q1647.38 32.4315 1641.87 32.4315 Q1635.63 32.4315 1631.86 35.9558 Q1628.13 39.4801 1627.57 45.8805 L1654.14 45.84 Z" fill="#000000" fill-rule="nonzero" fill-opacity="1"></path><path clip-path="url(#clip720)" d="M1706.48 28.9478 L1706.48 35.9153 Q1703.32 34.1734 1700.12 33.3227 Q1696.96 32.4315 1693.72 32.4315 Q1686.47 32.4315 1682.46 37.0496 Q1678.45 41.6271 1678.45 49.9314 Q1678.45 58.2358 1682.46 62.8538 Q1686.47 67.4314 1693.72 67.4314 Q1696.96 67.4314 1700.12 66.5807 Q1703.32 65.6895 1706.48 63.9476 L1706.48 70.8341 Q1703.36 72.2924 1700 73.0216 Q1696.68 73.7508 1692.91 73.7508 Q1682.66 73.7508 1676.62 67.3098 Q1670.59 60.8689 1670.59 49.9314 Q1670.59 38.832 1676.66 32.472 Q1682.78 26.1121 1693.39 26.1121 Q1696.84 26.1121 1700.12 26.8413 Q1703.4 27.5299 1706.48 28.9478 Z" fill="#000000" fill-rule="nonzero" fill-opacity="1"></path><path clip-path="url(#clip720)" d="M1726.81 14.324 L1726.81 27.2059 L1742.17 27.2059 L1742.17 32.9987 L1726.81 32.9987 L1726.81 57.6282 Q1726.81 63.1779 1728.31 64.7578 Q1729.85 66.3376 1734.51 66.3376 L1742.17 66.3376 L1742.17 72.576 L1734.51 72.576 Q1725.88 72.576 1722.6 69.3758 Q1719.32 66.1351 1719.32 57.6282 L1719.32 32.9987 L1713.85 32.9987 L1713.85 27.2059 L1719.32 27.2059 L1719.32 14.324 L1726.81 14.324 Z" fill="#000000" fill-rule="nonzero" fill-opacity="1"></path><path clip-path="url(#clip720)" d="M1751.97 27.2059 L1759.42 27.2059 L1759.42 72.576 L1751.97 72.576 L1751.97 27.2059 M1751.97 9.54393 L1759.42 9.54393 L1759.42 18.9825 L1751.97 18.9825 L1751.97 9.54393 Z" fill="#000000" fill-rule="nonzero" fill-opacity="1"></path><path clip-path="url(#clip720)" d="M1792.6 32.4315 Q1786.61 32.4315 1783.12 37.1306 Q1779.64 41.7891 1779.64 49.9314 Q1779.64 58.0738 1783.08 62.7728 Q1786.57 67.4314 1792.6 67.4314 Q1798.56 67.4314 1802.04 62.7323 Q1805.52 58.0333 1805.52 49.9314 Q1805.52 41.8701 1802.04 37.1711 Q1798.56 32.4315 1792.6 32.4315 M1792.6 26.1121 Q1802.32 26.1121 1807.87 32.4315 Q1813.42 38.7509 1813.42 49.9314 Q1813.42 61.0714 1807.87 67.4314 Q1802.32 73.7508 1792.6 73.7508 Q1782.84 73.7508 1777.29 67.4314 Q1771.78 61.0714 1771.78 49.9314 Q1771.78 38.7509 1777.29 32.4315 Q1782.84 26.1121 1792.6 26.1121 Z" fill="#000000" fill-rule="nonzero" fill-opacity="1"></path><path clip-path="url(#clip720)" d="M1863.49 45.1919 L1863.49 72.576 L1856.04 72.576 L1856.04 45.4349 Q1856.04 38.994 1853.53 35.7938 Q1851.02 32.5936 1845.99 32.5936 Q1839.96 32.5936 1836.47 36.4419 Q1832.99 40.2903 1832.99 46.9338 L1832.99 72.576 L1825.49 72.576 L1825.49 27.2059 L1832.99 27.2059 L1832.99 34.2544 Q1835.66 30.163 1839.27 28.1376 Q1842.91 26.1121 1847.65 26.1121 Q1855.47 26.1121 1859.48 30.9732 Q1863.49 35.7938 1863.49 45.1919 Z" fill="#000000" fill-rule="nonzero" fill-opacity="1"></path><path clip-path="url(#clip720)" d="M1879.41 62.2867 L1887.96 62.2867 L1887.96 72.576 L1879.41 72.576 L1879.41 62.2867 Z" fill="#000000" fill-rule="nonzero" fill-opacity="1"></path><path clip-path="url(#clip720)" d="M1931.43 12.096 L1966.18 12.096 L1966.18 18.9825 L1939.61 18.9825 L1939.61 36.8065 L1963.59 36.8065 L1963.59 43.6931 L1939.61 43.6931 L1939.61 72.576 L1931.43 72.576 L1931.43 12.096 Z" fill="#000000" fill-rule="nonzero" fill-opacity="1"></path><path clip-path="url(#clip720)" d="M1972.79 27.2059 L1980.24 27.2059 L1980.24 72.576 L1972.79 72.576 L1972.79 27.2059 M1972.79 9.54393 L1980.24 9.54393 L1980.24 18.9825 L1972.79 18.9825 L1972.79 9.54393 Z" fill="#000000" fill-rule="nonzero" fill-opacity="1"></path><path clip-path="url(#clip720)" d="M2033.55 27.2059 L2017.14 49.2833 L2034.4 72.576 L2025.61 72.576 L2012.4 54.752 L1999.2 72.576 L1990.41 72.576 L2008.03 48.8377 L1991.91 27.2059 L2000.7 27.2059 L2012.73 43.369 L2024.76 27.2059 L2033.55 27.2059 Z" fill="#000000" fill-rule="nonzero" fill-opacity="1"></path><path clip-path="url(#clip720)" d="M2081.19 48.0275 L2081.19 51.6733 L2046.92 51.6733 Q2047.4 59.3701 2051.54 63.421 Q2055.71 67.4314 2063.12 67.4314 Q2067.41 67.4314 2071.43 66.3781 Q2075.48 65.3249 2079.45 63.2184 L2079.45 70.267 Q2075.44 71.9684 2071.22 72.8596 Q2067.01 73.7508 2062.68 73.7508 Q2051.82 73.7508 2045.46 67.4314 Q2039.14 61.1119 2039.14 50.3365 Q2039.14 39.1965 2045.13 32.6746 Q2051.17 26.1121 2061.38 26.1121 Q2070.53 26.1121 2075.84 32.0264 Q2081.19 37.9003 2081.19 48.0275 M2073.73 45.84 Q2073.65 39.7232 2070.29 36.0774 Q2066.97 32.4315 2061.46 32.4315 Q2055.22 32.4315 2051.45 35.9558 Q2047.73 39.4801 2047.16 45.8805 L2073.73 45.84 Z" fill="#000000" fill-rule="nonzero" fill-opacity="1"></path><path clip-path="url(#clip720)" d="M2123.28 34.0924 L2123.28 9.54393 L2130.73 9.54393 L2130.73 72.576 L2123.28 72.576 L2123.28 65.7705 Q2120.93 69.8214 2117.32 71.8063 Q2113.76 73.7508 2108.73 73.7508 Q2100.51 73.7508 2095.33 67.1883 Q2090.18 60.6258 2090.18 49.9314 Q2090.18 39.2371 2095.33 32.6746 Q2100.51 26.1121 2108.73 26.1121 Q2113.76 26.1121 2117.32 28.0971 Q2120.93 30.0415 2123.28 34.0924 M2097.88 49.9314 Q2097.88 58.1548 2101.24 62.8538 Q2104.64 67.5124 2110.56 67.5124 Q2116.47 67.5124 2119.87 62.8538 Q2123.28 58.1548 2123.28 49.9314 Q2123.28 41.7081 2119.87 37.0496 Q2116.47 32.3505 2110.56 32.3505 Q2104.64 32.3505 2101.24 37.0496 Q2097.88 41.7081 2097.88 49.9314 Z" fill="#000000" fill-rule="nonzero" fill-opacity="1"></path><path clip-path="url(#clip720)" d="M2205.11 28.9478 L2205.11 35.9153 Q2201.95 34.1734 2198.75 33.3227 Q2195.59 32.4315 2192.34 32.4315 Q2185.09 32.4315 2181.08 37.0496 Q2177.07 41.6271 2177.07 49.9314 Q2177.07 58.2358 2181.08 62.8538 Q2185.09 67.4314 2192.34 67.4314 Q2195.59 67.4314 2198.75 66.5807 Q2201.95 65.6895 2205.11 63.9476 L2205.11 70.8341 Q2201.99 72.2924 2198.62 73.0216 Q2195.3 73.7508 2191.53 73.7508 Q2181.29 73.7508 2175.25 67.3098 Q2169.21 60.8689 2169.21 49.9314 Q2169.21 38.832 2175.29 32.472 Q2181.41 26.1121 2192.02 26.1121 Q2195.46 26.1121 2198.75 26.8413 Q2202.03 27.5299 2205.11 28.9478 Z" fill="#000000" fill-rule="nonzero" fill-opacity="1"></path><path clip-path="url(#clip720)" d="M2235.65 32.4315 Q2229.65 32.4315 2226.17 37.1306 Q2222.69 41.7891 2222.69 49.9314 Q2222.69 58.0738 2226.13 62.7728 Q2229.61 67.4314 2235.65 67.4314 Q2241.6 67.4314 2245.09 62.7323 Q2248.57 58.0333 2248.57 49.9314 Q2248.57 41.8701 2245.09 37.1711 Q2241.6 32.4315 2235.65 32.4315 M2235.65 26.1121 Q2245.37 26.1121 2250.92 32.4315 Q2256.47 38.7509 2256.47 49.9314 Q2256.47 61.0714 2250.92 67.4314 Q2245.37 73.7508 2235.65 73.7508 Q2225.89 73.7508 2220.34 67.4314 Q2214.83 61.0714 2214.83 49.9314 Q2214.83 38.7509 2220.34 32.4315 Q2225.89 26.1121 2235.65 26.1121 Z" fill="#000000" fill-rule="nonzero" fill-opacity="1"></path><path clip-path="url(#clip720)" d="M2307.63 48.0275 L2307.63 51.6733 L2273.36 51.6733 Q2273.85 59.3701 2277.98 63.421 Q2282.15 67.4314 2289.57 67.4314 Q2293.86 67.4314 2297.87 66.3781 Q2301.92 65.3249 2305.89 63.2184 L2305.89 70.267 Q2301.88 71.9684 2297.67 72.8596 Q2293.46 73.7508 2289.12 73.7508 Q2278.26 73.7508 2271.9 67.4314 Q2265.59 61.1119 2265.59 50.3365 Q2265.59 39.1965 2271.58 32.6746 Q2277.62 26.1121 2287.82 26.1121 Q2296.98 26.1121 2302.29 32.0264 Q2307.63 37.9003 2307.63 48.0275 M2300.18 45.84 Q2300.1 39.7232 2296.74 36.0774 Q2293.41 32.4315 2287.91 32.4315 Q2281.67 32.4315 2277.9 35.9558 Q2274.17 39.4801 2273.61 45.8805 L2300.18 45.84 Z" fill="#000000" fill-rule="nonzero" fill-opacity="1"></path><path clip-path="url(#clip720)" d="M2342.84 9.54393 L2342.84 15.7418 L2335.71 15.7418 Q2331.7 15.7418 2330.12 17.3622 Q2328.58 18.9825 2328.58 23.1955 L2328.58 27.2059 L2340.85 27.2059 L2340.85 32.9987 L2328.58 32.9987 L2328.58 72.576 L2321.08 72.576 L2321.08 32.9987 L2313.95 32.9987 L2313.95 27.2059 L2321.08 27.2059 L2321.08 24.0462 Q2321.08 16.471 2324.61 13.0277 Q2328.13 9.54393 2335.79 9.54393 L2342.84 9.54393 Z" fill="#000000" fill-rule="nonzero" fill-opacity="1"></path><path clip-path="url(#clip720)" d="M2372.04 9.54393 L2372.04 15.7418 L2364.91 15.7418 Q2360.9 15.7418 2359.32 17.3622 Q2357.78 18.9825 2357.78 23.1955 L2357.78 27.2059 L2370.06 27.2059 L2370.06 32.9987 L2357.78 32.9987 L2357.78 72.576 L2350.29 72.576 L2350.29 32.9987 L2343.16 32.9987 L2343.16 27.2059 L2350.29 27.2059 L2350.29 24.0462 Q2350.29 16.471 2353.81 13.0277 Q2357.34 9.54393 2364.99 9.54393 L2372.04 9.54393 Z" fill="#000000" fill-rule="nonzero" fill-opacity="1"></path><path clip-path="url(#clip720)" d="M2378.28 27.2059 L2385.73 27.2059 L2385.73 72.576 L2378.28 72.576 L2378.28 27.2059 M2378.28 9.54393 L2385.73 9.54393 L2385.73 18.9825 L2378.28 18.9825 L2378.28 9.54393 Z" fill="#000000" fill-rule="nonzero" fill-opacity="1"></path><path clip-path="url(#clip720)" d="M2433.98 28.9478 L2433.98 35.9153 Q2430.82 34.1734 2427.62 33.3227 Q2424.46 32.4315 2421.22 32.4315 Q2413.97 32.4315 2409.96 37.0496 Q2405.95 41.6271 2405.95 49.9314 Q2405.95 58.2358 2409.96 62.8538 Q2413.97 67.4314 2421.22 67.4314 Q2424.46 67.4314 2427.62 66.5807 Q2430.82 65.6895 2433.98 63.9476 L2433.98 70.8341 Q2430.86 72.2924 2427.5 73.0216 Q2424.18 73.7508 2420.41 73.7508 Q2410.16 73.7508 2404.13 67.3098 Q2398.09 60.8689 2398.09 49.9314 Q2398.09 38.832 2404.17 32.472 Q2410.28 26.1121 2420.9 26.1121 Q2424.34 26.1121 2427.62 26.8413 Q2430.9 27.5299 2433.98 28.9478 Z" fill="#000000" fill-rule="nonzero" fill-opacity="1"></path><path clip-path="url(#clip720)" d="M2446.94 27.2059 L2454.4 27.2059 L2454.4 72.576 L2446.94 72.576 L2446.94 27.2059 M2446.94 9.54393 L2454.4 9.54393 L2454.4 18.9825 L2446.94 18.9825 L2446.94 9.54393 Z" fill="#000000" fill-rule="nonzero" fill-opacity="1"></path><path clip-path="url(#clip720)" d="M2508.8 48.0275 L2508.8 51.6733 L2474.53 51.6733 Q2475.02 59.3701 2479.15 63.421 Q2483.32 67.4314 2490.73 67.4314 Q2495.03 67.4314 2499.04 66.3781 Q2503.09 65.3249 2507.06 63.2184 L2507.06 70.267 Q2503.05 71.9684 2498.84 72.8596 Q2494.62 73.7508 2490.29 73.7508 Q2479.43 73.7508 2473.07 67.4314 Q2466.75 61.1119 2466.75 50.3365 Q2466.75 39.1965 2472.75 32.6746 Q2478.78 26.1121 2488.99 26.1121 Q2498.15 26.1121 2503.45 32.0264 Q2508.8 37.9003 2508.8 48.0275 M2501.35 45.84 Q2501.27 39.7232 2497.9 36.0774 Q2494.58 32.4315 2489.07 32.4315 Q2482.84 32.4315 2479.07 35.9558 Q2475.34 39.4801 2474.77 45.8805 L2501.35 45.84 Z" fill="#000000" fill-rule="nonzero" fill-opacity="1"></path><path clip-path="url(#clip720)" d="M2558.75 45.1919 L2558.75 72.576 L2551.3 72.576 L2551.3 45.4349 Q2551.3 38.994 2548.78 35.7938 Q2546.27 32.5936 2541.25 32.5936 Q2535.21 32.5936 2531.73 36.4419 Q2528.25 40.2903 2528.25 46.9338 L2528.25 72.576 L2520.75 72.576 L2520.75 27.2059 L2528.25 27.2059 L2528.25 34.2544 Q2530.92 30.163 2534.52 28.1376 Q2538.17 26.1121 2542.91 26.1121 Q2550.73 26.1121 2554.74 30.9732 Q2558.75 35.7938 2558.75 45.1919 Z" fill="#000000" fill-rule="nonzero" fill-opacity="1"></path><path clip-path="url(#clip720)" d="M2580.99 14.324 L2580.99 27.2059 L2596.34 27.2059 L2596.34 32.9987 L2580.99 32.9987 L2580.99 57.6282 Q2580.99 63.1779 2582.49 64.7578 Q2584.03 66.3376 2588.69 66.3376 L2596.34 66.3376 L2596.34 72.576 L2588.69 72.576 Q2580.06 72.576 2576.78 69.3758 Q2573.49 66.1351 2573.49 57.6282 L2573.49 32.9987 L2568.03 32.9987 L2568.03 27.2059 L2573.49 27.2059 L2573.49 14.324 L2580.99 14.324 Z" fill="#000000" fill-rule="nonzero" fill-opacity="1"></path><path clip-path="url(#clip720)" d="M2635.07 28.5427 L2635.07 35.5912 Q2631.91 33.9709 2628.51 33.1607 Q2625.1 32.3505 2621.46 32.3505 Q2615.91 32.3505 2613.11 34.0519 Q2610.36 35.7533 2610.36 39.156 Q2610.36 41.7486 2612.34 43.2475 Q2614.33 44.7058 2620.32 46.0426 L2622.87 46.6097 Q2630.81 48.3111 2634.14 51.4303 Q2637.5 54.509 2637.5 60.0587 Q2637.5 66.3781 2632.48 70.0644 Q2627.49 73.7508 2618.74 73.7508 Q2615.1 73.7508 2611.13 73.0216 Q2607.2 72.3329 2602.82 70.9151 L2602.82 63.2184 Q2606.95 65.3654 2610.97 66.4591 Q2614.98 67.5124 2618.9 67.5124 Q2624.17 67.5124 2627.01 65.73 Q2629.84 63.9071 2629.84 60.6258 Q2629.84 57.5877 2627.78 55.9673 Q2625.75 54.3469 2618.82 52.8481 L2616.23 52.2405 Q2609.3 50.7821 2606.23 47.7845 Q2603.15 44.7463 2603.15 39.4801 Q2603.15 33.0797 2607.68 29.5959 Q2612.22 26.1121 2620.57 26.1121 Q2624.7 26.1121 2628.34 26.7198 Q2631.99 27.3274 2635.07 28.5427 Z" fill="#000000" fill-rule="nonzero" fill-opacity="1"></path><path clip-path="url(#clip720)" d="M2651.27 62.2867 L2659.82 62.2867 L2659.82 72.576 L2651.27 72.576 L2651.27 62.2867 M2651.27 29.6769 L2659.82 29.6769 L2659.82 39.9662 L2651.27 39.9662 L2651.27 29.6769 Z" fill="#000000" fill-rule="nonzero" fill-opacity="1"></path><path clip-path="url(#clip720)" d="M2706.16 65.6895 L2719.53 65.6895 L2719.53 19.5497 L2704.99 22.4663 L2704.99 15.0127 L2719.45 12.096 L2727.63 12.096 L2727.63 65.6895 L2741 65.6895 L2741 72.576 L2706.16 72.576 L2706.16 65.6895 Z" fill="#000000" fill-rule="nonzero" fill-opacity="1"></path><path clip-path="url(#clip720)" d="M2758.38 62.2867 L2766.92 62.2867 L2766.92 69.2543 L2760.28 82.2172 L2755.06 82.2172 L2758.38 69.2543 L2758.38 62.2867 Z" fill="#000000" fill-rule="nonzero" fill-opacity="1"></path><path clip-path="url(#clip720)" d="M2828.78 39.075 Q2823.27 39.075 2820.03 42.8424 Q2816.83 46.6097 2816.83 53.1722 Q2816.83 59.6941 2820.03 63.502 Q2823.27 67.2693 2828.78 67.2693 Q2834.29 67.2693 2837.49 63.502 Q2840.73 59.6941 2840.73 53.1722 Q2840.73 46.6097 2837.49 42.8424 Q2834.29 39.075 2828.78 39.075 M2845.03 13.4328 L2845.03 20.8865 Q2841.95 19.4281 2838.79 18.6585 Q2835.67 17.8888 2832.59 17.8888 Q2824.49 17.8888 2820.19 23.3575 Q2815.94 28.8262 2815.33 39.8852 Q2817.72 36.3609 2821.33 34.4975 Q2824.93 32.5936 2829.27 32.5936 Q2838.38 32.5936 2843.65 38.1433 Q2848.96 43.6525 2848.96 53.1722 Q2848.96 62.4892 2843.45 68.12 Q2837.94 73.7508 2828.78 73.7508 Q2818.29 73.7508 2812.74 65.73 Q2807.19 57.6687 2807.19 42.3968 Q2807.19 28.0566 2814 19.5497 Q2820.8 11.0023 2832.27 11.0023 Q2835.34 11.0023 2838.46 11.6099 Q2841.62 12.2175 2845.03 13.4328 Z" fill="#000000" fill-rule="nonzero" fill-opacity="1"></path><circle clip-path="url(#clip722)" cx="1004.91" cy="2614.59" r="14.4" fill="#009af9" fill-rule="evenodd" fill-opacity="1" stroke="#000000" stroke-opacity="1" stroke-width="6.4"></circle>
<circle clip-path="url(#clip722)" cx="1004.91" cy="2526.7" r="14.4" fill="#009af9" fill-rule="evenodd" fill-opacity="1" stroke="#000000" stroke-opacity="1" stroke-width="6.4"></circle>
<circle clip-path="url(#clip722)" cx="1004.91" cy="2438.81" r="14.4" fill="#009af9" fill-rule="evenodd" fill-opacity="1" stroke="#000000" stroke-opacity="1" stroke-width="6.4"></circle>
<circle clip-path="url(#clip722)" cx="1004.91" cy="2350.92" r="14.4" fill="#009af9" fill-rule="evenodd" fill-opacity="1" stroke="#000000" stroke-opacity="1" stroke-width="6.4"></circle>
<circle clip-path="url(#clip722)" cx="1004.91" cy="2263.03" r="14.4" fill="#009af9" fill-rule="evenodd" fill-opacity="1" stroke="#000000" stroke-opacity="1" stroke-width="6.4"></circle>
<circle clip-path="url(#clip722)" cx="1004.91" cy="2175.14" r="14.4" fill="#009af9" fill-rule="evenodd" fill-opacity="1" stroke="#000000" stroke-opacity="1" stroke-width="6.4"></circle>
<circle clip-path="url(#clip722)" cx="1004.91" cy="944.707" r="14.4" fill="#009af9" fill-rule="evenodd" fill-opacity="1" stroke="#000000" stroke-opacity="1" stroke-width="6.4"></circle>
<circle clip-path="url(#clip722)" cx="1004.91" cy="856.819" r="14.4" fill="#009af9" fill-rule="evenodd" fill-opacity="1" stroke="#000000" stroke-opacity="1" stroke-width="6.4"></circle>
<circle clip-path="url(#clip722)" cx="1004.91" cy="768.931" r="14.4" fill="#009af9" fill-rule="evenodd" fill-opacity="1" stroke="#000000" stroke-opacity="1" stroke-width="6.4"></circle>
<circle clip-path="url(#clip722)" cx="1004.91" cy="681.042" r="14.4" fill="#009af9" fill-rule="evenodd" fill-opacity="1" stroke="#000000" stroke-opacity="1" stroke-width="6.4"></circle>
<circle clip-path="url(#clip722)" cx="1004.91" cy="593.154" r="14.4" fill="#009af9" fill-rule="evenodd" fill-opacity="1" stroke="#000000" stroke-opacity="1" stroke-width="6.4"></circle>
<circle clip-path="url(#clip722)" cx="1004.91" cy="505.266" r="14.4" fill="#009af9" fill-rule="evenodd" fill-opacity="1" stroke="#000000" stroke-opacity="1" stroke-width="6.4"></circle>
<circle clip-path="url(#clip722)" cx="1094.41" cy="2438.81" r="14.4" fill="#009af9" fill-rule="evenodd" fill-opacity="1" stroke="#000000" stroke-opacity="1" stroke-width="6.4"></circle>
<circle clip-path="url(#clip722)" cx="1094.41" cy="2350.92" r="14.4" fill="#009af9" fill-rule="evenodd" fill-opacity="1" stroke="#000000" stroke-opacity="1" stroke-width="6.4"></circle>
<circle clip-path="url(#clip722)" cx="1094.41" cy="2263.03" r="14.4" fill="#009af9" fill-rule="evenodd" fill-opacity="1" stroke="#000000" stroke-opacity="1" stroke-width="6.4"></circle>
<circle clip-path="url(#clip722)" cx="1094.41" cy="2175.14" r="14.4" fill="#009af9" fill-rule="evenodd" fill-opacity="1" stroke="#000000" stroke-opacity="1" stroke-width="6.4"></circle>
<circle clip-path="url(#clip722)" cx="1094.41" cy="2087.26" r="14.4" fill="#009af9" fill-rule="evenodd" fill-opacity="1" stroke="#000000" stroke-opacity="1" stroke-width="6.4"></circle>
<circle clip-path="url(#clip722)" cx="1094.41" cy="1999.37" r="14.4" fill="#009af9" fill-rule="evenodd" fill-opacity="1" stroke="#000000" stroke-opacity="1" stroke-width="6.4"></circle>
<circle clip-path="url(#clip722)" cx="1094.41" cy="1911.48" r="14.4" fill="#009af9" fill-rule="evenodd" fill-opacity="1" stroke="#000000" stroke-opacity="1" stroke-width="6.4"></circle>
<circle clip-path="url(#clip722)" cx="1094.41" cy="1823.59" r="14.4" fill="#009af9" fill-rule="evenodd" fill-opacity="1" stroke="#000000" stroke-opacity="1" stroke-width="6.4"></circle>
<circle clip-path="url(#clip722)" cx="1094.41" cy="1735.7" r="14.4" fill="#009af9" fill-rule="evenodd" fill-opacity="1" stroke="#000000" stroke-opacity="1" stroke-width="6.4"></circle>
<circle clip-path="url(#clip722)" cx="1094.41" cy="1647.81" r="14.4" fill="#009af9" fill-rule="evenodd" fill-opacity="1" stroke="#000000" stroke-opacity="1" stroke-width="6.4"></circle>
<circle clip-path="url(#clip722)" cx="1094.41" cy="1559.93" r="14.4" fill="#009af9" fill-rule="evenodd" fill-opacity="1" stroke="#000000" stroke-opacity="1" stroke-width="6.4"></circle>
<circle clip-path="url(#clip722)" cx="1094.41" cy="1472.04" r="14.4" fill="#009af9" fill-rule="evenodd" fill-opacity="1" stroke="#000000" stroke-opacity="1" stroke-width="6.4"></circle>
<circle clip-path="url(#clip722)" cx="1094.41" cy="1384.15" r="14.4" fill="#009af9" fill-rule="evenodd" fill-opacity="1" stroke="#000000" stroke-opacity="1" stroke-width="6.4"></circle>
<circle clip-path="url(#clip722)" cx="1094.41" cy="1296.26" r="14.4" fill="#009af9" fill-rule="evenodd" fill-opacity="1" stroke="#000000" stroke-opacity="1" stroke-width="6.4"></circle>
<circle clip-path="url(#clip722)" cx="1094.41" cy="1208.37" r="14.4" fill="#009af9" fill-rule="evenodd" fill-opacity="1" stroke="#000000" stroke-opacity="1" stroke-width="6.4"></circle>
<circle clip-path="url(#clip722)" cx="1094.41" cy="1120.48" r="14.4" fill="#009af9" fill-rule="evenodd" fill-opacity="1" stroke="#000000" stroke-opacity="1" stroke-width="6.4"></circle>
<circle clip-path="url(#clip722)" cx="1094.41" cy="1032.6" r="14.4" fill="#009af9" fill-rule="evenodd" fill-opacity="1" stroke="#000000" stroke-opacity="1" stroke-width="6.4"></circle>
<circle clip-path="url(#clip722)" cx="1094.41" cy="944.707" r="14.4" fill="#009af9" fill-rule="evenodd" fill-opacity="1" stroke="#000000" stroke-opacity="1" stroke-width="6.4"></circle>
<circle clip-path="url(#clip722)" cx="1094.41" cy="856.819" r="14.4" fill="#009af9" fill-rule="evenodd" fill-opacity="1" stroke="#000000" stroke-opacity="1" stroke-width="6.4"></circle>
<circle clip-path="url(#clip722)" cx="1094.41" cy="768.931" r="14.4" fill="#009af9" fill-rule="evenodd" fill-opacity="1" stroke="#000000" stroke-opacity="1" stroke-width="6.4"></circle>
<circle clip-path="url(#clip722)" cx="1094.41" cy="681.042" r="14.4" fill="#009af9" fill-rule="evenodd" fill-opacity="1" stroke="#000000" stroke-opacity="1" stroke-width="6.4"></circle>
<circle clip-path="url(#clip722)" cx="1183.9" cy="2350.92" r="14.4" fill="#009af9" fill-rule="evenodd" fill-opacity="1" stroke="#000000" stroke-opacity="1" stroke-width="6.4"></circle>
<circle clip-path="url(#clip722)" cx="1183.9" cy="2263.03" r="14.4" fill="#009af9" fill-rule="evenodd" fill-opacity="1" stroke="#000000" stroke-opacity="1" stroke-width="6.4"></circle>
<circle clip-path="url(#clip722)" cx="1183.9" cy="2175.14" r="14.4" fill="#009af9" fill-rule="evenodd" fill-opacity="1" stroke="#000000" stroke-opacity="1" stroke-width="6.4"></circle>
<circle clip-path="url(#clip722)" cx="1183.9" cy="2087.26" r="14.4" fill="#009af9" fill-rule="evenodd" fill-opacity="1" stroke="#000000" stroke-opacity="1" stroke-width="6.4"></circle>
<circle clip-path="url(#clip722)" cx="1183.9" cy="1999.37" r="14.4" fill="#009af9" fill-rule="evenodd" fill-opacity="1" stroke="#000000" stroke-opacity="1" stroke-width="6.4"></circle>
<circle clip-path="url(#clip722)" cx="1183.9" cy="1911.48" r="14.4" fill="#009af9" fill-rule="evenodd" fill-opacity="1" stroke="#000000" stroke-opacity="1" stroke-width="6.4"></circle>
<circle clip-path="url(#clip722)" cx="1183.9" cy="1823.59" r="14.4" fill="#009af9" fill-rule="evenodd" fill-opacity="1" stroke="#000000" stroke-opacity="1" stroke-width="6.4"></circle>
<circle clip-path="url(#clip722)" cx="1183.9" cy="1735.7" r="14.4" fill="#009af9" fill-rule="evenodd" fill-opacity="1" stroke="#000000" stroke-opacity="1" stroke-width="6.4"></circle>
<circle clip-path="url(#clip722)" cx="1183.9" cy="1647.81" r="14.4" fill="#009af9" fill-rule="evenodd" fill-opacity="1" stroke="#000000" stroke-opacity="1" stroke-width="6.4"></circle>
<circle clip-path="url(#clip722)" cx="1183.9" cy="1559.93" r="14.4" fill="#009af9" fill-rule="evenodd" fill-opacity="1" stroke="#000000" stroke-opacity="1" stroke-width="6.4"></circle>
<circle clip-path="url(#clip722)" cx="1183.9" cy="1472.04" r="14.4" fill="#009af9" fill-rule="evenodd" fill-opacity="1" stroke="#000000" stroke-opacity="1" stroke-width="6.4"></circle>
<circle clip-path="url(#clip722)" cx="1183.9" cy="1384.15" r="14.4" fill="#009af9" fill-rule="evenodd" fill-opacity="1" stroke="#000000" stroke-opacity="1" stroke-width="6.4"></circle>
<circle clip-path="url(#clip722)" cx="1183.9" cy="1296.26" r="14.4" fill="#009af9" fill-rule="evenodd" fill-opacity="1" stroke="#000000" stroke-opacity="1" stroke-width="6.4"></circle>
<circle clip-path="url(#clip722)" cx="1183.9" cy="1208.37" r="14.4" fill="#009af9" fill-rule="evenodd" fill-opacity="1" stroke="#000000" stroke-opacity="1" stroke-width="6.4"></circle>
<circle clip-path="url(#clip722)" cx="1183.9" cy="1120.48" r="14.4" fill="#009af9" fill-rule="evenodd" fill-opacity="1" stroke="#000000" stroke-opacity="1" stroke-width="6.4"></circle>
<circle clip-path="url(#clip722)" cx="1183.9" cy="1032.6" r="14.4" fill="#009af9" fill-rule="evenodd" fill-opacity="1" stroke="#000000" stroke-opacity="1" stroke-width="6.4"></circle>
<circle clip-path="url(#clip722)" cx="1183.9" cy="944.707" r="14.4" fill="#009af9" fill-rule="evenodd" fill-opacity="1" stroke="#000000" stroke-opacity="1" stroke-width="6.4"></circle>
<circle clip-path="url(#clip722)" cx="1183.9" cy="856.819" r="14.4" fill="#009af9" fill-rule="evenodd" fill-opacity="1" stroke="#000000" stroke-opacity="1" stroke-width="6.4"></circle>
<circle clip-path="url(#clip722)" cx="1183.9" cy="768.931" r="14.4" fill="#009af9" fill-rule="evenodd" fill-opacity="1" stroke="#000000" stroke-opacity="1" stroke-width="6.4"></circle>
<circle clip-path="url(#clip722)" cx="1273.39" cy="2175.14" r="14.4" fill="#009af9" fill-rule="evenodd" fill-opacity="1" stroke="#000000" stroke-opacity="1" stroke-width="6.4"></circle>
<circle clip-path="url(#clip722)" cx="1273.39" cy="2087.26" r="14.4" fill="#009af9" fill-rule="evenodd" fill-opacity="1" stroke="#000000" stroke-opacity="1" stroke-width="6.4"></circle>
<circle clip-path="url(#clip722)" cx="1273.39" cy="1999.37" r="14.4" fill="#009af9" fill-rule="evenodd" fill-opacity="1" stroke="#000000" stroke-opacity="1" stroke-width="6.4"></circle>
<circle clip-path="url(#clip722)" cx="1273.39" cy="1911.48" r="14.4" fill="#009af9" fill-rule="evenodd" fill-opacity="1" stroke="#000000" stroke-opacity="1" stroke-width="6.4"></circle>
<circle clip-path="url(#clip722)" cx="1273.39" cy="1823.59" r="14.4" fill="#009af9" fill-rule="evenodd" fill-opacity="1" stroke="#000000" stroke-opacity="1" stroke-width="6.4"></circle>
<circle clip-path="url(#clip722)" cx="1273.39" cy="1735.7" r="14.4" fill="#009af9" fill-rule="evenodd" fill-opacity="1" stroke="#000000" stroke-opacity="1" stroke-width="6.4"></circle>
<circle clip-path="url(#clip722)" cx="1273.39" cy="1647.81" r="14.4" fill="#009af9" fill-rule="evenodd" fill-opacity="1" stroke="#000000" stroke-opacity="1" stroke-width="6.4"></circle>
<circle clip-path="url(#clip722)" cx="1273.39" cy="1559.93" r="14.4" fill="#009af9" fill-rule="evenodd" fill-opacity="1" stroke="#000000" stroke-opacity="1" stroke-width="6.4"></circle>
<circle clip-path="url(#clip722)" cx="1273.39" cy="1472.04" r="14.4" fill="#009af9" fill-rule="evenodd" fill-opacity="1" stroke="#000000" stroke-opacity="1" stroke-width="6.4"></circle>
<circle clip-path="url(#clip722)" cx="1273.39" cy="1384.15" r="14.4" fill="#009af9" fill-rule="evenodd" fill-opacity="1" stroke="#000000" stroke-opacity="1" stroke-width="6.4"></circle>
<circle clip-path="url(#clip722)" cx="1273.39" cy="1296.26" r="14.4" fill="#009af9" fill-rule="evenodd" fill-opacity="1" stroke="#000000" stroke-opacity="1" stroke-width="6.4"></circle>
<circle clip-path="url(#clip722)" cx="1273.39" cy="1208.37" r="14.4" fill="#009af9" fill-rule="evenodd" fill-opacity="1" stroke="#000000" stroke-opacity="1" stroke-width="6.4"></circle>
<circle clip-path="url(#clip722)" cx="1273.39" cy="1120.48" r="14.4" fill="#009af9" fill-rule="evenodd" fill-opacity="1" stroke="#000000" stroke-opacity="1" stroke-width="6.4"></circle>
<circle clip-path="url(#clip722)" cx="1273.39" cy="1032.6" r="14.4" fill="#009af9" fill-rule="evenodd" fill-opacity="1" stroke="#000000" stroke-opacity="1" stroke-width="6.4"></circle>
<circle clip-path="url(#clip722)" cx="1273.39" cy="944.707" r="14.4" fill="#009af9" fill-rule="evenodd" fill-opacity="1" stroke="#000000" stroke-opacity="1" stroke-width="6.4"></circle>
<circle clip-path="url(#clip722)" cx="1362.89" cy="2087.26" r="14.4" fill="#009af9" fill-rule="evenodd" fill-opacity="1" stroke="#000000" stroke-opacity="1" stroke-width="6.4"></circle>
<circle clip-path="url(#clip722)" cx="1362.89" cy="1999.37" r="14.4" fill="#009af9" fill-rule="evenodd" fill-opacity="1" stroke="#000000" stroke-opacity="1" stroke-width="6.4"></circle>
<circle clip-path="url(#clip722)" cx="1362.89" cy="1911.48" r="14.4" fill="#009af9" fill-rule="evenodd" fill-opacity="1" stroke="#000000" stroke-opacity="1" stroke-width="6.4"></circle>
<circle clip-path="url(#clip722)" cx="1362.89" cy="1823.59" r="14.4" fill="#009af9" fill-rule="evenodd" fill-opacity="1" stroke="#000000" stroke-opacity="1" stroke-width="6.4"></circle>
<circle clip-path="url(#clip722)" cx="1362.89" cy="1735.7" r="14.4" fill="#009af9" fill-rule="evenodd" fill-opacity="1" stroke="#000000" stroke-opacity="1" stroke-width="6.4"></circle>
<circle clip-path="url(#clip722)" cx="1362.89" cy="1647.81" r="14.4" fill="#009af9" fill-rule="evenodd" fill-opacity="1" stroke="#000000" stroke-opacity="1" stroke-width="6.4"></circle>
<circle clip-path="url(#clip722)" cx="1362.89" cy="1559.93" r="14.4" fill="#009af9" fill-rule="evenodd" fill-opacity="1" stroke="#000000" stroke-opacity="1" stroke-width="6.4"></circle>
<circle clip-path="url(#clip722)" cx="1362.89" cy="1472.04" r="14.4" fill="#009af9" fill-rule="evenodd" fill-opacity="1" stroke="#000000" stroke-opacity="1" stroke-width="6.4"></circle>
<circle clip-path="url(#clip722)" cx="1362.89" cy="1384.15" r="14.4" fill="#009af9" fill-rule="evenodd" fill-opacity="1" stroke="#000000" stroke-opacity="1" stroke-width="6.4"></circle>
<circle clip-path="url(#clip722)" cx="1362.89" cy="1296.26" r="14.4" fill="#009af9" fill-rule="evenodd" fill-opacity="1" stroke="#000000" stroke-opacity="1" stroke-width="6.4"></circle>
<circle clip-path="url(#clip722)" cx="1362.89" cy="1208.37" r="14.4" fill="#009af9" fill-rule="evenodd" fill-opacity="1" stroke="#000000" stroke-opacity="1" stroke-width="6.4"></circle>
<circle clip-path="url(#clip722)" cx="1362.89" cy="1120.48" r="14.4" fill="#009af9" fill-rule="evenodd" fill-opacity="1" stroke="#000000" stroke-opacity="1" stroke-width="6.4"></circle>
<circle clip-path="url(#clip722)" cx="1362.89" cy="1032.6" r="14.4" fill="#009af9" fill-rule="evenodd" fill-opacity="1" stroke="#000000" stroke-opacity="1" stroke-width="6.4"></circle>
<circle clip-path="url(#clip722)" cx="1452.38" cy="2087.26" r="14.4" fill="#009af9" fill-rule="evenodd" fill-opacity="1" stroke="#000000" stroke-opacity="1" stroke-width="6.4"></circle>
<circle clip-path="url(#clip722)" cx="1452.38" cy="1999.37" r="14.4" fill="#009af9" fill-rule="evenodd" fill-opacity="1" stroke="#000000" stroke-opacity="1" stroke-width="6.4"></circle>
<circle clip-path="url(#clip722)" cx="1452.38" cy="1911.48" r="14.4" fill="#009af9" fill-rule="evenodd" fill-opacity="1" stroke="#000000" stroke-opacity="1" stroke-width="6.4"></circle>
<circle clip-path="url(#clip722)" cx="1452.38" cy="1823.59" r="14.4" fill="#009af9" fill-rule="evenodd" fill-opacity="1" stroke="#000000" stroke-opacity="1" stroke-width="6.4"></circle>
<circle clip-path="url(#clip722)" cx="1452.38" cy="1735.7" r="14.4" fill="#009af9" fill-rule="evenodd" fill-opacity="1" stroke="#000000" stroke-opacity="1" stroke-width="6.4"></circle>
<circle clip-path="url(#clip722)" cx="1452.38" cy="1647.81" r="14.4" fill="#009af9" fill-rule="evenodd" fill-opacity="1" stroke="#000000" stroke-opacity="1" stroke-width="6.4"></circle>
<circle clip-path="url(#clip722)" cx="1452.38" cy="1559.93" r="14.4" fill="#009af9" fill-rule="evenodd" fill-opacity="1" stroke="#000000" stroke-opacity="1" stroke-width="6.4"></circle>
<circle clip-path="url(#clip722)" cx="1452.38" cy="1472.04" r="14.4" fill="#009af9" fill-rule="evenodd" fill-opacity="1" stroke="#000000" stroke-opacity="1" stroke-width="6.4"></circle>
<circle clip-path="url(#clip722)" cx="1452.38" cy="1384.15" r="14.4" fill="#009af9" fill-rule="evenodd" fill-opacity="1" stroke="#000000" stroke-opacity="1" stroke-width="6.4"></circle>
<circle clip-path="url(#clip722)" cx="1452.38" cy="1296.26" r="14.4" fill="#009af9" fill-rule="evenodd" fill-opacity="1" stroke="#000000" stroke-opacity="1" stroke-width="6.4"></circle>
<circle clip-path="url(#clip722)" cx="1452.38" cy="1208.37" r="14.4" fill="#009af9" fill-rule="evenodd" fill-opacity="1" stroke="#000000" stroke-opacity="1" stroke-width="6.4"></circle>
<circle clip-path="url(#clip722)" cx="1452.38" cy="1120.48" r="14.4" fill="#009af9" fill-rule="evenodd" fill-opacity="1" stroke="#000000" stroke-opacity="1" stroke-width="6.4"></circle>
<circle clip-path="url(#clip722)" cx="1452.38" cy="1032.6" r="14.4" fill="#009af9" fill-rule="evenodd" fill-opacity="1" stroke="#000000" stroke-opacity="1" stroke-width="6.4"></circle>
<circle clip-path="url(#clip722)" cx="1541.87" cy="1999.37" r="14.4" fill="#009af9" fill-rule="evenodd" fill-opacity="1" stroke="#000000" stroke-opacity="1" stroke-width="6.4"></circle>
<circle clip-path="url(#clip722)" cx="1541.87" cy="1911.48" r="14.4" fill="#009af9" fill-rule="evenodd" fill-opacity="1" stroke="#000000" stroke-opacity="1" stroke-width="6.4"></circle>
<circle clip-path="url(#clip722)" cx="1541.87" cy="1823.59" r="14.4" fill="#009af9" fill-rule="evenodd" fill-opacity="1" stroke="#000000" stroke-opacity="1" stroke-width="6.4"></circle>
<circle clip-path="url(#clip722)" cx="1541.87" cy="1735.7" r="14.4" fill="#009af9" fill-rule="evenodd" fill-opacity="1" stroke="#000000" stroke-opacity="1" stroke-width="6.4"></circle>
<circle clip-path="url(#clip722)" cx="1541.87" cy="1647.81" r="14.4" fill="#009af9" fill-rule="evenodd" fill-opacity="1" stroke="#000000" stroke-opacity="1" stroke-width="6.4"></circle>
<circle clip-path="url(#clip722)" cx="1541.87" cy="1559.93" r="14.4" fill="#009af9" fill-rule="evenodd" fill-opacity="1" stroke="#000000" stroke-opacity="1" stroke-width="6.4"></circle>
<circle clip-path="url(#clip722)" cx="1541.87" cy="1472.04" r="14.4" fill="#009af9" fill-rule="evenodd" fill-opacity="1" stroke="#000000" stroke-opacity="1" stroke-width="6.4"></circle>
<circle clip-path="url(#clip722)" cx="1541.87" cy="1384.15" r="14.4" fill="#009af9" fill-rule="evenodd" fill-opacity="1" stroke="#000000" stroke-opacity="1" stroke-width="6.4"></circle>
<circle clip-path="url(#clip722)" cx="1541.87" cy="1296.26" r="14.4" fill="#009af9" fill-rule="evenodd" fill-opacity="1" stroke="#000000" stroke-opacity="1" stroke-width="6.4"></circle>
<circle clip-path="url(#clip722)" cx="1541.87" cy="1208.37" r="14.4" fill="#009af9" fill-rule="evenodd" fill-opacity="1" stroke="#000000" stroke-opacity="1" stroke-width="6.4"></circle>
<circle clip-path="url(#clip722)" cx="1541.87" cy="1120.48" r="14.4" fill="#009af9" fill-rule="evenodd" fill-opacity="1" stroke="#000000" stroke-opacity="1" stroke-width="6.4"></circle>
<circle clip-path="url(#clip722)" cx="1631.37" cy="1999.37" r="14.4" fill="#009af9" fill-rule="evenodd" fill-opacity="1" stroke="#000000" stroke-opacity="1" stroke-width="6.4"></circle>
<circle clip-path="url(#clip722)" cx="1631.37" cy="1911.48" r="14.4" fill="#009af9" fill-rule="evenodd" fill-opacity="1" stroke="#000000" stroke-opacity="1" stroke-width="6.4"></circle>
<circle clip-path="url(#clip722)" cx="1631.37" cy="1823.59" r="14.4" fill="#009af9" fill-rule="evenodd" fill-opacity="1" stroke="#000000" stroke-opacity="1" stroke-width="6.4"></circle>
<circle clip-path="url(#clip722)" cx="1631.37" cy="1735.7" r="14.4" fill="#009af9" fill-rule="evenodd" fill-opacity="1" stroke="#000000" stroke-opacity="1" stroke-width="6.4"></circle>
<circle clip-path="url(#clip722)" cx="1631.37" cy="1647.81" r="14.4" fill="#009af9" fill-rule="evenodd" fill-opacity="1" stroke="#000000" stroke-opacity="1" stroke-width="6.4"></circle>
<circle clip-path="url(#clip722)" cx="1631.37" cy="1559.93" r="14.4" fill="#009af9" fill-rule="evenodd" fill-opacity="1" stroke="#000000" stroke-opacity="1" stroke-width="6.4"></circle>
<circle clip-path="url(#clip722)" cx="1631.37" cy="1472.04" r="14.4" fill="#009af9" fill-rule="evenodd" fill-opacity="1" stroke="#000000" stroke-opacity="1" stroke-width="6.4"></circle>
<circle clip-path="url(#clip722)" cx="1631.37" cy="1384.15" r="14.4" fill="#009af9" fill-rule="evenodd" fill-opacity="1" stroke="#000000" stroke-opacity="1" stroke-width="6.4"></circle>
<circle clip-path="url(#clip722)" cx="1631.37" cy="1296.26" r="14.4" fill="#009af9" fill-rule="evenodd" fill-opacity="1" stroke="#000000" stroke-opacity="1" stroke-width="6.4"></circle>
<circle clip-path="url(#clip722)" cx="1631.37" cy="1208.37" r="14.4" fill="#009af9" fill-rule="evenodd" fill-opacity="1" stroke="#000000" stroke-opacity="1" stroke-width="6.4"></circle>
<circle clip-path="url(#clip722)" cx="1631.37" cy="1120.48" r="14.4" fill="#009af9" fill-rule="evenodd" fill-opacity="1" stroke="#000000" stroke-opacity="1" stroke-width="6.4"></circle>
<circle clip-path="url(#clip722)" cx="1720.86" cy="1999.37" r="14.4" fill="#009af9" fill-rule="evenodd" fill-opacity="1" stroke="#000000" stroke-opacity="1" stroke-width="6.4"></circle>
<circle clip-path="url(#clip722)" cx="1720.86" cy="1911.48" r="14.4" fill="#009af9" fill-rule="evenodd" fill-opacity="1" stroke="#000000" stroke-opacity="1" stroke-width="6.4"></circle>
<circle clip-path="url(#clip722)" cx="1720.86" cy="1823.59" r="14.4" fill="#009af9" fill-rule="evenodd" fill-opacity="1" stroke="#000000" stroke-opacity="1" stroke-width="6.4"></circle>
<circle clip-path="url(#clip722)" cx="1720.86" cy="1735.7" r="14.4" fill="#009af9" fill-rule="evenodd" fill-opacity="1" stroke="#000000" stroke-opacity="1" stroke-width="6.4"></circle>
<circle clip-path="url(#clip722)" cx="1720.86" cy="1647.81" r="14.4" fill="#009af9" fill-rule="evenodd" fill-opacity="1" stroke="#000000" stroke-opacity="1" stroke-width="6.4"></circle>
<circle clip-path="url(#clip722)" cx="1720.86" cy="1559.93" r="14.4" fill="#009af9" fill-rule="evenodd" fill-opacity="1" stroke="#000000" stroke-opacity="1" stroke-width="6.4"></circle>
<circle clip-path="url(#clip722)" cx="1720.86" cy="1472.04" r="14.4" fill="#009af9" fill-rule="evenodd" fill-opacity="1" stroke="#000000" stroke-opacity="1" stroke-width="6.4"></circle>
<circle clip-path="url(#clip722)" cx="1720.86" cy="1384.15" r="14.4" fill="#009af9" fill-rule="evenodd" fill-opacity="1" stroke="#000000" stroke-opacity="1" stroke-width="6.4"></circle>
<circle clip-path="url(#clip722)" cx="1720.86" cy="1296.26" r="14.4" fill="#009af9" fill-rule="evenodd" fill-opacity="1" stroke="#000000" stroke-opacity="1" stroke-width="6.4"></circle>
<circle clip-path="url(#clip722)" cx="1720.86" cy="1208.37" r="14.4" fill="#009af9" fill-rule="evenodd" fill-opacity="1" stroke="#000000" stroke-opacity="1" stroke-width="6.4"></circle>
<circle clip-path="url(#clip722)" cx="1720.86" cy="1120.48" r="14.4" fill="#009af9" fill-rule="evenodd" fill-opacity="1" stroke="#000000" stroke-opacity="1" stroke-width="6.4"></circle>
<circle clip-path="url(#clip722)" cx="1810.35" cy="1999.37" r="14.4" fill="#009af9" fill-rule="evenodd" fill-opacity="1" stroke="#000000" stroke-opacity="1" stroke-width="6.4"></circle>
<circle clip-path="url(#clip722)" cx="1810.35" cy="1911.48" r="14.4" fill="#009af9" fill-rule="evenodd" fill-opacity="1" stroke="#000000" stroke-opacity="1" stroke-width="6.4"></circle>
<circle clip-path="url(#clip722)" cx="1810.35" cy="1823.59" r="14.4" fill="#009af9" fill-rule="evenodd" fill-opacity="1" stroke="#000000" stroke-opacity="1" stroke-width="6.4"></circle>
<circle clip-path="url(#clip722)" cx="1810.35" cy="1735.7" r="14.4" fill="#009af9" fill-rule="evenodd" fill-opacity="1" stroke="#000000" stroke-opacity="1" stroke-width="6.4"></circle>
<circle clip-path="url(#clip722)" cx="1810.35" cy="1647.81" r="14.4" fill="#009af9" fill-rule="evenodd" fill-opacity="1" stroke="#000000" stroke-opacity="1" stroke-width="6.4"></circle>
<circle clip-path="url(#clip722)" cx="1810.35" cy="1559.93" r="14.4" fill="#009af9" fill-rule="evenodd" fill-opacity="1" stroke="#000000" stroke-opacity="1" stroke-width="6.4"></circle>
<circle clip-path="url(#clip722)" cx="1810.35" cy="1472.04" r="14.4" fill="#009af9" fill-rule="evenodd" fill-opacity="1" stroke="#000000" stroke-opacity="1" stroke-width="6.4"></circle>
<circle clip-path="url(#clip722)" cx="1810.35" cy="1384.15" r="14.4" fill="#009af9" fill-rule="evenodd" fill-opacity="1" stroke="#000000" stroke-opacity="1" stroke-width="6.4"></circle>
<circle clip-path="url(#clip722)" cx="1810.35" cy="1296.26" r="14.4" fill="#009af9" fill-rule="evenodd" fill-opacity="1" stroke="#000000" stroke-opacity="1" stroke-width="6.4"></circle>
<circle clip-path="url(#clip722)" cx="1810.35" cy="1208.37" r="14.4" fill="#009af9" fill-rule="evenodd" fill-opacity="1" stroke="#000000" stroke-opacity="1" stroke-width="6.4"></circle>
<circle clip-path="url(#clip722)" cx="1810.35" cy="1120.48" r="14.4" fill="#009af9" fill-rule="evenodd" fill-opacity="1" stroke="#000000" stroke-opacity="1" stroke-width="6.4"></circle>
<circle clip-path="url(#clip722)" cx="1899.85" cy="1999.37" r="14.4" fill="#009af9" fill-rule="evenodd" fill-opacity="1" stroke="#000000" stroke-opacity="1" stroke-width="6.4"></circle>
<circle clip-path="url(#clip722)" cx="1899.85" cy="1911.48" r="14.4" fill="#009af9" fill-rule="evenodd" fill-opacity="1" stroke="#000000" stroke-opacity="1" stroke-width="6.4"></circle>
<circle clip-path="url(#clip722)" cx="1899.85" cy="1823.59" r="14.4" fill="#009af9" fill-rule="evenodd" fill-opacity="1" stroke="#000000" stroke-opacity="1" stroke-width="6.4"></circle>
<circle clip-path="url(#clip722)" cx="1899.85" cy="1735.7" r="14.4" fill="#009af9" fill-rule="evenodd" fill-opacity="1" stroke="#000000" stroke-opacity="1" stroke-width="6.4"></circle>
<circle clip-path="url(#clip722)" cx="1899.85" cy="1647.81" r="14.4" fill="#009af9" fill-rule="evenodd" fill-opacity="1" stroke="#000000" stroke-opacity="1" stroke-width="6.4"></circle>
<circle clip-path="url(#clip722)" cx="1899.85" cy="1559.93" r="14.4" fill="#009af9" fill-rule="evenodd" fill-opacity="1" stroke="#000000" stroke-opacity="1" stroke-width="6.4"></circle>
<circle clip-path="url(#clip722)" cx="1899.85" cy="1472.04" r="14.4" fill="#009af9" fill-rule="evenodd" fill-opacity="1" stroke="#000000" stroke-opacity="1" stroke-width="6.4"></circle>
<circle clip-path="url(#clip722)" cx="1899.85" cy="1384.15" r="14.4" fill="#009af9" fill-rule="evenodd" fill-opacity="1" stroke="#000000" stroke-opacity="1" stroke-width="6.4"></circle>
<circle clip-path="url(#clip722)" cx="1899.85" cy="1296.26" r="14.4" fill="#009af9" fill-rule="evenodd" fill-opacity="1" stroke="#000000" stroke-opacity="1" stroke-width="6.4"></circle>
<circle clip-path="url(#clip722)" cx="1899.85" cy="1208.37" r="14.4" fill="#009af9" fill-rule="evenodd" fill-opacity="1" stroke="#000000" stroke-opacity="1" stroke-width="6.4"></circle>
<circle clip-path="url(#clip722)" cx="1899.85" cy="1120.48" r="14.4" fill="#009af9" fill-rule="evenodd" fill-opacity="1" stroke="#000000" stroke-opacity="1" stroke-width="6.4"></circle>
<circle clip-path="url(#clip722)" cx="1989.34" cy="2087.26" r="14.4" fill="#009af9" fill-rule="evenodd" fill-opacity="1" stroke="#000000" stroke-opacity="1" stroke-width="6.4"></circle>
<circle clip-path="url(#clip722)" cx="1989.34" cy="1999.37" r="14.4" fill="#009af9" fill-rule="evenodd" fill-opacity="1" stroke="#000000" stroke-opacity="1" stroke-width="6.4"></circle>
<circle clip-path="url(#clip722)" cx="1989.34" cy="1911.48" r="14.4" fill="#009af9" fill-rule="evenodd" fill-opacity="1" stroke="#000000" stroke-opacity="1" stroke-width="6.4"></circle>
<circle clip-path="url(#clip722)" cx="1989.34" cy="1823.59" r="14.4" fill="#009af9" fill-rule="evenodd" fill-opacity="1" stroke="#000000" stroke-opacity="1" stroke-width="6.4"></circle>
<circle clip-path="url(#clip722)" cx="1989.34" cy="1735.7" r="14.4" fill="#009af9" fill-rule="evenodd" fill-opacity="1" stroke="#000000" stroke-opacity="1" stroke-width="6.4"></circle>
<circle clip-path="url(#clip722)" cx="1989.34" cy="1647.81" r="14.4" fill="#009af9" fill-rule="evenodd" fill-opacity="1" stroke="#000000" stroke-opacity="1" stroke-width="6.4"></circle>
<circle clip-path="url(#clip722)" cx="1989.34" cy="1559.93" r="14.4" fill="#009af9" fill-rule="evenodd" fill-opacity="1" stroke="#000000" stroke-opacity="1" stroke-width="6.4"></circle>
<circle clip-path="url(#clip722)" cx="1989.34" cy="1472.04" r="14.4" fill="#009af9" fill-rule="evenodd" fill-opacity="1" stroke="#000000" stroke-opacity="1" stroke-width="6.4"></circle>
<circle clip-path="url(#clip722)" cx="1989.34" cy="1384.15" r="14.4" fill="#009af9" fill-rule="evenodd" fill-opacity="1" stroke="#000000" stroke-opacity="1" stroke-width="6.4"></circle>
<circle clip-path="url(#clip722)" cx="1989.34" cy="1296.26" r="14.4" fill="#009af9" fill-rule="evenodd" fill-opacity="1" stroke="#000000" stroke-opacity="1" stroke-width="6.4"></circle>
<circle clip-path="url(#clip722)" cx="1989.34" cy="1208.37" r="14.4" fill="#009af9" fill-rule="evenodd" fill-opacity="1" stroke="#000000" stroke-opacity="1" stroke-width="6.4"></circle>
<circle clip-path="url(#clip722)" cx="1989.34" cy="1120.48" r="14.4" fill="#009af9" fill-rule="evenodd" fill-opacity="1" stroke="#000000" stroke-opacity="1" stroke-width="6.4"></circle>
<circle clip-path="url(#clip722)" cx="1989.34" cy="1032.6" r="14.4" fill="#009af9" fill-rule="evenodd" fill-opacity="1" stroke="#000000" stroke-opacity="1" stroke-width="6.4"></circle>
<circle clip-path="url(#clip722)" cx="2078.83" cy="2087.26" r="14.4" fill="#009af9" fill-rule="evenodd" fill-opacity="1" stroke="#000000" stroke-opacity="1" stroke-width="6.4"></circle>
<circle clip-path="url(#clip722)" cx="2078.83" cy="1999.37" r="14.4" fill="#009af9" fill-rule="evenodd" fill-opacity="1" stroke="#000000" stroke-opacity="1" stroke-width="6.4"></circle>
<circle clip-path="url(#clip722)" cx="2078.83" cy="1911.48" r="14.4" fill="#009af9" fill-rule="evenodd" fill-opacity="1" stroke="#000000" stroke-opacity="1" stroke-width="6.4"></circle>
<circle clip-path="url(#clip722)" cx="2078.83" cy="1823.59" r="14.4" fill="#009af9" fill-rule="evenodd" fill-opacity="1" stroke="#000000" stroke-opacity="1" stroke-width="6.4"></circle>
<circle clip-path="url(#clip722)" cx="2078.83" cy="1735.7" r="14.4" fill="#009af9" fill-rule="evenodd" fill-opacity="1" stroke="#000000" stroke-opacity="1" stroke-width="6.4"></circle>
<circle clip-path="url(#clip722)" cx="2078.83" cy="1647.81" r="14.4" fill="#009af9" fill-rule="evenodd" fill-opacity="1" stroke="#000000" stroke-opacity="1" stroke-width="6.4"></circle>
<circle clip-path="url(#clip722)" cx="2078.83" cy="1559.93" r="14.4" fill="#009af9" fill-rule="evenodd" fill-opacity="1" stroke="#000000" stroke-opacity="1" stroke-width="6.4"></circle>
<circle clip-path="url(#clip722)" cx="2078.83" cy="1472.04" r="14.4" fill="#009af9" fill-rule="evenodd" fill-opacity="1" stroke="#000000" stroke-opacity="1" stroke-width="6.4"></circle>
<circle clip-path="url(#clip722)" cx="2078.83" cy="1384.15" r="14.4" fill="#009af9" fill-rule="evenodd" fill-opacity="1" stroke="#000000" stroke-opacity="1" stroke-width="6.4"></circle>
<circle clip-path="url(#clip722)" cx="2078.83" cy="1296.26" r="14.4" fill="#009af9" fill-rule="evenodd" fill-opacity="1" stroke="#000000" stroke-opacity="1" stroke-width="6.4"></circle>
<circle clip-path="url(#clip722)" cx="2078.83" cy="1208.37" r="14.4" fill="#009af9" fill-rule="evenodd" fill-opacity="1" stroke="#000000" stroke-opacity="1" stroke-width="6.4"></circle>
<circle clip-path="url(#clip722)" cx="2078.83" cy="1120.48" r="14.4" fill="#009af9" fill-rule="evenodd" fill-opacity="1" stroke="#000000" stroke-opacity="1" stroke-width="6.4"></circle>
<circle clip-path="url(#clip722)" cx="2078.83" cy="1032.6" r="14.4" fill="#009af9" fill-rule="evenodd" fill-opacity="1" stroke="#000000" stroke-opacity="1" stroke-width="6.4"></circle>
<circle clip-path="url(#clip722)" cx="2168.33" cy="2175.14" r="14.4" fill="#009af9" fill-rule="evenodd" fill-opacity="1" stroke="#000000" stroke-opacity="1" stroke-width="6.4"></circle>
<circle clip-path="url(#clip722)" cx="2168.33" cy="2087.26" r="14.4" fill="#009af9" fill-rule="evenodd" fill-opacity="1" stroke="#000000" stroke-opacity="1" stroke-width="6.4"></circle>
<circle clip-path="url(#clip722)" cx="2168.33" cy="1999.37" r="14.4" fill="#009af9" fill-rule="evenodd" fill-opacity="1" stroke="#000000" stroke-opacity="1" stroke-width="6.4"></circle>
<circle clip-path="url(#clip722)" cx="2168.33" cy="1911.48" r="14.4" fill="#009af9" fill-rule="evenodd" fill-opacity="1" stroke="#000000" stroke-opacity="1" stroke-width="6.4"></circle>
<circle clip-path="url(#clip722)" cx="2168.33" cy="1823.59" r="14.4" fill="#009af9" fill-rule="evenodd" fill-opacity="1" stroke="#000000" stroke-opacity="1" stroke-width="6.4"></circle>
<circle clip-path="url(#clip722)" cx="2168.33" cy="1735.7" r="14.4" fill="#009af9" fill-rule="evenodd" fill-opacity="1" stroke="#000000" stroke-opacity="1" stroke-width="6.4"></circle>
<circle clip-path="url(#clip722)" cx="2168.33" cy="1647.81" r="14.4" fill="#009af9" fill-rule="evenodd" fill-opacity="1" stroke="#000000" stroke-opacity="1" stroke-width="6.4"></circle>
<circle clip-path="url(#clip722)" cx="2168.33" cy="1559.93" r="14.4" fill="#009af9" fill-rule="evenodd" fill-opacity="1" stroke="#000000" stroke-opacity="1" stroke-width="6.4"></circle>
<circle clip-path="url(#clip722)" cx="2168.33" cy="1472.04" r="14.4" fill="#009af9" fill-rule="evenodd" fill-opacity="1" stroke="#000000" stroke-opacity="1" stroke-width="6.4"></circle>
<circle clip-path="url(#clip722)" cx="2168.33" cy="1384.15" r="14.4" fill="#009af9" fill-rule="evenodd" fill-opacity="1" stroke="#000000" stroke-opacity="1" stroke-width="6.4"></circle>
<circle clip-path="url(#clip722)" cx="2168.33" cy="1296.26" r="14.4" fill="#009af9" fill-rule="evenodd" fill-opacity="1" stroke="#000000" stroke-opacity="1" stroke-width="6.4"></circle>
<circle clip-path="url(#clip722)" cx="2168.33" cy="1208.37" r="14.4" fill="#009af9" fill-rule="evenodd" fill-opacity="1" stroke="#000000" stroke-opacity="1" stroke-width="6.4"></circle>
<circle clip-path="url(#clip722)" cx="2168.33" cy="1120.48" r="14.4" fill="#009af9" fill-rule="evenodd" fill-opacity="1" stroke="#000000" stroke-opacity="1" stroke-width="6.4"></circle>
<circle clip-path="url(#clip722)" cx="2168.33" cy="1032.6" r="14.4" fill="#009af9" fill-rule="evenodd" fill-opacity="1" stroke="#000000" stroke-opacity="1" stroke-width="6.4"></circle>
<circle clip-path="url(#clip722)" cx="2168.33" cy="944.707" r="14.4" fill="#009af9" fill-rule="evenodd" fill-opacity="1" stroke="#000000" stroke-opacity="1" stroke-width="6.4"></circle>
<circle clip-path="url(#clip722)" cx="2257.82" cy="2350.92" r="14.4" fill="#009af9" fill-rule="evenodd" fill-opacity="1" stroke="#000000" stroke-opacity="1" stroke-width="6.4"></circle>
<circle clip-path="url(#clip722)" cx="2257.82" cy="2263.03" r="14.4" fill="#009af9" fill-rule="evenodd" fill-opacity="1" stroke="#000000" stroke-opacity="1" stroke-width="6.4"></circle>
<circle clip-path="url(#clip722)" cx="2257.82" cy="2175.14" r="14.4" fill="#009af9" fill-rule="evenodd" fill-opacity="1" stroke="#000000" stroke-opacity="1" stroke-width="6.4"></circle>
<circle clip-path="url(#clip722)" cx="2257.82" cy="2087.26" r="14.4" fill="#009af9" fill-rule="evenodd" fill-opacity="1" stroke="#000000" stroke-opacity="1" stroke-width="6.4"></circle>
<circle clip-path="url(#clip722)" cx="2257.82" cy="1999.37" r="14.4" fill="#009af9" fill-rule="evenodd" fill-opacity="1" stroke="#000000" stroke-opacity="1" stroke-width="6.4"></circle>
<circle clip-path="url(#clip722)" cx="2257.82" cy="1911.48" r="14.4" fill="#009af9" fill-rule="evenodd" fill-opacity="1" stroke="#000000" stroke-opacity="1" stroke-width="6.4"></circle>
<circle clip-path="url(#clip722)" cx="2257.82" cy="1823.59" r="14.4" fill="#009af9" fill-rule="evenodd" fill-opacity="1" stroke="#000000" stroke-opacity="1" stroke-width="6.4"></circle>
<circle clip-path="url(#clip722)" cx="2257.82" cy="1735.7" r="14.4" fill="#009af9" fill-rule="evenodd" fill-opacity="1" stroke="#000000" stroke-opacity="1" stroke-width="6.4"></circle>
<circle clip-path="url(#clip722)" cx="2257.82" cy="1647.81" r="14.4" fill="#009af9" fill-rule="evenodd" fill-opacity="1" stroke="#000000" stroke-opacity="1" stroke-width="6.4"></circle>
<circle clip-path="url(#clip722)" cx="2257.82" cy="1559.93" r="14.4" fill="#009af9" fill-rule="evenodd" fill-opacity="1" stroke="#000000" stroke-opacity="1" stroke-width="6.4"></circle>
<circle clip-path="url(#clip722)" cx="2257.82" cy="1472.04" r="14.4" fill="#009af9" fill-rule="evenodd" fill-opacity="1" stroke="#000000" stroke-opacity="1" stroke-width="6.4"></circle>
<circle clip-path="url(#clip722)" cx="2257.82" cy="1384.15" r="14.4" fill="#009af9" fill-rule="evenodd" fill-opacity="1" stroke="#000000" stroke-opacity="1" stroke-width="6.4"></circle>
<circle clip-path="url(#clip722)" cx="2257.82" cy="1296.26" r="14.4" fill="#009af9" fill-rule="evenodd" fill-opacity="1" stroke="#000000" stroke-opacity="1" stroke-width="6.4"></circle>
<circle clip-path="url(#clip722)" cx="2257.82" cy="1208.37" r="14.4" fill="#009af9" fill-rule="evenodd" fill-opacity="1" stroke="#000000" stroke-opacity="1" stroke-width="6.4"></circle>
<circle clip-path="url(#clip722)" cx="2257.82" cy="1120.48" r="14.4" fill="#009af9" fill-rule="evenodd" fill-opacity="1" stroke="#000000" stroke-opacity="1" stroke-width="6.4"></circle>
<circle clip-path="url(#clip722)" cx="2257.82" cy="1032.6" r="14.4" fill="#009af9" fill-rule="evenodd" fill-opacity="1" stroke="#000000" stroke-opacity="1" stroke-width="6.4"></circle>
<circle clip-path="url(#clip722)" cx="2257.82" cy="944.707" r="14.4" fill="#009af9" fill-rule="evenodd" fill-opacity="1" stroke="#000000" stroke-opacity="1" stroke-width="6.4"></circle>
<circle clip-path="url(#clip722)" cx="2257.82" cy="856.819" r="14.4" fill="#009af9" fill-rule="evenodd" fill-opacity="1" stroke="#000000" stroke-opacity="1" stroke-width="6.4"></circle>
<circle clip-path="url(#clip722)" cx="2257.82" cy="768.931" r="14.4" fill="#009af9" fill-rule="evenodd" fill-opacity="1" stroke="#000000" stroke-opacity="1" stroke-width="6.4"></circle>
<circle clip-path="url(#clip722)" cx="2347.31" cy="2438.81" r="14.4" fill="#009af9" fill-rule="evenodd" fill-opacity="1" stroke="#000000" stroke-opacity="1" stroke-width="6.4"></circle>
<circle clip-path="url(#clip722)" cx="2347.31" cy="2350.92" r="14.4" fill="#009af9" fill-rule="evenodd" fill-opacity="1" stroke="#000000" stroke-opacity="1" stroke-width="6.4"></circle>
<circle clip-path="url(#clip722)" cx="2347.31" cy="2263.03" r="14.4" fill="#009af9" fill-rule="evenodd" fill-opacity="1" stroke="#000000" stroke-opacity="1" stroke-width="6.4"></circle>
<circle clip-path="url(#clip722)" cx="2347.31" cy="2175.14" r="14.4" fill="#009af9" fill-rule="evenodd" fill-opacity="1" stroke="#000000" stroke-opacity="1" stroke-width="6.4"></circle>
<circle clip-path="url(#clip722)" cx="2347.31" cy="2087.26" r="14.4" fill="#009af9" fill-rule="evenodd" fill-opacity="1" stroke="#000000" stroke-opacity="1" stroke-width="6.4"></circle>
<circle clip-path="url(#clip722)" cx="2347.31" cy="1999.37" r="14.4" fill="#009af9" fill-rule="evenodd" fill-opacity="1" stroke="#000000" stroke-opacity="1" stroke-width="6.4"></circle>
<circle clip-path="url(#clip722)" cx="2347.31" cy="1911.48" r="14.4" fill="#009af9" fill-rule="evenodd" fill-opacity="1" stroke="#000000" stroke-opacity="1" stroke-width="6.4"></circle>
<circle clip-path="url(#clip722)" cx="2347.31" cy="1823.59" r="14.4" fill="#009af9" fill-rule="evenodd" fill-opacity="1" stroke="#000000" stroke-opacity="1" stroke-width="6.4"></circle>
<circle clip-path="url(#clip722)" cx="2347.31" cy="1735.7" r="14.4" fill="#009af9" fill-rule="evenodd" fill-opacity="1" stroke="#000000" stroke-opacity="1" stroke-width="6.4"></circle>
<circle clip-path="url(#clip722)" cx="2347.31" cy="1647.81" r="14.4" fill="#009af9" fill-rule="evenodd" fill-opacity="1" stroke="#000000" stroke-opacity="1" stroke-width="6.4"></circle>
<circle clip-path="url(#clip722)" cx="2347.31" cy="1559.93" r="14.4" fill="#009af9" fill-rule="evenodd" fill-opacity="1" stroke="#000000" stroke-opacity="1" stroke-width="6.4"></circle>
<circle clip-path="url(#clip722)" cx="2347.31" cy="1472.04" r="14.4" fill="#009af9" fill-rule="evenodd" fill-opacity="1" stroke="#000000" stroke-opacity="1" stroke-width="6.4"></circle>
<circle clip-path="url(#clip722)" cx="2347.31" cy="1384.15" r="14.4" fill="#009af9" fill-rule="evenodd" fill-opacity="1" stroke="#000000" stroke-opacity="1" stroke-width="6.4"></circle>
<circle clip-path="url(#clip722)" cx="2347.31" cy="1296.26" r="14.4" fill="#009af9" fill-rule="evenodd" fill-opacity="1" stroke="#000000" stroke-opacity="1" stroke-width="6.4"></circle>
<circle clip-path="url(#clip722)" cx="2347.31" cy="1208.37" r="14.4" fill="#009af9" fill-rule="evenodd" fill-opacity="1" stroke="#000000" stroke-opacity="1" stroke-width="6.4"></circle>
<circle clip-path="url(#clip722)" cx="2347.31" cy="1120.48" r="14.4" fill="#009af9" fill-rule="evenodd" fill-opacity="1" stroke="#000000" stroke-opacity="1" stroke-width="6.4"></circle>
<circle clip-path="url(#clip722)" cx="2347.31" cy="1032.6" r="14.4" fill="#009af9" fill-rule="evenodd" fill-opacity="1" stroke="#000000" stroke-opacity="1" stroke-width="6.4"></circle>
<circle clip-path="url(#clip722)" cx="2347.31" cy="944.707" r="14.4" fill="#009af9" fill-rule="evenodd" fill-opacity="1" stroke="#000000" stroke-opacity="1" stroke-width="6.4"></circle>
<circle clip-path="url(#clip722)" cx="2347.31" cy="856.819" r="14.4" fill="#009af9" fill-rule="evenodd" fill-opacity="1" stroke="#000000" stroke-opacity="1" stroke-width="6.4"></circle>
<circle clip-path="url(#clip722)" cx="2347.31" cy="768.931" r="14.4" fill="#009af9" fill-rule="evenodd" fill-opacity="1" stroke="#000000" stroke-opacity="1" stroke-width="6.4"></circle>
<circle clip-path="url(#clip722)" cx="2347.31" cy="681.042" r="14.4" fill="#009af9" fill-rule="evenodd" fill-opacity="1" stroke="#000000" stroke-opacity="1" stroke-width="6.4"></circle>
<circle clip-path="url(#clip722)" cx="2436.81" cy="2614.59" r="14.4" fill="#009af9" fill-rule="evenodd" fill-opacity="1" stroke="#000000" stroke-opacity="1" stroke-width="6.4"></circle>
<circle clip-path="url(#clip722)" cx="2436.81" cy="2526.7" r="14.4" fill="#009af9" fill-rule="evenodd" fill-opacity="1" stroke="#000000" stroke-opacity="1" stroke-width="6.4"></circle>
<circle clip-path="url(#clip722)" cx="2436.81" cy="2438.81" r="14.4" fill="#009af9" fill-rule="evenodd" fill-opacity="1" stroke="#000000" stroke-opacity="1" stroke-width="6.4"></circle>
<circle clip-path="url(#clip722)" cx="2436.81" cy="2350.92" r="14.4" fill="#009af9" fill-rule="evenodd" fill-opacity="1" stroke="#000000" stroke-opacity="1" stroke-width="6.4"></circle>
<circle clip-path="url(#clip722)" cx="2436.81" cy="2263.03" r="14.4" fill="#009af9" fill-rule="evenodd" fill-opacity="1" stroke="#000000" stroke-opacity="1" stroke-width="6.4"></circle>
<circle clip-path="url(#clip722)" cx="2436.81" cy="2175.14" r="14.4" fill="#009af9" fill-rule="evenodd" fill-opacity="1" stroke="#000000" stroke-opacity="1" stroke-width="6.4"></circle>
<circle clip-path="url(#clip722)" cx="2436.81" cy="944.707" r="14.4" fill="#009af9" fill-rule="evenodd" fill-opacity="1" stroke="#000000" stroke-opacity="1" stroke-width="6.4"></circle>
<circle clip-path="url(#clip722)" cx="2436.81" cy="856.819" r="14.4" fill="#009af9" fill-rule="evenodd" fill-opacity="1" stroke="#000000" stroke-opacity="1" stroke-width="6.4"></circle>
<circle clip-path="url(#clip722)" cx="2436.81" cy="768.931" r="14.4" fill="#009af9" fill-rule="evenodd" fill-opacity="1" stroke="#000000" stroke-opacity="1" stroke-width="6.4"></circle>
<circle clip-path="url(#clip722)" cx="2436.81" cy="681.042" r="14.4" fill="#009af9" fill-rule="evenodd" fill-opacity="1" stroke="#000000" stroke-opacity="1" stroke-width="6.4"></circle>
<circle clip-path="url(#clip722)" cx="2436.81" cy="593.154" r="14.4" fill="#009af9" fill-rule="evenodd" fill-opacity="1" stroke="#000000" stroke-opacity="1" stroke-width="6.4"></circle>
<circle clip-path="url(#clip722)" cx="2436.81" cy="505.266" r="14.4" fill="#009af9" fill-rule="evenodd" fill-opacity="1" stroke="#000000" stroke-opacity="1" stroke-width="6.4"></circle>
</svg>